<svg width="65" height="85" viewBox="0 0 65 85" fill="none" xmlns="http://www.w3.org/2000/svg">
<path d="M34.2838 34.9116C36.8138 38.0816 41.2838 36.7016 43.2138 34.5416C45.1438 32.3816 45.8838 29.4016 46.5038 26.5416C47.9438 20.0316 49.3738 13.2216 47.6038 6.80155C47.1454 4.8518 46.1635 3.06419 44.7638 1.63155C44.0517 0.933773 43.1692 0.434614 42.2043 0.183733C41.2394 -0.0671468 40.2256 -0.0610028 39.2638 0.201554C37.0038 0.971554 35.7538 3.26155 34.8638 5.44155C32.2507 11.8852 31.1063 18.8302 31.5138 25.7716C31.7038 29.0016 32.2938 32.3616 34.2838 34.9116Z" fill="#E8505B"/>
<g opacity="0.2">
<path opacity="0.2" d="M34.2838 34.9116C36.8138 38.0816 41.2838 36.7016 43.2138 34.5416C45.1438 32.3816 45.8838 29.4016 46.5038 26.5416C47.9438 20.0316 49.3738 13.2216 47.6038 6.80155C47.1454 4.8518 46.1635 3.06419 44.7638 1.63155C44.0517 0.933773 43.1692 0.434614 42.2043 0.183733C41.2394 -0.0671468 40.2256 -0.0610028 39.2638 0.201554C37.0038 0.971554 35.7538 3.26155 34.8638 5.44155C32.2507 11.8852 31.1063 18.8302 31.5138 25.7716C31.7038 29.0016 32.2938 32.3616 34.2838 34.9116Z" fill="black"/>
</g>
<path d="M44.0038 51.1415C47.78 49.0754 52.1175 48.2695 56.3838 48.8415C58.6638 49.0715 61.0638 49.6015 62.7138 51.2015C64.3638 52.8015 64.8438 55.7815 63.1638 57.3515C62.0733 58.1953 60.7217 58.6305 59.3438 58.5815C56.0438 58.7515 52.3438 58.4015 49.8438 60.5815C48.4038 61.8115 47.5238 63.7515 45.7638 64.4215C44.8813 64.6743 43.9407 64.6346 43.0827 64.3084C42.2246 63.9821 41.4953 63.3868 41.0038 62.6115C40.0392 61.0128 39.7276 59.1039 40.1338 57.2815C40.2637 56.0295 40.6803 54.8243 41.3515 53.7594C42.0227 52.6946 42.9303 51.7987 44.0038 51.1415Z" fill="#E8505B"/>
<path d="M28.2138 40.0715C30.5438 36.9215 30.7438 32.5315 29.3938 28.8515C27.8841 25.2123 25.4039 22.0575 22.2238 19.7315C18.59 16.8937 14.4399 14.7881 10.0038 13.5315C8.28871 12.9608 6.47005 12.7697 4.67379 12.9715C3.76914 13.0825 2.90564 13.4141 2.1593 13.9373C1.41296 14.4604 0.806662 15.159 0.39379 15.9715C-0.69621 18.3715 0.67379 21.1615 2.10379 23.4215C4.62854 27.3967 7.46052 31.1683 10.5738 34.7015C13.0838 37.5415 15.9238 40.3215 19.5738 41.4515C23.2238 42.5815 26.8438 42.1915 28.5738 39.6215" fill="#E8505B"/>
<path d="M37.2738 84.9016C37.3637 84.4002 37.4039 83.891 37.3938 83.3816C37.3938 82.2816 37.4738 80.8916 37.5338 79.2516C37.6075 77.2136 37.7878 75.1808 38.0738 73.1616C38.4647 70.7035 39.0465 68.2795 39.8138 65.9116C40.5604 63.5534 41.6342 61.3115 43.0038 59.2516C44.1327 57.5774 45.6182 56.1738 47.3538 55.1416C48.5327 54.4614 49.8119 53.972 51.1438 53.6916C51.6495 53.6379 52.1486 53.5341 52.6338 53.3816C52.1227 53.356 51.6104 53.3794 51.1038 53.4516C49.7027 53.6448 48.3478 54.0886 47.1038 54.7616C45.2682 55.7717 43.6905 57.1919 42.4938 58.9116C41.0501 61.0056 39.9214 63.3 39.1438 65.7216C38.3619 68.1215 37.7865 70.5838 37.4238 73.0816C37.1608 75.1213 37.0239 77.1752 37.0138 79.2316C37.0138 80.9916 37.0138 82.4016 37.0138 83.3816C37.0456 83.8962 37.1327 84.4058 37.2738 84.9016Z" fill="#263238"/>
<path d="M37.3538 81.7215C37.3868 81.4893 37.3868 81.2537 37.3538 81.0215C37.3538 80.4915 37.2738 79.8315 37.2238 79.0215C37.1138 77.2915 36.9538 74.7815 36.8538 71.6815C36.6138 65.4715 36.6138 56.8815 37.0438 47.4215C37.4738 37.9615 38.3338 29.4215 39.2138 23.2515C39.4138 21.7115 39.6238 20.3315 39.8238 19.1115C40.0238 17.8915 40.1838 16.8415 40.3538 15.9915C40.5238 15.1415 40.6038 14.5415 40.6938 13.9915C40.7457 13.7618 40.7726 13.527 40.7738 13.2915C40.6827 13.5068 40.6156 13.7315 40.5738 13.9615C40.4538 14.4715 40.3038 15.1215 40.1138 15.9615C39.9238 16.8015 39.7138 17.8515 39.4838 19.0715C39.2538 20.2915 39.0038 21.6715 38.7738 23.2115C37.5585 31.2304 36.774 39.3086 36.4238 47.4115C35.9838 56.8915 36.0638 65.5015 36.4238 71.7215C36.5838 74.8215 36.8038 77.3315 36.9938 79.0615C37.0938 79.8715 37.1738 80.5315 37.2438 81.0615C37.2569 81.2848 37.2938 81.506 37.3538 81.7215Z" fill="#263238"/>
<path d="M36.3538 65.1715C36.3657 64.4754 36.3188 63.7797 36.2138 63.0915C35.9747 61.2026 35.641 59.3269 35.2138 57.4715C34.5836 54.7228 33.799 52.0119 32.8638 49.3515C31.7346 46.0839 30.3779 42.8995 28.8038 39.8215C26.0442 34.1547 22.28 29.0352 17.6938 24.7115C16.901 23.969 16.0591 23.2808 15.1738 22.6515C14.7938 22.3615 14.4538 22.0715 14.1038 21.8515L13.1038 21.2715C12.5224 20.8884 11.9103 20.5539 11.2738 20.2715C13.3975 21.7337 15.4281 23.3268 17.3538 25.0415C21.8172 29.4028 25.5004 34.4964 28.2438 40.1015C29.8062 43.1567 31.1691 46.31 32.3238 49.5415C33.4138 52.5415 34.1838 55.2615 34.7938 57.5415C35.4038 59.8215 35.7338 61.7615 35.9738 63.0815C36.0488 63.7866 36.1759 64.4851 36.3538 65.1715Z" fill="#263238"/>
</svg>
