<svg width="118" height="157" viewBox="0 0 118 157" fill="none" xmlns="http://www.w3.org/2000/svg">
<path d="M73.3072 98.5133C73.3072 98.5133 74.7639 95.2065 75.04 94.4817C75.7787 92.5004 80.5627 79.2251 79.4099 77.2231C74.115 67.9242 70.0074 61.3453 59.5626 61.3453L41.1097 61.221C41.1097 61.221 23.6303 57.6589 11.3077 97.4225L73.3072 98.5133Z" fill="#455A64"/>
<path d="M24.9903 97.5813C24.7402 96.6803 24.592 95.754 24.5485 94.8199C24.5255 93.7138 24.7278 92.6146 25.1432 91.5892C25.5586 90.5638 26.1783 89.6336 26.9647 88.8554C27.8622 87.9096 28.8286 87.095 29.6087 86.239C30.323 85.4938 30.8857 84.6169 31.2655 83.6571C31.5259 82.9996 31.6299 82.2906 31.5693 81.5861C31.5553 81.3293 31.4896 81.0781 31.376 80.8474C31.4996 81.7602 31.378 82.6894 31.0239 83.5397C30.62 84.4494 30.0566 85.2794 29.3602 85.9905C28.587 86.812 27.6205 87.6128 26.7024 88.5792C25.8063 89.4791 25.1244 90.5692 24.7073 91.7686C24.3765 92.7455 24.2337 93.7761 24.2862 94.8061C24.3181 95.4982 24.4506 96.1819 24.6797 96.8357C24.7411 97.0998 24.8461 97.3517 24.9903 97.5813Z" fill="#263238"/>
<path d="M31.9973 91.9688C32.2526 92.0639 32.516 92.1356 32.7843 92.1828C33.5529 92.3311 34.339 92.366 35.1177 92.2864C36.3559 92.1583 37.5519 91.7651 38.6246 91.1335C40.0527 90.2831 41.1835 89.0126 41.8623 87.4954C42.7006 85.6515 42.8595 83.5704 42.311 81.6206C42.0019 80.5151 41.3093 79.5558 40.3574 78.9144C39.8374 78.5695 39.2043 78.4384 38.5901 78.5486C37.972 78.6915 37.4272 79.0547 37.0575 79.5703C36.3753 80.6571 35.9466 81.8836 35.8032 83.1588C35.6598 84.4339 35.8054 85.725 36.2291 86.9362C36.6415 88.2323 37.3506 89.4142 38.3001 90.3879C39.2956 91.3831 40.5364 92.0976 41.8968 92.4589C43.2369 92.8288 44.6489 92.8531 46.001 92.5296C47.353 92.206 48.6011 91.5452 49.6286 90.6088C50.5445 89.7082 51.2321 88.6019 51.6344 87.382C52.0366 86.162 52.1418 84.8637 51.9413 83.595C51.7658 82.4132 51.2904 81.2962 50.5606 80.3503C50.1961 79.8882 49.7214 79.525 49.1799 79.2941C48.6362 79.0694 48.0255 79.0694 47.4817 79.2941C46.9913 79.5237 46.5681 79.8753 46.2527 80.3153C45.9372 80.7553 45.7399 81.2689 45.6799 81.807C45.6036 82.7794 45.7971 83.754 46.2391 84.6236C46.9718 86.0992 47.9685 87.4281 49.1799 88.5447C50.0864 89.3865 51.1009 90.1038 52.1967 90.6779C52.8861 91.0433 53.607 91.3459 54.3506 91.5822C54.5991 91.665 54.7993 91.7065 54.9305 91.741C54.9974 91.7637 55.067 91.7776 55.1376 91.7824C55.0773 91.7475 55.0122 91.7219 54.9443 91.7065C54.8131 91.6581 54.6198 91.6029 54.3713 91.5063C53.6452 91.2452 52.9411 90.9267 52.2658 90.5536C51.1946 89.9627 50.2039 89.2365 49.318 88.3928C48.1442 87.2839 47.1806 85.9719 46.4738 84.52C46.0639 83.69 45.8874 82.7641 45.9629 81.8415C46.0216 81.3564 46.2025 80.8942 46.4887 80.4981C46.7749 80.1021 47.1569 79.7852 47.599 79.5772C48.0677 79.3839 48.5939 79.3839 49.0626 79.5772C49.5515 79.7897 49.9789 80.1221 50.3052 80.5437C51.0079 81.4447 51.4646 82.5127 51.6306 83.6433C51.8185 84.8558 51.7149 86.0956 51.3284 87.26C50.9418 88.4245 50.2834 89.4802 49.4077 90.3396C48.4227 91.2234 47.2306 91.8443 45.9418 92.1448C44.653 92.4453 43.3092 92.4156 42.0349 92.0585C40.7328 91.733 39.5412 91.0657 38.5832 90.1256C37.6678 89.2035 36.98 88.0808 36.5743 86.8465C36.1804 85.6529 36.0417 84.3899 36.167 83.1393C36.2195 82.5345 36.3471 81.9385 36.5467 81.3652C36.7126 80.8023 36.9742 80.2722 37.3199 79.7981C37.6426 79.3449 38.1182 79.0237 38.6591 78.8937C39.1896 78.7969 39.737 78.9108 40.1848 79.2113C41.0787 79.795 41.7348 80.6788 42.0349 81.7034C42.5773 83.5839 42.4404 85.5953 41.6483 87.3849C41.0031 88.8671 39.9157 90.1136 38.5349 90.954C37.4939 91.5899 36.3286 91.9948 35.1177 92.1414C34.0752 92.2577 33.0206 92.1993 31.9973 91.9688Z" fill="#FAFAFA"/>
<path d="M29.2083 50.5483C29.9942 49.5909 30.5577 48.4709 30.8582 47.2692C30.9821 46.8826 30.9965 46.4692 30.8996 46.0749C30.85 45.8766 30.7353 45.7008 30.5738 45.5756C30.4123 45.4504 30.2134 45.3831 30.009 45.3845C29.5948 45.3845 29.3187 45.8056 29.0909 46.1577C28.4157 47.1737 27.8467 48.2563 27.3927 49.3885C27.259 49.698 27.1909 50.0317 27.1924 50.3688C27.1941 50.5371 27.2387 50.7022 27.322 50.8484C27.4054 50.9946 27.5248 51.117 27.6688 51.2041C27.8387 51.2778 28.0255 51.3038 28.2091 51.2795C28.3927 51.2552 28.5663 51.1814 28.7112 51.0661C28.9888 50.8305 29.2225 50.5477 29.4015 50.2307" fill="#995037"/>
<path d="M27.4342 49.782L29.2567 45.9575C29.4631 45.5918 29.5923 45.1877 29.6364 44.7701C29.654 44.5603 29.6073 44.3502 29.5024 44.1677C29.3976 43.9851 29.2396 43.8389 29.0496 43.7484C28.8735 43.6977 28.687 43.6953 28.5097 43.7415C28.3324 43.7877 28.1707 43.8806 28.0417 44.0107C27.7819 44.2682 27.5733 44.5728 27.4273 44.9082L26.5643 46.5857C26.3087 47.0303 26.1181 47.5092 25.9983 48.0078C25.9395 48.259 25.9343 48.5198 25.9831 48.7732C26.0319 49.0265 26.1335 49.2668 26.2813 49.4782C26.4393 49.6825 26.6627 49.8263 26.9141 49.8854C27.1655 49.9444 27.4296 49.9152 27.662 49.8027" fill="#995037"/>
<path d="M35.5456 61.6076C35.5456 61.6076 38.0861 58.3147 38.307 56.582C38.5279 54.8492 36.4086 51.7496 31.8454 51.0592C30.1803 50.8844 28.5758 50.337 27.1511 49.4576C26.8709 49.2674 26.665 48.9862 26.5682 48.6617C26.4713 48.3372 26.4895 47.9892 26.6195 47.6766C27.2201 46.2199 28.2971 43.5345 28.2142 43.1548C28.0002 42.2229 27.3927 42.2436 25.8187 44.5355C24.2448 46.8274 22.4153 49.1884 22.7674 50.2515C23.1195 51.3147 28.6836 54.6076 28.6836 54.6076L27.1649 57.0583L35.5456 61.6076Z" fill="#B77153"/>
<path d="M20.4548 95.4619L37.9688 61.145L26.6886 54.8284L2.99607 92.383C2.99607 92.383 1.74654 94.7854 -2.28882e-05 97.5951H19.8611" fill="#455A64"/>
<path d="M26.8473 54.8284C26.8473 54.8284 26.9095 54.8837 27.0406 54.9665L27.6343 55.3255L29.8986 56.644L38.0447 61.2831L37.9825 61.076C36.2774 64.5277 34.0614 68.5662 31.8316 72.9361C28.5111 79.3908 25.6185 85.307 23.6165 89.6147C22.6086 91.7686 21.8078 93.5221 21.2625 94.7302C21.007 95.3169 20.7999 95.7795 20.6481 96.1108C20.5662 96.2692 20.5014 96.4358 20.4548 96.6079C20.5581 96.4609 20.6461 96.3036 20.7171 96.1385C20.8828 95.7933 21.1106 95.3377 21.4074 94.7578L23.8651 89.6907C25.9361 85.4175 28.8493 79.5219 32.1491 73.0672C34.3789 68.7043 36.5811 64.6796 38.2587 61.1865L38.3208 61.0484L38.1896 60.9725L29.9815 56.4507L27.6688 55.2012L27.0544 54.8836C26.9882 54.8561 26.9185 54.8376 26.8473 54.8284Z" fill="#263238"/>
<path d="M73.3073 98.5133C74.8194 96.0524 75.8131 93.3086 76.2274 90.4501C76.117 90.4501 75.6406 92.2864 74.8467 94.5024C74.0528 96.7184 73.2106 98.4649 73.3073 98.5133Z" fill="#263238"/>
<path d="M34.7309 47.925C33.3393 48.4894 31.8017 48.5846 30.3511 48.1963C28.9005 47.8079 27.6161 46.9571 26.6926 45.7729C25.7692 44.5888 25.2571 43.1358 25.2339 41.6343C25.2107 40.1328 25.6777 38.6647 26.5642 37.4526C22.6085 36.4516 20.144 31.8884 20.9448 27.8844C21.7456 23.8805 25.3147 20.7601 29.3048 19.8972C30.8304 19.5314 32.4251 19.5718 33.9301 20.0145C34.6782 20.2442 35.3709 20.6258 35.9648 21.1353C36.5588 21.6449 37.0412 22.2716 37.3818 22.9761" fill="#263238"/>
<path d="M35.2902 38.9782C35.2902 39.0196 35.801 39.1162 36.6363 39.5512C37.8113 40.1765 38.7423 41.178 39.2804 42.3954C39.6758 43.2863 39.8424 44.2618 39.7653 45.2335C39.6881 46.2051 39.3696 47.1422 38.8385 47.9595C38.5356 48.4315 38.1632 48.855 37.734 49.2159C37.2936 49.5987 36.7948 49.9086 36.2567 50.1341C35.1244 50.6246 33.8652 50.7411 32.6621 50.4668C31.459 50.1924 30.3749 49.5414 29.5673 48.6084C29.1822 48.1696 28.8678 47.6735 28.6353 47.138C28.4079 46.6267 28.2567 46.0847 28.1866 45.5295C28.0866 44.7182 28.1561 43.8949 28.3906 43.1118C28.6251 42.3287 29.0196 41.6027 29.549 40.9799C30.0785 40.357 30.7314 39.8507 31.4665 39.4931C32.2016 39.1355 33.0029 38.9343 33.8198 38.9022C34.7655 38.8677 35.2833 39.0196 35.2902 38.9713C35.1711 38.9202 35.0458 38.8853 34.9174 38.8677C34.5567 38.7906 34.1886 38.7536 33.8198 38.7573C32.6494 38.7599 31.5049 39.1016 30.5247 39.7412C29.5446 40.3807 28.7708 41.2907 28.297 42.3609C27.8517 43.3659 27.6871 44.4729 27.8207 45.564C27.8812 46.1538 28.0374 46.7297 28.2832 47.2692C28.5221 47.8416 28.8533 48.371 29.2635 48.8363C30.1183 49.831 31.2695 50.5254 32.5481 50.8174C33.8267 51.1094 35.1653 50.9836 36.3671 50.4586C36.936 50.2139 37.4626 49.8807 37.9273 49.4714C38.3807 49.0901 38.7719 48.6406 39.0871 48.139C39.6747 47.211 40.0058 46.1439 40.0466 45.0463C40.085 43.8831 39.7869 42.7335 39.1881 41.7355C38.5893 40.7375 37.7153 39.9335 36.6709 39.42C36.3396 39.2528 35.9897 39.1253 35.6285 39.0403C35.5184 39.0069 35.4049 38.986 35.2902 38.9782Z" fill="#FF725E"/>
<path d="M32.2941 28.0984C30.8536 28.0166 29.4767 27.4777 28.3633 26.5601C27.2498 25.6425 26.4579 24.3939 26.1023 22.9955C25.7468 21.5972 25.8462 20.122 26.3861 18.784C26.926 17.446 27.8783 16.3149 29.1047 15.5549C28.5106 13.8892 28.4554 12.0789 28.947 10.3802C29.4386 8.6814 30.452 7.18028 31.8438 6.08928C33.2356 4.99829 34.9353 4.37267 36.7023 4.301C38.4693 4.22933 40.214 4.71524 41.6896 5.68993C42.8116 3.70043 44.5159 2.10218 46.5732 1.11008C48.6306 0.117975 50.9424 -0.220393 53.1978 0.140468C55.4531 0.501329 57.5439 1.54412 59.189 3.12861C60.8341 4.7131 61.9546 6.76332 62.3999 9.00357C64.422 8.16762 66.6502 7.96496 68.79 8.42237C70.9297 8.87979 72.8803 9.97574 74.384 11.5654C75.8876 13.155 76.8734 15.1635 77.2112 17.3254C77.549 19.4873 77.2228 21.7008 76.2757 23.6733C78.4893 23.8619 80.5373 24.9221 81.9691 26.6207C83.401 28.3192 84.0995 30.517 83.9109 32.7306C83.7223 34.9442 82.6621 36.9921 80.9636 38.424C79.265 39.8559 77.0672 40.5544 74.8536 40.3658C75.3009 41.8264 75.2844 43.3898 74.8063 44.8406C74.3281 46.2914 73.412 47.5583 72.184 48.4669C70.9559 49.3754 69.4764 49.8809 67.9492 49.9136C66.422 49.9464 64.9222 49.5049 63.6563 48.6499C62.8477 49.9533 61.6852 51 60.3044 51.6679C58.9236 52.3358 57.3813 52.5975 55.8575 52.4224C54.3337 52.2473 52.891 51.6426 51.6977 50.6789C50.5044 49.7152 49.6096 48.4321 49.1177 46.9792" fill="#263238"/>
<path d="M40.6059 60.4893C40.4609 57.1273 40.2814 54.0829 40.2814 54.0829C40.2814 54.0829 32.7636 53.1371 32.4391 45.4674C32.1147 37.7978 32.8809 20.1388 32.8809 20.1388L46.6878 13.4977L61.5715 25.4821L59.2382 60.6895C59.0746 63.1289 57.9618 65.4071 56.1384 67.0357C54.3149 68.6643 51.926 69.5136 49.4837 69.4016C47.1592 69.2902 44.9601 68.3145 43.3177 66.6658C41.6754 65.017 40.7082 62.8142 40.6059 60.4893Z" fill="#B77153"/>
<path d="M33.2468 33.2691C33.3711 33.4003 34.089 32.7997 35.1176 32.7583C36.1462 32.7169 36.9125 33.2415 37.0161 33.1034C37.1196 32.9654 36.947 32.8066 36.6157 32.5581C36.1701 32.2465 35.6329 32.0934 35.09 32.1232C34.5456 32.1453 34.0238 32.3468 33.6058 32.6961C33.2951 32.9723 33.1916 33.2139 33.2468 33.2691Z" fill="#263238"/>
<path d="M44.6512 33.2691C44.7754 33.4003 45.4865 32.7997 46.522 32.7583C47.5575 32.7169 48.31 33.2415 48.4204 33.1034C48.5309 32.9654 48.3514 32.8066 48.02 32.5581C47.5745 32.2465 47.0372 32.0934 46.4944 32.1232C45.95 32.1453 45.4282 32.3468 45.0101 32.6961C44.6995 32.9723 44.5959 33.2139 44.6512 33.2691Z" fill="#263238"/>
<path d="M40.7854 41.0078C40.2407 40.8454 39.6761 40.7595 39.1078 40.7523C38.8455 40.7523 38.597 40.6833 38.5487 40.4969C38.5208 40.2068 38.5758 39.9147 38.7074 39.6547C38.9467 38.9643 39.1953 38.2395 39.453 37.4801C40.4885 34.3805 41.2272 31.84 41.1098 31.7986C40.9925 31.7572 40.0674 34.2355 39.0388 37.3213L38.3485 39.5097C38.193 39.8585 38.1519 40.2476 38.2311 40.6212C38.271 40.7154 38.3313 40.7996 38.4077 40.8676C38.4841 40.9357 38.5747 40.9859 38.6729 41.0147C38.817 41.0524 38.9659 41.0687 39.1147 41.063C39.6716 41.119 40.2334 41.1004 40.7854 41.0078Z" fill="#263238"/>
<path d="M40.2814 54.0898C43.8441 53.9966 47.3018 52.864 50.2292 50.8314C50.2292 50.8314 47.889 56.4162 40.4126 55.9744L40.2814 54.0898Z" fill="#995037"/>
<path d="M50.954 13.9256C52.1514 15.6543 52.7815 17.7128 52.7567 19.8156C52.732 21.9184 52.0537 23.9614 50.8159 25.6614C49.6975 27.125 48.0131 28.3193 46.1699 28.2502C44.3267 28.1812 42.5456 26.4415 42.9391 24.6397C43.1185 25.2053 43.1633 25.8049 43.07 26.3908C42.9767 26.9768 42.7479 27.5328 42.4018 28.0147C42.0557 28.4966 41.6018 28.891 41.0763 29.1666C40.5509 29.4421 39.9683 29.5911 39.3751 29.6018C38.7819 29.6124 38.1944 29.4844 37.6594 29.2279C37.1244 28.9714 36.6566 28.5936 36.2934 28.1244C35.9302 27.6553 35.6816 27.1078 35.5674 26.5256C35.4531 25.9434 35.4764 25.3425 35.6353 24.7709C35.4918 25.599 35.1994 26.3942 34.7724 27.1181C34.5538 27.4792 34.2411 27.7741 33.8678 27.9711C33.4944 28.1681 33.0745 28.2598 32.653 28.2364C31.5001 28.0845 30.8305 26.8557 30.582 25.7029C30.2247 23.9879 30.3063 22.2104 30.8192 20.5354C31.3321 18.8603 32.2597 17.3419 33.5159 16.1209C34.7917 14.9253 36.3027 14.0089 37.9526 13.43C39.6024 12.8511 41.3548 12.6226 43.0979 12.759C46.6044 13.0676 49.9115 14.5234 52.5072 16.901" fill="#263238"/>
<path d="M49.9806 16.6318C49.008 18.8062 48.4821 21.1538 48.4342 23.5352C48.3929 25.93 49.2841 28.247 50.9195 29.9968C51.7471 30.8486 52.7995 31.448 53.9543 31.7254C55.1091 32.0028 56.319 31.9468 57.4432 31.5639C57.1405 32.5917 57.0689 33.6736 57.2336 34.7323C57.3983 35.791 57.7952 36.8001 58.3959 37.6872C59.6799 39.3924 62.2065 40.207 64.0774 39.1784C65.7756 38.2533 66.5074 36.1961 66.7421 34.277C67.024 31.9476 66.7802 29.5846 66.0286 27.3619C65.2769 25.1392 64.0366 23.1132 62.3988 21.433C60.761 19.7528 58.7673 18.4611 56.5645 17.6529C54.3617 16.8448 52.0058 16.5407 49.67 16.763" fill="#263238"/>
<path d="M59.4659 34.9052C60.4876 34.2701 61.8821 34.7878 62.6967 35.6784C63.338 36.3825 63.7343 37.2752 63.8262 38.2231C63.9181 39.1711 63.7008 40.1233 63.2067 40.9375C62.7126 41.7517 61.9682 42.3841 61.0849 42.7402C60.2016 43.0963 59.2268 43.157 58.3061 42.9132" fill="#B77153"/>
<path d="M59.7006 40.6143C59.7006 40.6557 60.0389 40.704 60.5704 40.5591C60.9224 40.4679 61.2481 40.2956 61.5215 40.0558C61.7948 39.816 62.0082 39.5155 62.1444 39.1784C62.2839 38.7779 62.2691 38.3398 62.103 37.9496C61.9634 37.6458 61.7439 37.3857 61.4678 37.1971C60.9915 36.8864 60.6325 36.8933 60.6256 36.9348C60.6187 36.9762 60.9363 37.0797 61.316 37.4042C61.5571 37.5972 61.7334 37.8595 61.821 38.1557C61.9087 38.4519 61.9035 38.7679 61.8061 39.061C61.6855 39.3528 61.5062 39.6168 61.2794 39.8365C61.0526 40.0561 60.7831 40.2269 60.4876 40.3382C59.9836 40.5107 59.6937 40.5591 59.7006 40.6143Z" fill="#995037"/>
<path d="M44.016 30.0728C44.1127 30.3697 45.2379 30.2592 46.5703 30.3213C47.9026 30.3835 49.0141 30.5492 49.1314 30.2592C49.2488 29.9693 48.165 29.272 46.6117 29.2168C45.0584 29.1616 43.9125 29.7898 44.016 30.0728Z" fill="#263238"/>
<path d="M33.2744 29.8588C33.3917 29.9623 33.6196 29.8588 33.8888 29.8242C34.196 29.7503 34.5139 29.7316 34.8276 29.769C35.228 29.769 35.6699 29.8795 36.0081 29.8726C36.3464 29.8657 36.5811 29.7966 36.6225 29.6447C36.664 29.4929 36.5121 29.3134 36.229 29.1201C35.8355 28.8688 35.3887 28.7128 34.9243 28.6645C34.6531 28.6291 34.3773 28.6581 34.1194 28.7493C33.8616 28.8405 33.6288 28.9911 33.4401 29.1891C33.1846 29.4998 33.1639 29.7621 33.2744 29.8588Z" fill="#263238"/>
<path d="M42.5733 42.9683C42.2893 42.7844 41.9687 42.6645 41.6337 42.6168C41.2988 42.5691 40.9575 42.5948 40.6334 42.6922C40.3131 42.803 40.0417 43.0224 39.8664 43.3125C39.6911 43.6026 39.623 43.9449 39.6739 44.28C39.768 44.6396 39.9886 44.9534 40.2952 45.1636C40.5188 45.3367 40.7765 45.4606 41.0513 45.5272C41.3261 45.5938 41.6118 45.6016 41.8899 45.5502C42.1685 45.4948 42.4268 45.3646 42.6371 45.1737C42.8475 44.9828 43.002 44.7383 43.0841 44.4664C43.1526 44.1913 43.1282 43.9012 43.0145 43.6415C42.9009 43.3817 42.7045 43.1669 42.4559 43.0305" fill="#995037"/>
<path d="M38.804 43.7899C38.804 43.7899 39.0526 44.0039 39.5427 44.1074C40.1956 44.243 40.8742 44.178 41.4894 43.921C42.1032 43.6618 42.6268 43.2271 42.9944 42.6715C43.2705 42.2504 43.3258 41.9398 43.2843 41.9191C43.2429 41.8983 43.091 42.1607 42.7873 42.5196C42.3952 42.978 41.9042 43.3415 41.3514 43.5828C40.7908 43.8072 40.1861 43.8993 39.5841 43.852C39.1147 43.8175 38.8247 43.7347 38.804 43.7899Z" fill="#263238"/>
<path d="M54.3712 47.4487C54.4196 47.4487 54.3712 46.9102 54.6336 45.999C54.981 44.7168 55.7493 43.5887 56.8151 42.7958C57.5411 42.2491 58.3852 41.8802 59.2796 41.7188C60.3044 41.5367 61.359 41.6272 62.3378 41.9812C62.8658 42.1718 63.3616 42.4419 63.8082 42.782C64.2804 43.1243 64.6932 43.5417 65.0301 44.0177C65.7608 45.0111 66.1548 46.212 66.1548 47.4452C66.1548 48.6784 65.7608 49.8793 65.0301 50.8728C64.6932 51.3488 64.2804 51.7662 63.8082 52.1085C63.3616 52.4486 62.8658 52.7186 62.3378 52.9093C61.5697 53.1877 60.7521 53.3035 59.937 53.2492C59.1218 53.195 58.3268 52.9719 57.6024 52.5941C56.878 52.2163 56.24 51.6921 55.729 51.0547C55.2179 50.4173 54.8449 49.6807 54.6336 48.8915C54.392 47.9802 54.4196 47.4418 54.3712 47.4487C54.3608 47.575 54.3608 47.702 54.3712 47.8284C54.372 48.1981 54.416 48.5665 54.5024 48.926C54.8119 50.2685 55.5781 51.4617 56.6701 52.3018C57.4221 52.8892 58.3018 53.2913 59.2382 53.4754C60.3179 53.6828 61.4336 53.597 62.4689 53.2268C63.0288 53.0301 63.555 52.7483 64.0291 52.3915C64.5319 52.0302 64.9726 51.5896 65.3339 51.0868C66.1177 50.0345 66.5411 48.7574 66.5411 47.4452C66.5411 46.1331 66.1177 44.856 65.3339 43.8037C64.9726 43.3009 64.5319 42.8602 64.0291 42.4989C63.555 42.1421 63.0288 41.8604 62.4689 41.6636C61.5032 41.3138 60.4644 41.2152 59.45 41.377C58.4357 41.5388 57.4791 41.9558 56.6701 42.5887C55.5781 43.4287 54.8119 44.622 54.5024 45.9644C54.416 46.3239 54.372 46.6923 54.3712 47.0621C54.3607 47.1907 54.3607 47.32 54.3712 47.4487Z" fill="#FF725E"/>
<path d="M33.2813 13.1249C33.2145 13.1295 33.1491 13.1459 33.088 13.1733C32.9082 13.2442 32.744 13.3497 32.6048 13.4839C32.3441 13.7432 32.1516 14.063 32.0444 14.4147C31.9372 14.7664 31.9187 15.1391 31.9904 15.4997C32.1369 16.0476 32.4416 16.5401 32.8664 16.9158C33.2912 17.2915 33.8173 17.5337 34.379 17.6122C35.7995 17.7827 37.2343 17.4399 38.4243 16.6457L39.8464 15.8242L38.2863 16.335C38.018 16.43 37.778 16.5911 37.5886 16.8035C37.3991 17.0159 37.2663 17.2727 37.2025 17.55C37.1276 17.8259 37.1086 18.1139 37.1465 18.3973C37.1844 18.6806 37.2786 18.9535 37.4234 19.1999C37.7395 19.6957 38.2336 20.0514 38.804 20.194C39.3792 20.3391 39.983 20.3248 40.5506 20.1526C41.8214 19.6574 42.8839 18.7412 43.5605 17.5569L44.6098 16.121L43.3396 17.3567C43.0108 17.6963 42.7747 18.1145 42.6538 18.5714C42.533 19.0283 42.5314 19.5085 42.6493 19.9662C42.7413 20.3844 42.9271 20.7763 43.1925 21.1123C43.458 21.4483 43.7962 21.7197 44.1818 21.9061C44.8145 22.2066 45.5195 22.3214 46.2148 22.2371C46.9102 22.1527 47.5673 21.8728 48.1098 21.4297C48.8259 20.8477 49.3542 20.0672 49.6286 19.1861C49.701 18.9605 49.7564 18.7297 49.7943 18.4958C49.802 18.4131 49.802 18.3299 49.7943 18.2473C49.7598 18.2473 49.7183 18.5786 49.4974 19.1516C49.1919 19.967 48.6691 20.6832 47.9856 21.2226C47.4721 21.6187 46.8585 21.8639 46.2135 21.931C45.5686 21.998 44.9176 21.8842 44.3337 21.6023C43.993 21.4322 43.695 21.1874 43.462 20.8862C43.2289 20.585 43.0667 20.2352 42.9875 19.8627C42.8869 19.4631 42.8892 19.0446 42.9942 18.6462C43.0992 18.2478 43.3036 17.8825 43.5881 17.5845L43.3189 17.3567C42.6847 18.4649 41.6946 19.3261 40.5092 19.8005C40.025 19.9797 39.4963 20 38.9998 19.8585C38.5033 19.717 38.0648 19.4211 37.7478 19.0135C37.2508 18.1989 37.5476 16.9425 38.3898 16.6595L38.2518 16.3488C37.1367 17.1149 35.7878 17.4643 34.4411 17.336C33.9204 17.2743 33.4293 17.0608 33.0292 16.722C32.629 16.3832 32.3373 15.9341 32.1906 15.4307C32.1185 15.0979 32.1252 14.7529 32.2103 14.4233C32.2955 14.0936 32.4565 13.7885 32.6807 13.5322C32.8611 13.3693 33.0632 13.2322 33.2813 13.1249Z" fill="#455A64"/>
<path d="M51.6996 25.4613C51.6996 25.4613 51.6996 25.5097 51.7894 25.5925C51.8888 25.7154 51.9973 25.8308 52.1139 25.9377C52.5603 26.3438 53.0838 26.6561 53.6533 26.8558C54.5453 27.1663 55.5137 27.1808 56.4147 26.8972C57.0114 26.7104 57.564 26.4041 58.0387 25.9971C58.5134 25.59 58.9004 25.0907 59.176 24.5294L58.8861 24.488C58.998 25.187 59.2745 25.8494 59.6928 26.4206C60.1111 26.9918 60.6591 27.4554 61.2918 27.7732C61.9244 28.0909 62.6235 28.2537 63.3315 28.2482C64.0394 28.2426 64.7359 28.0689 65.3635 27.7412C65.9911 27.4136 66.5318 26.9415 66.941 26.3638C67.3503 25.7861 67.6164 25.1194 67.7173 24.4187C67.8182 23.7179 67.7512 23.0032 67.5216 22.3335C67.2921 21.6638 66.9066 21.0583 66.397 20.5668L66.1554 20.8222C66.9705 21.4993 67.9952 21.8726 69.0548 21.8785C70.0165 21.8971 70.9633 21.6383 71.7817 21.1329C72.5133 20.6788 73.0851 20.008 73.4178 19.2137C73.6886 18.5369 73.8043 17.808 73.7561 17.0806C73.698 16.0471 73.3 15.0617 72.6239 14.2778C72.3877 13.9982 72.1022 13.7642 71.7817 13.5875C71.7817 13.5875 72.0923 13.8222 72.5273 14.3675C73.1447 15.1594 73.4973 16.1255 73.5351 17.1289C73.5638 17.8196 73.4388 18.5081 73.1693 19.1447C72.8468 19.8764 72.3069 20.491 71.6229 20.9051C70.8534 21.377 69.9641 21.6167 69.0617 21.5954C68.0836 21.5818 67.1391 21.2361 66.3832 20.6151L66.1485 20.8706C66.7356 21.4728 67.132 22.2348 67.2879 23.0613C67.4439 23.8877 67.3525 24.7418 67.0252 25.5166C66.6244 26.3623 65.954 27.0511 65.1194 27.4747C64.2847 27.8982 63.333 28.0326 62.4137 27.8568C61.6086 27.6672 60.8754 27.249 60.3023 26.6526C59.7291 26.0562 59.3404 25.3069 59.1829 24.4949L59.107 24.0116L58.893 24.4534C58.6416 24.9809 58.2873 25.4529 57.8511 25.8417C57.4148 26.2306 56.9054 26.5284 56.3525 26.7178C55.4898 27.0047 54.5575 27.0047 53.6947 26.7178C53.1368 26.546 52.6167 26.2695 52.1622 25.9032C51.8308 25.6132 51.6996 25.4475 51.6996 25.4613Z" fill="#455A64"/>
<path d="M65.3614 37.7356C65.535 37.895 65.7394 38.0172 65.962 38.0946C66.5663 38.346 67.2222 38.4478 67.8743 38.3914C68.8833 38.3169 69.825 37.8571 70.5045 37.1074C70.9328 36.6331 71.2488 36.0685 71.4293 35.4555C71.6097 34.8424 71.6499 34.1966 71.5469 33.566L71.2293 33.704C71.911 34.6067 72.7986 35.3333 73.8181 35.8234C74.6044 36.1967 75.4678 36.3788 76.3379 36.3549C77.1486 36.3322 77.9419 36.1143 78.6505 35.7198C79.2625 35.4046 79.7852 34.9402 80.1701 34.3694C80.555 33.7987 80.7898 33.1401 80.8527 32.4545C80.9349 31.5372 80.6904 30.6203 80.1624 29.8657C80.0133 29.6691 79.8393 29.4927 79.6446 29.3411C79.5804 29.2814 79.5054 29.2346 79.4237 29.203C79.4237 29.203 79.6929 29.4377 80.045 29.9486C80.5072 30.69 80.7066 31.5653 80.6111 32.4338C80.5393 33.075 80.3068 33.6877 79.9351 34.2151C79.5634 34.7425 79.0646 35.1674 78.4848 35.4506C77.792 35.8171 77.0221 36.0139 76.2383 36.0247C75.4546 36.0355 74.6795 35.86 73.9769 35.5127C73.0095 35.0514 72.165 34.3678 71.5124 33.5176L71.0636 32.9378L71.1948 33.6281C71.2926 34.2075 71.261 34.8013 71.1022 35.367C70.9435 35.9328 70.6616 36.4564 70.2767 36.9003C69.6536 37.6122 68.7868 38.0652 67.8467 38.1705C67.226 38.2433 66.597 38.1797 66.0034 37.9841C65.5892 37.8392 65.3752 37.7149 65.3614 37.7356Z" fill="#455A64"/>
<path d="M26.2675 22.7828C26.1007 23.1865 26.0482 23.6283 26.1156 24.0599C26.1973 25.1215 26.6444 26.1219 27.3807 26.891C28.117 27.66 29.0971 28.1501 30.1541 28.2779C30.5804 28.3681 31.0235 28.3345 31.4313 28.1812C31.4313 28.1191 30.9411 28.1812 30.1956 28.0225C29.2213 27.8388 28.3291 27.3545 27.6443 26.6375C26.9595 25.9206 26.5167 25.0071 26.378 24.0254C26.2537 23.2729 26.3296 22.7897 26.2675 22.7828Z" fill="#455A64"/>
<path d="M22.015 30.0106C21.921 30.1714 21.8622 30.3502 21.8424 30.5353C21.7597 31.0433 21.8097 31.5641 21.9873 32.0471C22.1139 32.4235 22.3333 32.7619 22.6253 33.031C22.9173 33.3001 23.2725 33.4912 23.658 33.5866C24.1204 33.6813 24.6005 33.6381 25.0387 33.4623C25.2845 33.3694 25.5086 33.2271 25.6974 33.0443C25.8862 32.8614 26.0355 32.6419 26.1363 32.3992L25.7911 32.2818C25.7281 32.5064 25.6979 32.739 25.7014 32.9722C25.7218 33.5055 25.8964 34.0214 26.2039 34.4575C26.5114 34.8937 26.9387 35.2314 27.4341 35.4298C27.877 35.5921 28.3592 35.6138 28.8148 35.4919C29.1989 35.3819 29.553 35.1859 29.8503 34.9189C30.2884 34.5471 30.5837 34.0347 30.6856 33.4692C30.7478 33.0757 30.6856 32.8548 30.6856 32.8617C30.6856 32.8686 30.6857 33.0757 30.5683 33.4416C30.4174 33.9453 30.1163 34.3908 29.7054 34.7187C29.4171 34.966 29.0686 35.1325 28.6952 35.2017C28.3218 35.2708 27.9367 35.2399 27.5791 35.1122C27.1536 34.9319 26.7881 34.6344 26.5253 34.2542C26.2625 33.8741 26.1132 33.4271 26.0949 32.9653C26.0911 32.7738 26.1167 32.5829 26.1708 32.3992L25.8187 32.2818C25.6332 32.6542 25.3289 32.9542 24.9538 33.1342C24.5787 33.3142 24.1543 33.3641 23.7477 33.2759C23.4094 33.1979 23.0953 33.0381 22.833 32.8107C22.5707 32.5832 22.368 32.295 22.2428 31.9712C22.0597 31.5349 21.9771 31.063 22.0012 30.5905C22.015 30.2039 22.0771 30.0175 22.015 30.0106Z" fill="#455A64"/>
<path d="M43.0979 40.2829C43.0496 40.2829 43.022 40.4417 43.0979 40.6764C43.1921 40.9795 43.3731 41.2483 43.6185 41.4495C43.8639 41.6507 44.163 41.7756 44.4786 41.8086C44.7202 41.8086 44.8652 41.7671 44.8583 41.7188C44.8514 41.6705 44.3267 41.5669 43.8573 41.1596C43.3879 40.7523 43.2015 40.2829 43.0979 40.2829Z" fill="#263238"/>
<path d="M114.442 102.903L90.2804 97.6977L61.8798 82.7656L61.7762 62.3798C66.0356 61.2063 74.2024 64.1609 88.8721 71.6373L110.68 82.8968C112.426 83.7968 113.944 85.0835 115.118 86.6588C116.292 88.2342 117.09 90.0567 117.453 91.9874C117.816 93.9181 117.733 95.9062 117.212 97.8002C116.69 99.6942 115.743 101.444 114.442 102.917V102.903Z" fill="#455A64"/>
<path d="M60.071 142.363C60.4231 141.217 60.1815 140.478 58.5108 141.044C54.8244 142.28 51.5315 141.873 50.7307 141.162C49.9299 140.451 50.6617 139.091 51.8629 139.194C53.1745 139.19 54.4795 139.009 55.7426 138.656C56.7679 138.412 57.7455 137.999 58.6351 137.434C59.4083 136.944 60.071 136.481 60.6578 136.053C60.6578 136.053 64.0612 133.595 65.1243 131.621L76.7842 136.612L74.9065 142.453C74.6835 143.476 74.2051 144.427 73.5159 145.217C72.8267 146.006 71.9491 146.608 70.9646 146.967C67.6303 148.051 62.3284 147.658 62.3284 147.658C61.355 147.023 57.6065 152.449 56.4674 154.361C55.3284 156.273 53.9822 156.515 53.5404 155.348C53.2435 154.547 56.5779 148.603 57.7377 146.733C58.6738 145.361 59.4563 143.891 60.071 142.349" fill="#B77153"/>
<path d="M115.133 102.095C115.133 102.095 78.1165 144.634 78.1648 143.93C78.2131 143.226 61.5966 130.813 61.5966 130.813L97.8602 87.598L115.133 102.095Z" fill="#455A64"/>
<path d="M77.1293 65.9214C77.1293 65.9214 76.9429 65.8247 76.5909 65.6659C76.2388 65.5071 75.6934 65.3069 74.9893 65.086C74.1254 64.8202 73.2375 64.6399 72.3384 64.5476C71.1362 64.4171 69.9201 64.5298 68.7624 64.8789C67.3591 65.3249 66.099 66.1348 65.1105 67.2261C63.9871 68.5025 63.2203 70.0527 62.8876 71.7202C62.4703 73.5297 62.3514 75.3951 62.5355 77.2429C62.7555 79.2275 63.4674 81.1258 64.6065 82.7657C65.8098 84.3525 67.3133 85.6871 69.0316 86.6937C70.6539 87.7154 72.2831 88.5438 73.8295 89.3584L82.0515 93.68L87.5742 96.5587L89.0929 97.325C89.2661 97.4237 89.4488 97.5047 89.6383 97.5666C89.4751 97.4519 89.3044 97.3481 89.1275 97.2559L87.6432 96.4275L82.1205 93.4453L73.9468 89.0616C72.4074 88.2401 70.7713 87.3979 69.1766 86.3831C67.5015 85.3979 66.0338 84.0967 64.8551 82.5517C63.7535 80.9533 63.0699 79.1044 62.8669 77.1739C62.6871 75.3732 62.7966 73.5553 63.1913 71.7893C63.4934 70.1867 64.2071 68.6903 65.2624 67.447C66.2058 66.3806 67.4162 65.5847 68.7693 65.1413C69.8842 64.7912 71.0567 64.6622 72.221 64.7616C73.1107 64.8375 73.9913 64.997 74.8512 65.2379C75.5415 65.4381 76.1007 65.6176 76.4666 65.7488C76.6797 65.833 76.9022 65.8909 77.1293 65.9214Z" fill="#263238"/>
<path d="M88.6097 97.6563C88.734 97.6908 89.0377 95.2125 90.6807 92.7204C92.3238 90.2282 94.4224 88.9166 94.3395 88.8199C93.8345 89.0196 93.3675 89.3044 92.9589 89.6622C90.9103 91.2832 89.4543 93.5352 88.8168 96.0685C88.6568 96.5819 88.5868 97.1191 88.6097 97.6563Z" fill="#263238"/>
</svg>
