<svg width="49" height="61" viewBox="0 0 49 61" fill="none" xmlns="http://www.w3.org/2000/svg">
<path opacity="0.2" d="M13.846 28.5095C15.3713 25.8676 19.1238 24.2241 25.1036 23.5789C27.267 23.3182 28.7625 23.0314 29.5902 22.7185C30.449 22.3517 31.1118 21.7639 31.5788 20.9551C32.0457 20.1464 32.1113 19.2857 31.7756 18.373C31.4938 17.4914 30.8946 16.786 29.978 16.2568C28.8997 15.6343 27.7497 15.5094 26.5279 15.8824C25.3061 16.2553 23.7773 17.098 21.9413 18.4103L13.5138 6.85904C17.1052 3.25336 20.9792 1.21266 25.1359 0.736947C29.3464 0.292367 33.5814 1.29966 37.8408 3.75881C42.6932 6.56039 45.9587 10.2429 47.6373 14.8065C49.3158 19.37 48.91 23.8084 46.4197 28.1217C45.1745 30.2784 43.6267 31.9009 41.7763 32.9892C39.9259 34.0775 37.3506 34.927 34.0505 35.5378L31.7668 35.9446C27.8259 36.5449 25.4819 37.492 24.7348 38.786L24.1278 39.8373L12.4818 33.1136C12.7064 31.2304 13.1612 29.6957 13.846 28.5095ZM0.603527 52.5668C-0.12568 49.8453 0.256801 47.1906 1.75097 44.6026C3.24515 42.0147 5.35295 40.3561 8.07439 39.6269C10.7958 38.8976 13.5045 39.3113 16.2003 40.8677C18.7883 42.3619 20.4199 44.4541 21.0952 47.1444C21.8244 49.8658 21.4419 52.5206 19.9477 55.1085C18.4536 57.6965 16.3458 59.3551 13.6243 60.0843C10.9568 60.8447 8.32904 60.4777 5.74106 58.9836C3.04524 57.4271 1.33273 55.2882 0.603527 52.5668Z" fill="#FF725E"/>
</svg>
