<svg width="24" height="25" viewBox="0 0 24 25" fill="none" xmlns="http://www.w3.org/2000/svg">
<path d="M20.8125 2.34375C20.2031 1.82812 17.7656 0.046875 12.4219 0.046875C12.4219 0.046875 6.09375 -0.328125 3 2.48438C1.26562 4.21875 0.65625 6.70312 0.609375 9.84375C0.5625 12.9375 0.46875 18.7969 6.09375 20.3906V22.7812C6.09375 22.7812 6.04688 23.7656 6.70312 24C7.5 24.2344 7.92188 23.4844 8.67188 22.6875C9.09375 22.2188 9.65625 21.6094 10.0781 21.0938C13.9219 21.4219 16.875 20.6719 17.25 20.5781C18 20.2969 22.4062 19.7344 23.1094 13.9219C23.8594 7.875 22.7812 4.07812 20.8125 2.34375ZM21.4219 13.4531C20.8594 18.3281 17.25 18.6562 16.5938 18.8906C16.3125 18.9375 13.7344 19.5938 10.4531 19.4062C10.4531 19.4062 8.01562 22.3125 7.26562 23.1094C7.03125 23.3438 6.75 23.3438 6.75 22.8281C6.75 22.5 6.75 18.7969 6.75 18.7969C2.01562 17.4844 2.29688 12.5156 2.34375 9.9375C2.39062 7.3125 2.85938 5.20312 4.3125 3.75C6.9375 1.35938 12.3281 1.73438 12.3281 1.73438C16.875 1.73438 19.0312 3.14062 19.5469 3.5625C21.2344 5.01562 22.0781 8.4375 21.4219 13.4531ZM14.9062 9.70312C14.8594 8.34375 14.1562 7.59375 12.8438 7.5C12.4219 7.5 12.375 8.10938 12.7969 8.10938C13.7812 8.20312 14.25 8.67188 14.3438 9.70312C14.3438 10.125 14.9531 10.0781 14.9062 9.70312ZM15.8906 10.2188C15.8906 10.5938 16.5 10.6406 16.5 10.2188C16.5469 7.96875 15.0938 6.09375 12.375 5.90625C11.9531 5.85938 11.9062 6.46875 12.3281 6.51562C14.6719 6.65625 15.9375 8.25 15.8906 10.2188ZM18.0938 10.8281C18.0469 6.75 15.2812 4.35938 11.8125 4.3125C11.4375 4.3125 11.4375 4.92188 11.8125 4.92188C14.9062 4.96875 17.4375 7.03125 17.4844 10.8281C17.4844 11.25 18.0938 11.25 18.0938 10.8281ZM17.5312 15.4219C17.7656 15 17.7188 14.625 17.3906 14.3438C16.7812 13.7812 15.9375 13.1719 15.2344 12.7969C14.7188 12.5156 14.2031 12.7031 13.9688 12.9844L13.5469 13.5469C13.3125 13.8281 12.8906 13.7812 12.8906 13.7812C9.75 12.9844 8.90625 9.84375 8.90625 9.84375C8.90625 9.84375 8.90625 9.42188 9.1875 9.1875L9.75 8.71875C10.0312 8.48438 10.1719 7.96875 9.89062 7.45312C9.75 7.17188 9.42188 6.65625 9.1875 6.375C8.95312 6 8.34375 5.34375 8.34375 5.34375C8.10938 4.96875 7.6875 4.92188 7.26562 5.15625H7.21875C6.32812 5.625 5.34375 6.60938 5.67188 7.54688C5.67188 7.54688 5.90625 8.39062 6.89062 10.1719C7.35938 11.0625 7.875 11.7656 8.34375 12.375C8.85938 13.0312 9.5625 13.7344 10.3125 14.3438C11.8125 15.5156 14.1094 16.7344 15.0938 17.0156H15.1406C16.0781 17.3438 17.0625 16.3594 17.5312 15.4688V15.4219Z" fill="white"/>
</svg>
