<svg width="27" height="23" viewBox="0 0 27 23" fill="none" xmlns="http://www.w3.org/2000/svg">
<path d="M26.332 2.55078C26.625 2.25781 26.625 1.84766 26.332 1.55469L25.9219 1.14453C25.6289 0.851562 25.2188 0.851562 24.9258 1.14453L13.5 12.5703L2.01562 1.14453C1.72266 0.851562 1.3125 0.851562 1.01953 1.14453L0.609375 1.55469C0.316406 1.84766 0.316406 2.25781 0.609375 2.55078L12.9727 14.9141C13.2656 15.207 13.6758 15.207 13.9688 14.9141L26.332 2.55078ZM26.332 9.05469L25.9219 8.64453C25.6289 8.35156 25.2188 8.35156 24.9258 8.64453L13.5 20.0703L2.01562 8.64453C1.72266 8.35156 1.3125 8.35156 1.01953 8.64453L0.609375 9.05469C0.316406 9.34766 0.316406 9.75781 0.609375 10.0508L12.9727 22.4141C13.2656 22.707 13.6758 22.707 13.9688 22.4141L26.332 10.0508C26.625 9.75781 26.625 9.34766 26.332 9.05469Z" fill="black"/>
</svg>
