<svg width="42" height="47" viewBox="0 0 42 47" fill="none" xmlns="http://www.w3.org/2000/svg">
<path d="M13.3 0L0 39.17L39.33 46.98L41.59 5.62L13.3 0Z" fill="#FECBCB"/>
<path d="M37.24 10.8201C37.1785 11.2417 37.0249 11.6446 36.79 12.0001C36.2566 12.9705 35.5827 13.8568 34.79 14.6301C33.6229 15.8066 32.199 16.6966 30.63 17.2301C28.6899 17.8487 26.6222 17.9521 24.63 17.5301C22.6191 17.1722 20.7348 16.3007 19.16 15.0001C17.8885 13.9343 16.9166 12.5557 16.34 11.0001C15.9487 9.96519 15.7226 8.87521 15.67 7.77007C15.6026 7.36867 15.6335 6.95693 15.76 6.57007C15.9461 8.0178 16.3054 9.43796 16.83 10.8001C17.4304 12.2424 18.3786 13.5136 19.59 14.5001C21.1081 15.6683 22.8906 16.4445 24.78 16.7601C26.6555 17.1594 28.6011 17.0837 30.44 16.5401C31.9274 16.0646 33.2926 15.2693 34.44 14.2101C35.4912 13.1828 36.4298 12.0464 37.24 10.8201Z" fill="white"/>
</svg>
