<svg width="138" height="124" viewBox="0 0 138 124" fill="none" xmlns="http://www.w3.org/2000/svg">
<path d="M120.837 58.2142C120.837 58.2142 125.231 55.5239 126.219 56.3113C127.649 57.456 128.123 59.3808 128.123 59.3808C128.123 59.3808 130.446 50.4676 132.658 50.8067C133.928 50.9999 133.306 51.9987 132.737 53.2491C132.209 54.412 131.308 58.6736 131.308 58.6736C131.308 58.6736 135.503 53.6574 136.737 53.7486C137.692 53.8178 137.823 54.6636 136.458 56.0197C135.094 57.3758 132.803 61.6482 132.803 61.6482C132.803 61.6482 135.745 58.8886 136.958 58.8704C137.928 58.8704 138.554 59.5375 137.32 60.6348C136.085 61.7321 134.167 62.5523 133.154 64.5354C131.905 66.9815 129.245 73.0767 129.245 73.0767L119.936 69.7557C119.936 69.7557 118.419 63.5329 118.361 62.0237C118.361 62.0237 118.488 58.8303 118.47 58.2616C118.452 57.6929 119.95 57.5325 120.403 58.6262C120.855 59.7198 120.652 60.8645 120.837 61.5899C121.021 62.3154 121.347 62.9898 121.876 63.3142C122.404 63.6387 123.743 63.6605 124.087 63.2595C124.529 62.5666 124.818 61.7858 124.934 60.9702C124.98 60.3534 124.972 59.7336 124.909 59.1183C124.909 59.1183 121.025 60.7114 120.837 58.2142Z" fill="#FFBE9D"/>
<path d="M16.2221 87.2393L9.75062 84.8005C9.75062 84.8005 3.16333 80.929 1.9436 82.2961C1.77156 82.2091 1.58305 82.1602 1.39071 82.1527C1.19836 82.1451 1.00664 82.179 0.828401 82.2522C0.650159 82.3254 0.489517 82.4362 0.35725 82.577C0.224983 82.7179 0.12415 82.8856 0.0615135 83.0689C-0.27147 83.8782 0.836062 85.0557 0.836062 85.0557C0.836062 85.0557 0.474124 85.4202 1.03513 86.6013C1.59613 87.7825 7.83234 91.5446 7.83234 91.5446C7.83234 91.5446 15.9615 96.0102 19.2479 98.1465L24.9195 90.378L24.1341 90.0791C24.1341 90.0791 23.6635 86.2076 22.0927 85.176C20.3771 84.0532 18.3141 81.0129 17.858 79.8354C17.402 78.6579 15.2195 79.1938 15.5851 81.6581C15.9506 84.1224 17.858 84.7713 17.6771 86.4191C17.4961 88.0668 16.2221 87.2393 16.2221 87.2393Z" fill="#FFBE9D"/>
<path d="M6.305 88.1433C5.33732 87.7082 4.39695 87.2139 3.48911 86.6633C2.55094 86.1689 1.64214 85.6199 0.767334 85.0192C1.7336 85.4548 2.67275 85.9491 3.5796 86.4992C4.51864 86.9941 5.42861 87.5431 6.305 88.1433Z" fill="#EB996E"/>
<path d="M9.46107 86.3133C9.06317 86.1861 8.67489 86.0302 8.29925 85.8467C7.59347 85.5368 6.62347 85.0921 5.57385 84.5526C4.52423 84.013 3.59766 83.4589 2.94979 83.0433C2.62767 82.8283 2.37069 82.6496 2.20058 82.5148C2.10565 82.4537 2.01923 82.3801 1.9436 82.296C2.31738 82.4862 2.67993 82.698 3.02942 82.9303C3.69177 83.324 4.61833 83.8417 5.66433 84.3885C6.71034 84.9353 7.66947 85.391 8.3644 85.7337C8.74461 85.8974 9.11132 86.0912 9.46107 86.3133Z" fill="#EB996E"/>
<path d="M10.822 89.9004C10.6222 89.8139 10.4307 89.7089 10.2501 89.5869L8.72271 88.6719V88.65C8.39957 87.9245 8.03708 87.2175 7.6369 86.532C7.41365 86.1316 7.13724 85.7636 6.81529 85.4384C6.64388 85.2819 6.42567 85.1873 6.19501 85.1695C5.96436 85.1517 5.73437 85.2117 5.54127 85.34C5.46015 85.3866 5.39079 85.4515 5.33858 85.5295C5.33858 85.5295 5.33858 85.5295 5.33858 85.5733L5.36392 85.6535C5.38202 85.7082 5.40011 85.7628 5.42183 85.8139C5.49784 86.0326 5.5847 86.2477 5.66795 86.4591L6.15295 87.6621C6.47507 88.435 6.76824 89.1458 7.02884 89.7655V89.7473L8.33182 91.282L8.69376 91.7086C8.76976 91.807 8.80958 91.8617 8.80234 91.869C8.74984 91.8316 8.70239 91.7874 8.66118 91.7377L8.29924 91.3367L6.95283 89.8421C6.685 89.2333 6.37735 88.5261 6.04798 87.7496L5.54489 86.5357C5.45802 86.3242 5.37116 86.1092 5.29153 85.8868C5.26982 85.8321 5.25172 85.7774 5.23362 85.7191L5.20467 85.6316C5.19862 85.5881 5.19862 85.5439 5.20467 85.5004C5.22849 85.4246 5.27378 85.3574 5.33496 85.3072C5.3835 85.2639 5.43556 85.2249 5.4906 85.1905C5.72109 85.0391 5.99425 84.9675 6.26877 84.9864C6.53796 85.0097 6.79218 85.1211 6.99264 85.3035C7.32896 85.6431 7.61648 86.0284 7.84682 86.4482C8.25119 87.1438 8.61377 87.8633 8.93264 88.6026L8.90368 88.5735L10.3985 89.5432C10.5472 89.6528 10.6887 89.7722 10.822 89.9004Z" fill="#EB996E"/>
<path d="M17.3079 89.9661C17.0381 89.9261 16.7727 89.8602 16.5153 89.7693C15.8934 89.5764 15.2504 89.4613 14.6006 89.4266C13.9567 89.4057 13.3194 89.5633 12.7584 89.8823C12.5357 90.0352 12.3218 90.2007 12.1177 90.378C12.2458 90.1248 12.443 89.9136 12.686 89.7693C13.2556 89.3969 13.9256 89.211 14.6043 89.237C15.2715 89.2691 15.9296 89.4056 16.5551 89.6417C16.8193 89.7155 17.0725 89.8246 17.3079 89.9661Z" fill="#EB996E"/>
<path d="M16.8229 88.2417C16.8664 88.2745 16.7035 88.5589 16.5478 88.9198C16.3922 89.2807 16.2909 89.5905 16.2402 89.5796C16.1895 89.5687 16.2076 89.2151 16.3741 88.8505C16.5406 88.486 16.7831 88.2199 16.8229 88.2417Z" fill="#EB996E"/>
<path d="M54.1134 57.2627C54.5586 54.1932 58.0948 49.7895 61.2509 49.7859C60.37 48.4581 59.8944 46.8996 59.8828 45.3027C59.8712 43.7058 60.3242 42.1404 61.1857 40.7998C62.3982 38.9771 64.3527 37.6283 65.1671 35.6014C66.1045 33.3121 65.3842 30.7202 65.4747 28.2522C65.605 24.6359 67.4726 21.3259 69.2932 18.1908C70.9581 15.3145 72.9886 12.1612 76.2677 11.454C78.3416 11.0092 80.4952 11.6691 82.4424 12.5039C91.7587 16.5139 99.0047 24.9239 101.495 34.6536C102.088 36.9794 102.487 39.4984 104.097 41.2993C105.806 43.2058 108.802 44.2375 109.305 46.731C109.667 48.5209 108.535 50.3181 108.705 52.1335C108.846 53.6537 111.676 58.0902 112.324 59.4755C113.45 61.8633 113.048 64.4406 111.897 66.8211C110.746 69.2016 107.858 71.5128 105.277 72.1799L76.3908 62.4866C73.6762 64.0432 70.9617 70.0692 67.849 70.441C64.7364 70.8128 60.9215 72.1799 57.9102 68.8516C54.7758 65.3848 53.6646 60.3358 54.1134 57.2627Z" fill="#263238"/>
<path d="M102.005 28.3288C101.683 30.764 102.345 34.7886 103.667 36.8665C104.553 38.2627 106.034 39.1704 107.492 39.9688C108.951 40.7671 110.482 41.5363 111.586 42.7685C112.69 44.0006 113.287 45.8525 112.548 47.3289C115.151 48.3059 116.316 51.6451 115.361 54.2261C114.405 56.8071 111.788 58.546 109.056 59.0563L97.1408 55.4474L94.5276 40.1365L101.404 28.3252" fill="#263238"/>
<path d="M103.467 43.9386C103.547 43.9656 103.625 43.9997 103.699 44.0407C103.922 44.1419 104.14 44.2551 104.351 44.3797C105.134 44.8497 105.839 45.4415 106.439 46.1332C106.86 46.6132 107.232 47.1347 107.55 47.6898C107.916 48.3346 108.208 49.0196 108.419 49.7312C108.927 51.3922 108.939 53.1674 108.451 54.8349L108.408 54.7255C109.119 55.1266 109.771 55.626 110.344 56.2092C111.782 57.6444 112.698 59.5259 112.943 61.5498C113.116 63.1978 112.821 64.8615 112.092 66.3472C111.607 67.3455 110.943 68.2451 110.134 69.0011C109.915 69.2032 109.685 69.3919 109.443 69.5661C109.362 69.6326 109.275 69.6912 109.182 69.7411C109.255 69.6666 109.334 69.5983 109.418 69.537C109.649 69.3516 109.872 69.1545 110.084 68.9464C110.863 68.1794 111.501 67.2797 111.969 66.2889C112.674 64.8165 112.952 63.1741 112.773 61.5498C112.52 59.5694 111.62 57.7301 110.214 56.3222C109.652 55.7495 109.014 55.2587 108.317 54.864L108.252 54.8276L108.274 54.7546C108.76 53.1209 108.76 51.3795 108.274 49.7458C108.064 49.0528 107.779 48.3852 107.423 47.7554C107.112 47.2057 106.749 46.688 106.338 46.2097C105.754 45.5179 105.071 44.9182 104.311 44.4307C104.047 44.2521 103.818 44.1537 103.677 44.0662C103.604 44.029 103.534 43.9864 103.467 43.9386Z" fill="#455A64"/>
<path d="M68.2254 59.7854C68.2254 59.7854 62.9049 61.4149 61.0373 64.1599C59.7163 66.092 46.1978 95.5728 46.1978 95.5728L25.6976 89.3573L18.3503 99.1162L41.1778 111.875C43.259 113.037 45.6016 113.642 47.9812 113.631C50.3608 113.62 52.6979 112.994 54.7686 111.813C57.1065 110.476 59.0098 108.486 60.2483 106.083L66.0393 94.8838L68.2254 59.7854Z" fill="#E8505B"/>
<path d="M62.7783 124L65.9815 110.093L63.5565 99.9947C61.9929 94.7963 60.661 86.3279 62.3512 79.5036L68.0445 59.8875L74.2843 56.9966L88.5592 54.525C89.1057 54.7109 103.486 58.8011 103.486 58.8011C104.432 59.0002 105.364 59.2621 106.276 59.5849L107.923 70.3244L102.968 88.0231L100.796 105.66L105.538 124H62.7783Z" fill="#E8505B"/>
<path d="M71.0304 58.4949L75.1674 56.6321L93.8253 56.8909L98.241 59.4719C98.241 59.4719 82.826 76.6055 78.9569 77.1742C69.228 78.5996 71.0304 58.4949 71.0304 58.4949Z" fill="#FFBE9D"/>
<path d="M105.853 59.4209C105.853 59.4209 108.647 60.0552 111.043 65.2026C113.439 70.35 117.312 84.6766 117.312 84.6766L118.966 69.4933L132.455 70.9879L129.846 107.271C129.846 107.271 125.072 114.245 117.087 113.603C109.103 112.962 98.9613 87.5346 98.9613 87.5346L105.853 59.4209Z" fill="#E8505B"/>
<path d="M115.205 103.228C115.201 103.199 115.201 103.17 115.205 103.141C115.205 103.071 115.205 102.988 115.205 102.886C115.205 102.641 115.241 102.313 115.267 101.898C115.317 101.037 115.419 99.8015 115.56 98.2704C115.838 95.2119 116.356 90.9978 116.986 86.3571C117.616 81.7164 118.151 77.5059 118.466 74.4547C118.622 72.9272 118.745 71.6914 118.828 70.8348C118.868 70.4192 118.9 70.1057 118.922 69.8505C118.922 69.7484 118.944 69.6646 118.955 69.5953C118.951 69.5663 118.951 69.5369 118.955 69.5078C118.958 69.5369 118.958 69.5663 118.955 69.5953V69.8541C118.955 70.0947 118.919 70.4265 118.897 70.842C118.843 71.6987 118.741 72.9382 118.6 74.4656C118.321 77.5242 117.807 81.7383 117.174 86.3826C116.541 91.0269 116.009 95.2301 115.694 98.285C115.538 99.8125 115.415 101.048 115.332 101.901C115.292 102.317 115.259 102.63 115.238 102.886C115.238 102.988 115.216 103.075 115.209 103.141C115.21 103.17 115.209 103.199 115.205 103.228Z" fill="#263238"/>
<path d="M46.4368 103.4C46.4368 103.4 46.3717 103.308 46.2848 103.13C46.1674 102.874 46.0635 102.613 45.9735 102.346C45.3654 100.582 45.1842 98.6974 45.4451 96.8487C45.4821 96.5691 45.5341 96.2916 45.6007 96.0176C45.6171 95.9145 45.6501 95.8147 45.6985 95.7223C45.7274 95.7223 45.6442 96.1597 45.5754 96.8633C45.389 98.6946 45.5674 100.545 46.1002 102.306C46.3029 102.98 46.4658 103.389 46.4368 103.4Z" fill="#263238"/>
<path d="M48.7061 103.739C48.6141 103.659 48.5337 103.567 48.4672 103.465C48.2652 103.208 48.0768 102.94 47.9026 102.663C46.7412 100.825 46.0212 98.7391 45.7997 96.5716C45.7647 96.2447 45.7466 95.9161 45.7454 95.5873C45.7305 95.4663 45.7305 95.3438 45.7454 95.2228C45.778 95.2228 45.7997 95.7331 45.9119 96.5497C46.0606 97.6127 46.3103 98.6589 46.6575 99.6739C47.0101 100.688 47.4599 101.664 48.0003 102.59C48.431 103.301 48.7314 103.72 48.7061 103.739Z" fill="#263238"/>
<path d="M64.6749 71.3196C64.661 71.4199 64.638 71.5188 64.6061 71.6149C64.5482 71.8227 64.4722 72.0997 64.3745 72.446C64.1682 73.1751 63.875 74.2287 63.5167 75.5082C62.5385 78.8591 61.8209 82.2816 61.3704 85.7446C60.9065 89.2155 61.2081 92.7467 62.2535 96.0868C62.6335 97.37 62.9955 98.3944 63.2452 99.1016C63.361 99.4406 63.4588 99.714 63.5275 99.9145C63.5643 100.01 63.5945 100.107 63.618 100.206C63.5681 100.118 63.5257 100.025 63.4913 99.9291C63.4153 99.7286 63.3068 99.4625 63.1765 99.1271C62.905 98.4272 62.525 97.4064 62.1268 96.1232C61.6439 94.6188 61.3069 93.0707 61.1206 91.5008C60.9191 89.5776 60.941 87.6372 61.1858 85.7191C61.6347 82.244 62.3707 78.8126 63.3864 75.4608C63.7483 74.174 64.0813 73.135 64.3057 72.4205L64.5699 71.5966C64.5962 71.5012 64.6314 71.4084 64.6749 71.3196Z" fill="#263238"/>
<path d="M102.396 95.2265C102.377 95.199 102.362 95.1697 102.349 95.139L102.222 94.8692C102.107 94.6177 101.951 94.2677 101.752 93.823C101.553 93.3782 101.296 92.8168 101.028 92.1643C100.76 91.5117 100.471 90.7571 100.141 89.9333C99.8119 89.1094 99.5187 88.1762 99.1676 87.1919L98.6899 85.6389L98.4437 84.826C98.3641 84.5526 98.299 84.2682 98.223 83.9839C97.5407 81.5184 97.1137 78.9883 96.9489 76.4342C96.7589 73.8732 97.0211 71.2985 97.7235 68.8298C98.2818 66.7966 99.3057 64.9238 100.713 63.3616C101.658 62.3129 102.803 61.4662 104.079 60.8717C104.425 60.7137 104.782 60.5809 105.147 60.4744L105.433 60.3942C105.464 60.3824 105.497 60.375 105.53 60.3723C105.53 60.3723 105.502 60.3723 105.44 60.4124L105.158 60.5108C104.8 60.6329 104.449 60.7766 104.108 60.941C102.856 61.5526 101.736 62.406 100.811 63.4527C99.4361 65.005 98.4364 66.8566 97.89 68.8626C97.2009 71.3139 96.9449 73.8681 97.1335 76.4086C97.2976 78.9505 97.7172 81.469 98.3858 83.9256C98.4618 84.2099 98.5306 84.4906 98.603 84.7677L98.8455 85.577C99.0047 86.1092 99.1604 86.6268 99.3124 87.1263C99.6562 88.1142 99.953 89.0401 100.264 89.8713L101.122 92.1096C101.386 92.7658 101.629 93.3199 101.817 93.7792C102.005 94.2385 102.15 94.5849 102.255 94.8364L102.364 95.1134C102.38 95.1491 102.391 95.1873 102.396 95.2265Z" fill="#263238"/>
<g opacity="0.3">
<path opacity="0.3" d="M97.2565 78.7927C95.4903 87.1955 95.4686 95.8389 98.5052 103.862C98.679 104.329 99.3775 105.984 99.8734 106.01C100.5 106.039 100.796 105.255 100.905 104.632C101.126 103.352 101.267 101.249 101.484 99.9692C101.766 98.3688 102.143 94.6614 102.143 94.6614C102.143 94.6614 100.695 91.3003 100.043 89.4958C98.8527 86.1492 97.8465 82.9558 97.2927 79.0588" fill="black"/>
</g>
<path d="M95.8161 111.343C95.7753 111.421 95.7281 111.495 95.6749 111.565L95.2406 112.171C95.1465 112.305 95.0379 112.451 94.9257 112.608C94.8135 112.765 94.6579 112.925 94.5095 113.1C94.1791 113.505 93.8262 113.891 93.4526 114.256L92.8047 114.894C92.5767 115.116 92.3161 115.317 92.0591 115.539C91.5058 116.01 90.9283 116.452 90.3291 116.862C87.5692 118.745 84.4251 119.979 81.1286 120.475C80.4087 120.581 79.6839 120.649 78.9569 120.679C78.6167 120.679 78.2874 120.719 77.9725 120.712L77.0676 120.683C76.5469 120.668 76.0273 120.624 75.5113 120.551C75.2833 120.526 75.0734 120.508 74.8779 120.475L74.3495 120.369L73.6256 120.216C73.5403 120.203 73.4565 120.181 73.3759 120.15C73.4623 120.151 73.5484 120.161 73.6328 120.18L74.3567 120.296L74.8851 120.384C75.077 120.413 75.2905 120.424 75.5185 120.446C76.0316 120.507 76.5474 120.542 77.064 120.551H77.9652C78.2801 120.551 78.6023 120.522 78.9425 120.508C79.6157 120.508 80.3323 120.38 81.0852 120.285C82.7105 120.018 84.3051 119.587 85.8446 118.998C87.3728 118.381 88.8362 117.611 90.2132 116.702C90.8322 116.257 91.433 115.856 91.9433 115.404C92.2003 115.185 92.4609 114.988 92.6889 114.773L93.344 114.146C93.7711 113.76 94.1005 113.352 94.4117 113.016C94.5638 112.845 94.7121 112.688 94.8352 112.539C94.9583 112.389 95.0668 112.243 95.1646 112.112C95.3564 111.872 95.5084 111.675 95.6242 111.525C95.682 111.458 95.7463 111.397 95.8161 111.343Z" fill="#263238"/>
<path d="M92.8698 105.784C92.8724 105.918 92.8565 106.051 92.8228 106.181C92.7603 106.541 92.6757 106.896 92.5694 107.245C92.2283 108.406 91.7237 109.511 91.071 110.526C90.4209 111.541 89.6285 112.456 88.7184 113.242C88.4456 113.481 88.1592 113.704 87.8606 113.909C87.755 113.993 87.6395 114.063 87.5167 114.117C87.4987 114.088 87.9619 113.753 88.6315 113.14C90.3847 111.527 91.6971 109.487 92.4428 107.216C92.7287 106.338 92.8373 105.776 92.8698 105.784Z" fill="#263238"/>
<path d="M86.3007 9.13184C88.8342 9.17685 91.3149 9.86952 93.5098 11.1448C95.7048 12.4201 97.542 14.2363 98.8491 16.4227C100.106 18.6373 100.783 21.1369 100.819 23.6873C100.854 26.2377 100.246 28.7554 99.0518 31.0045C98.2193 32.5247 97.0285 33.961 95.3889 34.4932C95.6396 30.1195 94.9499 25.7428 93.3671 21.6621C91.7842 17.5815 89.3455 13.8931 86.2174 10.8488" fill="#E8505B"/>
<path d="M92.2111 10.4479C91.4619 8.87669 92.2654 6.91179 93.6009 5.80722C94.9365 4.70265 96.681 4.25426 98.364 3.84961C100.047 3.44497 101.792 3.02574 103.152 1.95398C102.957 4.68807 102.284 7.49506 100.528 9.58755C98.773 11.68 95.7327 12.8429 93.2281 11.7748" fill="#E8505B"/>
<path d="M93.9485 12.2487C92.7975 12.7336 91.4149 12.431 90.3942 11.7201C89.3937 10.9566 88.5812 9.97111 88.0199 8.84022C87.2497 7.4997 86.7354 6.02589 86.5034 4.49484C86.272 2.95364 86.5371 1.37832 87.2598 0C89.2396 2.1253 91.4221 3.91157 92.555 6.59462C93.221 8.1731 93.1413 10.6994 92.4283 12.256" fill="#E8505B"/>
<path d="M99.5622 21.0853C99.6095 21.2522 99.6422 21.423 99.6599 21.5957C99.6888 21.7597 99.7178 21.9602 99.7359 22.1972C99.754 22.4341 99.7866 22.7003 99.7938 22.9955C99.8255 23.6931 99.8134 24.392 99.7576 25.088C99.6831 25.9398 99.5488 26.7853 99.3559 27.618C99.1557 28.4485 98.8969 29.2635 98.5813 30.0568C98.3224 30.7043 98.0214 31.3339 97.6801 31.9415C97.5425 32.204 97.3941 32.43 97.2711 32.6305C97.148 32.831 97.0322 32.995 96.9345 33.1335C96.8485 33.2776 96.7492 33.4131 96.6377 33.5382C96.7072 33.3806 96.7921 33.2304 96.8911 33.0898C96.9779 32.9476 97.0865 32.7763 97.1987 32.5721C97.3109 32.368 97.4521 32.1383 97.5823 31.8722C97.9007 31.2607 98.187 30.6328 98.4402 29.9912C98.7337 29.2017 98.9779 28.3945 99.1713 27.5742C99.3593 26.7488 99.4959 25.9124 99.5803 25.0698C99.6439 24.3816 99.6693 23.6903 99.6563 22.9992C99.6563 22.7039 99.6346 22.4378 99.6273 22.2045C99.6201 21.9712 99.5984 21.767 99.5839 21.603C99.559 21.4316 99.5517 21.2582 99.5622 21.0853Z" fill="#263238"/>
<path d="M98.4474 11.3009C98.3221 11.4183 98.1877 11.5256 98.0457 11.6217C97.6395 11.86 97.1985 12.0322 96.739 12.1321C95.1985 12.4016 93.6171 12.3106 92.1171 11.866H92.0628V11.8113C92.0375 11.7019 92.0121 11.5853 91.9868 11.4686C91.7961 10.5777 91.7557 9.6608 91.8673 8.75639C91.9494 8.01072 92.2102 7.29634 92.6274 6.67483C92.9192 6.26297 93.288 5.91251 93.7132 5.64317C93.8694 5.54882 94.0328 5.46715 94.2018 5.39893C94.0625 5.51369 93.9135 5.61614 93.7567 5.70514C93.3618 5.99045 93.021 6.34481 92.7505 6.75139C92.3636 7.36278 92.1244 8.05695 92.0519 8.77826C91.9546 9.66317 91.9998 10.5581 92.1858 11.4285C92.2112 11.5452 92.2365 11.6582 92.2582 11.7675L92.1931 11.6983C93.6666 12.1338 95.2164 12.242 96.7354 12.0154C97.1873 11.932 97.6249 11.7834 98.0348 11.5743C98.1629 11.4695 98.3011 11.3779 98.4474 11.3009Z" fill="#263238"/>
<path d="M99.9131 6.58736C99.9131 6.62017 99.3847 6.69673 98.5559 6.95191C98.0708 7.09681 97.5957 7.27338 97.1334 7.4805C96.0007 7.99087 94.956 8.68001 94.0389 9.52195C93.6672 9.8646 93.3167 10.2298 92.9893 10.6156C92.4319 11.2827 92.1532 11.7457 92.1206 11.7274C92.1658 11.6076 92.2253 11.4937 92.298 11.3884C92.4751 11.0885 92.6722 10.8011 92.8879 10.5281C93.2033 10.1204 93.5494 9.73767 93.9231 9.38342C94.3839 8.95104 94.879 8.55725 95.4034 8.20594C95.9331 7.86394 96.4886 7.5641 97.0647 7.30916C97.5344 7.10697 98.0183 6.94004 98.5124 6.80974C98.8468 6.72073 99.1865 6.65375 99.5295 6.60924C99.6557 6.58351 99.7849 6.57614 99.9131 6.58736Z" fill="#263238"/>
<path d="M93.8725 12.205C93.8725 12.205 93.8725 12.2415 93.8725 12.3144C93.8513 12.4175 93.8185 12.5178 93.7748 12.6133C93.6131 12.9734 93.3642 13.2868 93.0509 13.5247C92.5882 13.8914 92.0104 14.079 91.4222 14.0533C91.0654 14.0195 90.7204 13.9074 90.4114 13.7247C90.1024 13.5421 89.8369 13.2934 89.6336 12.9962C89.4304 12.6991 89.2943 12.3606 89.235 12.0047C89.1757 11.6488 89.1946 11.2842 89.2903 10.9364C89.4835 10.375 89.8683 9.90088 90.3762 9.59855C90.7051 9.3971 91.0778 9.27948 91.462 9.25587C91.5673 9.25258 91.6726 9.25868 91.7769 9.2741C91.8456 9.2741 91.8854 9.29233 91.8818 9.29962C91.7449 9.31668 91.6072 9.32642 91.4692 9.32878C91.099 9.37705 90.7442 9.50781 90.4305 9.71155C89.9674 10.012 89.621 10.4638 89.4496 10.9911C89.3618 11.3147 89.3447 11.6537 89.3996 11.9846C89.4545 12.3156 89.5801 12.6305 89.7676 12.9078C89.9552 13.1851 90.2002 13.4181 90.4859 13.5907C90.7716 13.7632 91.091 13.8713 91.4222 13.9075C91.9722 13.9329 92.5145 13.7697 92.9604 13.4445C93.2617 13.2239 93.5092 12.9372 93.6843 12.606C93.8182 12.3472 93.8544 12.1978 93.8725 12.205Z" fill="#263238"/>
<path d="M89.4857 12.2961C89.4676 12.3144 89.359 12.0956 89.5292 11.8113C89.6326 11.6544 89.7837 11.5354 89.9599 11.4723C90.1691 11.4059 90.3896 11.3836 90.6077 11.4067C91.1515 11.4149 91.6824 11.5738 92.1424 11.866C92.1206 11.9207 91.4547 11.6545 90.5933 11.5962C90.423 11.5607 90.2467 11.5688 90.0804 11.6198C89.9141 11.6707 89.7631 11.7629 89.6414 11.8879C89.5576 12.0093 89.5042 12.1494 89.4857 12.2961Z" fill="#263238"/>
<path d="M87.2598 0C86.9833 0.482178 86.7957 1.01078 86.706 1.56025C86.6262 2.16428 86.5983 2.77412 86.6228 3.38298C86.6165 4.12384 86.6807 4.86361 86.8146 5.59212C87.1008 6.90692 87.6247 8.15746 88.3601 9.28131C88.6533 9.70419 88.9139 10.0359 89.084 10.2583C89.1942 10.3573 89.2993 10.4619 89.3989 10.5718C88.9557 10.2233 88.5729 9.80322 88.266 9.32871C87.4824 8.20789 86.9309 6.93956 86.6445 5.59941C86.5074 4.85917 86.4468 4.10663 86.4635 3.35381C86.4499 2.74361 86.4923 2.13343 86.5902 1.53109C86.6578 1.12269 86.7923 0.728465 86.9884 0.364545C87.0582 0.228735 87.1499 0.105545 87.2598 0V0Z" fill="#263238"/>
<path d="M89.1347 4.32349C89.3324 4.50671 89.5041 4.71647 89.645 4.94686C90.0153 5.48007 90.3363 6.04625 90.6042 6.63835C90.8756 7.22333 91.0889 7.83386 91.2412 8.46107C91.3233 8.7191 91.3648 8.98848 91.3643 9.25943C91.3063 9.25943 91.0602 8.06736 90.4341 6.70761C89.8079 5.34786 89.084 4.37452 89.1347 4.32349Z" fill="#263238"/>
<path d="M88.5229 6.59462C88.5628 6.56181 89.1708 7.18519 89.9707 7.90699C90.4746 8.32006 90.9409 8.77756 91.3642 9.27403C90.8163 8.91749 90.3058 8.50588 89.8404 8.04551C89.3311 7.63156 88.887 7.14239 88.5229 6.59462Z" fill="#263238"/>
<path d="M97.9949 15.1504L97.9443 15.2015L97.785 15.3363C97.5875 15.5022 97.3808 15.6568 97.1661 15.7993C95.748 16.7552 94.0968 17.3012 92.3922 17.3778C92.1366 17.393 91.8804 17.393 91.6248 17.3778H91.4149H91.3425C91.3665 17.3739 91.3909 17.3739 91.4149 17.3778H91.6248C91.8058 17.3778 92.0664 17.3778 92.3885 17.3559C93.2305 17.3034 94.0625 17.1429 94.8642 16.8784C95.6644 16.6112 96.428 16.2438 97.1372 15.7847C97.4086 15.6061 97.6222 15.453 97.7669 15.3436L97.9334 15.216C97.9732 15.1614 97.9949 15.1468 97.9949 15.1504Z" fill="#FAFAFA"/>
<path d="M100.127 19.5615C100.127 19.5615 100.127 19.5798 100.076 19.6126L99.9132 19.7474C99.7756 19.8641 99.5512 20.0245 99.2943 20.2068C98.5876 20.6817 97.8269 21.0697 97.0285 21.3624C96.228 21.6514 95.3954 21.8412 94.5493 21.9274C94.2271 21.9602 93.9629 21.9748 93.7819 21.9748H93.572C93.5481 21.9787 93.5236 21.9787 93.4996 21.9748H93.572H93.7819C93.9629 21.9748 94.2235 21.942 94.5456 21.9056C95.3839 21.7929 96.2069 21.5863 96.9996 21.2895C97.7923 20.9986 98.5509 20.6208 99.2617 20.163C99.5331 19.9844 99.7467 19.8349 99.8915 19.7219L100.062 19.598L100.127 19.5615Z" fill="#FAFAFA"/>
<path d="M99.5331 25.9957C99.4837 26.0367 99.4318 26.0745 99.3775 26.1087C99.2762 26.178 99.1242 26.2728 98.9323 26.3785C98.4284 26.6519 97.8937 26.8637 97.3398 27.0092C96.7863 27.1546 96.2178 27.2341 95.6459 27.2461C95.4723 27.2553 95.2984 27.2553 95.1247 27.2461C95.0614 27.2453 94.9984 27.238 94.9365 27.2242C95.0004 27.2189 95.0645 27.2189 95.1284 27.2242C95.2478 27.2242 95.4251 27.2242 95.6423 27.2242C96.7764 27.1735 97.8869 26.8803 98.8998 26.3639C99.0952 26.2655 99.2617 26.178 99.3558 26.116C99.4108 26.0701 99.4702 26.0299 99.5331 25.9957Z" fill="#FAFAFA"/>
<path d="M100.764 25.0115C100.608 25.0808 100.444 25.1263 100.275 25.1463C100.111 25.1881 99.9415 25.2077 99.772 25.2047C99.9272 25.1353 100.092 25.0898 100.261 25.0698C100.425 25.0258 100.594 25.0062 100.764 25.0115Z" fill="#FAFAFA"/>
<path d="M97.1734 32.5758C96.9016 32.6376 96.6213 32.6524 96.3445 32.6195C96.0726 32.6051 95.8049 32.5459 95.5519 32.4445C95.5519 32.4227 95.9138 32.4992 96.3699 32.532C96.8259 32.5648 97.1698 32.5539 97.1734 32.5758Z" fill="#FAFAFA"/>
<path d="M90.3037 13.5137C90.1569 13.638 89.9952 13.7433 89.8223 13.8272C89.6598 13.9309 89.4846 14.013 89.3011 14.0714C89.448 13.9471 89.6097 13.8418 89.7825 13.7579C89.9451 13.6542 90.1203 13.5721 90.3037 13.5137Z" fill="#FAFAFA"/>
<path d="M88.5048 9.68958C88.132 9.84787 87.7746 10.0407 87.4371 10.2656C87.1169 10.5133 86.8189 10.789 86.5468 11.0894C86.6002 10.981 86.6698 10.8815 86.7531 10.7941C86.9434 10.5742 87.1584 10.3773 87.3937 10.2072C87.6319 10.0381 87.8895 9.89855 88.161 9.79165C88.2692 9.73867 88.3854 9.70418 88.5048 9.68958Z" fill="#FAFAFA"/>
<path d="M91.766 13.9256C91.8119 13.5628 91.818 13.196 91.7841 12.8319C91.7258 12.4669 91.6262 12.1097 91.4873 11.7675C91.5561 11.8543 91.6111 11.9515 91.6502 12.0554C91.7561 12.2992 91.8268 12.557 91.8601 12.821C91.8974 13.0858 91.8974 13.3546 91.8601 13.6193C91.8448 13.7257 91.8131 13.8291 91.766 13.9256Z" fill="#FAFAFA"/>
<path d="M102.964 2.03784C102.842 2.18729 102.71 2.32854 102.57 2.46071C102.183 2.82373 101.764 3.14959 101.318 3.43405C100.651 3.84966 99.9559 4.2152 99.2364 4.52768C98.4293 4.89223 97.5244 5.25677 96.6123 5.68329C95.7446 6.08338 94.9358 6.60229 94.2091 7.22532C93.6267 7.74499 93.1487 8.37242 92.8011 9.07356C92.5722 9.54397 92.4264 10.051 92.3704 10.5718C92.3379 10.9364 92.3704 11.1551 92.3523 11.1551C92.3342 11.1551 92.3523 11.1041 92.3523 11.002C92.3412 10.8588 92.3412 10.715 92.3523 10.5718C92.3934 10.0388 92.5333 9.51821 92.7649 9.03711C93.108 8.32374 93.5878 7.68571 94.1765 7.1597C94.9032 6.52733 95.7162 6.00313 96.5906 5.60309C97.5063 5.15835 98.4003 4.80474 99.2183 4.44748C99.9361 4.14265 100.632 3.78694 101.299 3.38301C101.747 3.10683 102.169 2.78954 102.559 2.4352C102.697 2.31125 102.801 2.20918 102.867 2.13627C102.932 2.06336 102.964 2.03784 102.964 2.03784Z" fill="#FAFAFA"/>
<path d="M101.987 6.36133C101.974 6.3913 101.957 6.41946 101.936 6.44517L101.788 6.67484C101.658 6.87534 101.455 7.15239 101.187 7.48413C100.495 8.35032 99.7038 9.13209 98.831 9.81357C97.9572 10.4951 97.0088 11.0737 96.0043 11.5379C95.617 11.7129 95.2985 11.8441 95.0777 11.9206L94.828 12.03C94.7977 12.0422 94.7661 12.0508 94.7339 12.0555L94.8208 12.0154L95.0741 11.9134C95.2949 11.8259 95.6062 11.691 95.9898 11.5087C96.9829 11.0335 97.9221 10.4517 98.7912 9.77347C99.6579 9.09205 100.45 8.31973 101.155 7.46955C101.423 7.14145 101.632 6.86805 101.77 6.67484L101.933 6.45611C101.946 6.42208 101.965 6.39017 101.987 6.36133Z" fill="#FAFAFA"/>
<path d="M86.8654 1.2395C87.244 1.40202 87.6074 1.59845 87.9512 1.82642C88.7952 2.37313 89.5447 3.05535 90.1698 3.846C90.794 4.63911 91.2832 5.53098 91.6176 6.48531C91.7594 6.87684 91.8648 7.28079 91.9325 7.69195C91.9215 7.66608 91.9131 7.63923 91.9071 7.61175C91.8854 7.5352 91.8637 7.45864 91.842 7.37115C91.7664 7.077 91.6746 6.78734 91.5669 6.50353C91.2245 5.56182 90.7358 4.68081 90.1192 3.89339C89.504 3.10949 88.7714 2.42689 87.9476 1.87016C87.6966 1.70079 87.4368 1.54503 87.1694 1.40355L86.9522 1.28689C86.9016 1.25773 86.8654 1.24315 86.8654 1.2395Z" fill="#FAFAFA"/>
<path d="M68.7285 14.9464C68.8697 16.8785 67.6029 18.5919 66.3252 20.05C65.0476 21.5082 63.6288 23.0174 63.3392 24.9349C62.8506 28.3325 66.1515 31.4968 65.4711 34.8506C65.1091 36.6733 63.6397 38.1023 63.3791 39.925C63.1257 41.6858 64.0631 43.4101 65.2249 44.7516C66.3868 46.0931 67.7332 45.8963 68.7611 47.3435C69.9544 48.9732 71.4734 50.333 73.2202 51.3353C76.9192 53.3768 81.3638 50.4239 83.1481 49.8771" fill="#263238"/>
<path d="M96.7208 22.8679C98.4292 22.1388 98.5631 15.9598 94.2814 15.2489C92.5622 14.9645 91.1325 14.1188 89.6884 13.1418C88.4107 12.2742 88.0307 10.076 86.9485 8.96778C85.6126 7.60587 83.9411 6.62632 82.1054 6.12957C80.2697 5.63283 78.3359 5.63676 76.5022 6.14096C74.6685 6.64516 73.001 7.63149 71.6706 8.99882C70.3401 10.3661 69.3947 12.0653 68.9312 13.9219C68.3086 16.4154 68.7357 19.3682 70.6866 21.0233C72.9523 22.9481 76.3147 22.5216 79.2175 21.9237C82.1202 21.3259 85.4103 20.7353 87.8352 22.4523C89.283 23.4876 90.1372 25.1718 91.0312 26.7321C91.9251 28.2923 93.0472 29.8854 94.7374 30.4723C94.7374 30.4723 96.0259 33.5199 94.9727 35.6379C93.9194 37.7559 96.2105 34.1433 96.2105 34.1433C96.2105 34.1433 100.376 26.6774 96.7208 22.8679Z" fill="#263238"/>
<path d="M75.0371 66.0956C75.0118 62.0856 75.0371 50.7847 75.0371 50.803C75.0371 50.8212 68.696 49.7093 67.3966 41.3904C66.7523 37.2419 66.9767 30.454 67.3351 24.8874C67.6608 19.8859 70.9544 13.7579 75.9094 14.3156L91.3497 18.2637C92.0758 18.3388 92.747 18.6873 93.2289 19.2396C93.7108 19.7918 93.9678 20.507 93.9484 21.242L93.011 59.8838L75.0371 66.0956Z" fill="#FFBE9D"/>
<path d="M69.9628 29.6521C69.9568 29.9327 70.0604 30.2045 70.2513 30.409C70.4421 30.6134 70.705 30.7344 70.9834 30.7458C71.1177 30.7557 71.2526 30.7385 71.3803 30.6953C71.5079 30.652 71.6257 30.5836 71.7268 30.494C71.8279 30.4044 71.9103 30.2954 71.9691 30.1734C72.0278 30.0514 72.0619 29.9188 72.0692 29.7834C72.0761 29.5031 71.9733 29.2314 71.7831 29.0268C71.5928 28.8222 71.3303 28.7011 71.0522 28.6897C70.9177 28.6798 70.7826 28.697 70.6548 28.7402C70.5269 28.7833 70.4089 28.8517 70.3075 28.9413C70.2061 29.0308 70.1234 29.1398 70.0642 29.2618C70.0051 29.3839 69.9706 29.5165 69.9628 29.6521Z" fill="#263238"/>
<path d="M68.7901 28.4345C68.924 28.573 69.7275 27.9752 70.8713 27.9825C72.015 27.9898 72.8474 28.5657 72.9741 28.4236C73.0356 28.3616 72.9017 28.1101 72.5362 27.8403C72.042 27.4954 71.4544 27.3122 70.8532 27.3153C70.2593 27.3129 69.6801 27.5006 69.1991 27.8512C68.848 28.1137 68.7286 28.3652 68.7901 28.4345Z" fill="#263238"/>
<path d="M80.021 30.2573C80.1513 30.3958 80.9584 29.7979 82.0985 29.8052C83.2387 29.8125 84.0783 30.3885 84.2014 30.2463C84.2629 30.1843 84.129 29.9328 83.7635 29.663C83.2693 29.3182 82.6817 29.1349 82.0805 29.1381C81.4873 29.1363 80.9087 29.3225 80.4264 29.6703C80.0753 29.9474 79.9559 30.1989 80.021 30.2573Z" fill="#263238"/>
<path d="M75.8551 37.1836C75.8551 37.118 75.1312 36.9941 74.002 36.841C73.7088 36.8118 73.4337 36.7535 73.3831 36.553C73.3598 36.2489 73.4293 35.945 73.5821 35.6817C73.8572 34.9696 74.1455 34.2247 74.4472 33.447C75.6524 30.2646 76.5247 27.6471 76.398 27.6143C76.2713 27.5815 75.1891 30.1042 73.9875 33.2866C73.6943 34.0741 73.4192 34.8214 73.155 35.5359C72.9697 35.8906 72.9146 36.2999 72.9994 36.6915C73.0413 36.7957 73.1065 36.8888 73.19 36.9634C73.2735 37.038 73.373 37.0922 73.4808 37.1217C73.641 37.1668 73.8066 37.1901 73.973 37.1909C75.1312 37.2493 75.8515 37.2565 75.8551 37.1836Z" fill="#263238"/>
<path d="M75.0371 50.803C78.9339 50.8723 82.7732 49.85 86.1269 47.8502C86.0364 47.8684 83.0758 53.6465 75.1421 52.7716L75.0371 50.803Z" fill="#EB996E"/>
<path d="M76.1845 40.5118C76.0469 39.8046 76.8758 39.575 77.4838 39.1922C78.0919 38.8094 78.4393 38.3063 79.0112 38.7438C79.3323 39.0021 79.5755 39.3455 79.7134 39.7354C79.8251 39.9919 79.8651 40.2742 79.8292 40.5519C79.7525 40.8823 79.5739 41.1797 79.3188 41.4013C78.98 41.7382 78.549 41.9655 78.081 42.0539C77.8476 42.0972 77.6078 42.0915 77.3767 42.0369C77.1456 41.9823 76.9282 41.8801 76.7382 41.7367C76.5481 41.5897 76.4003 41.3943 76.31 41.1708C76.2197 40.9472 76.1901 40.7034 76.2243 40.4645" fill="#EB996E"/>
<path d="M79.2139 37.9929C79.0293 37.9929 79.0257 39.2324 77.9616 40.1146C76.8975 40.9968 75.5801 40.8437 75.5692 41.0332C75.5692 41.1134 75.8624 41.2775 76.4198 41.2921C77.1466 41.3056 77.8546 41.0588 78.4177 40.5958C78.9586 40.1526 79.3066 39.5144 79.3877 38.8168C79.4383 38.2955 79.3008 37.9856 79.2139 37.9929Z" fill="#263238"/>
<path d="M79.8509 27.7054C79.9631 28.019 81.1032 27.8731 82.4424 28.0372C83.7816 28.2012 84.8674 28.5731 85.0447 28.2924C85.1244 28.1611 84.9362 27.8658 84.4982 27.5633C83.9154 27.1922 83.2566 26.959 82.5714 26.8814C81.8862 26.8037 81.1924 26.8835 80.5422 27.1149C80.05 27.2972 79.8003 27.5414 79.8509 27.7054Z" fill="#263238"/>
<path d="M68.9494 24.4464C69.1521 24.7089 69.9375 24.4464 70.8858 24.4464C71.834 24.4464 72.6339 24.6287 72.8185 24.3553C72.8981 24.2204 72.7715 23.9579 72.424 23.71C71.9568 23.4073 71.4083 23.2571 70.8532 23.2798C70.2967 23.2874 69.7565 23.4697 69.3077 23.8011C68.9711 24.06 68.8625 24.3188 68.9494 24.4464Z" fill="#263238"/>
<path d="M94.8533 46.155C92.5767 46.618 92.374 45.4515 90.6729 43.8584C89.8269 43.0517 89.1797 42.0572 88.7825 40.9541C88.3854 39.851 88.2494 38.6697 88.3854 37.5044C88.6424 35.4593 89.7391 33.3741 89.0369 31.4384C88.1031 28.8756 84.538 28.07 83.6078 25.5182C83.0577 24.0308 83.5535 22.2956 82.931 20.8374C82.3447 19.4667 80.9114 18.6793 79.5215 18.1726C78.1317 17.6659 76.626 17.3159 75.4678 16.4009C74.3096 15.4859 73.5676 13.7579 74.3205 12.4747C80.506 13.2202 86.5812 14.7059 92.4174 16.9003C93.7674 17.407 95.1862 18.0195 95.9861 19.2298C96.8294 20.5093 96.7896 22.1461 96.71 23.6954C96.3674 31.1832 96.0211 38.6697 95.6712 46.155" fill="#263238"/>
<path d="M100.13 43.3553C100.13 43.3553 100.163 43.3261 100.221 43.2532C100.303 43.1459 100.379 43.0339 100.449 42.9178C100.713 42.4676 100.897 41.974 100.992 41.4596C101.147 40.6409 101.103 39.7964 100.861 38.999C100.546 37.926 99.8624 37.0009 98.9323 36.3888C97.9515 35.6925 96.6738 35.2077 95.8595 34.0958C95.6544 33.8185 95.5086 33.5014 95.4313 33.1644C95.3541 32.8275 95.347 32.4781 95.4107 32.1382C95.5797 31.3951 95.8222 30.6709 96.1345 29.9765C96.4585 29.1839 96.6164 28.3325 96.5983 27.4756C96.5802 26.6187 96.3866 25.7748 96.0296 24.9968C95.6526 24.1666 95.0752 23.4448 94.3502 22.897C93.5895 22.3672 92.726 22.0057 91.8166 21.8362C90.919 21.632 90.0069 21.5117 89.1962 21.2602C88.373 21.0475 87.6155 20.6315 86.992 20.0499C86.442 19.4478 86.107 18.6781 86.0401 17.8626C85.963 17.0468 85.8325 16.2369 85.6492 15.4384C85.2791 13.9418 84.5064 12.5769 83.416 11.494C82.4498 10.559 81.2217 9.94563 79.898 9.73693C78.807 9.55473 77.6868 9.72576 76.6984 10.2254C75.9592 10.602 75.3239 11.1568 74.8489 11.8404C74.5482 12.2681 74.3275 12.7474 74.1974 13.2548C74.1482 13.4292 74.1214 13.6093 74.1178 13.7907C74.2737 13.1185 74.5603 12.4841 74.9611 11.9242C75.4351 11.2801 76.0558 10.76 76.7708 10.4077C77.7258 9.94996 78.799 9.80465 79.8401 9.99211C81.1037 10.2097 82.2715 10.8099 83.188 11.7128C84.2278 12.7626 84.9604 14.0806 85.3053 15.5223C85.4761 16.3109 85.597 17.1096 85.6673 17.9137C85.7408 18.8044 86.1077 19.6448 86.7097 20.3014C87.3692 20.9274 88.1745 21.3762 89.0514 21.6065C89.9237 21.8726 90.8177 21.9929 91.6972 22.1934C92.5594 22.3515 93.3785 22.6919 94.1004 23.1923C94.7907 23.6983 95.3413 24.3733 95.7002 25.1535C96.0407 25.8875 96.2271 26.6843 96.2476 27.4941C96.2682 28.304 96.1225 29.1093 95.8197 29.8598C95.5001 30.5767 95.2575 31.3258 95.0958 32.0945C95.0287 32.4756 95.0403 32.8665 95.13 33.2428C95.2197 33.6192 95.3854 33.9729 95.617 34.2818C96.5182 35.4775 97.8357 35.9441 98.7876 36.6112C99.6822 37.181 100.348 38.0515 100.666 39.0682C100.916 39.8341 100.98 40.649 100.854 41.4451C100.732 42.1213 100.486 42.7689 100.13 43.3553Z" fill="#455A64"/>
<path d="M89.3591 35.0729C87.4809 39.463 87.1402 44.3658 88.3927 48.9766C88.7547 50.34 89.2831 51.7545 88.9646 53.1324C88.6026 54.6234 87.3793 55.7025 86.4744 56.9346C85.6944 57.9997 85.1466 59.2189 84.8671 60.5121C84.5876 61.8053 84.5827 63.1435 84.8527 64.4388C85.1227 65.7341 85.6615 66.9572 86.4337 68.0281C87.206 69.0989 88.1943 69.9933 89.3338 70.6525C89.5726 69.2818 90.8394 68.3485 92.0881 67.7361C93.3368 67.1237 94.7158 66.6972 95.6677 65.691C96.6196 64.6849 96.8911 62.833 95.7835 61.9982C98.9686 61.1597 100.775 57.3466 100.105 54.1021C99.4355 50.8577 96.8114 48.2876 93.829 46.8805" fill="#263238"/>
<path d="M92.7577 67.4409C92.1858 67.758 91.6357 68.0387 91.5633 68.6876C91.48 69.4532 92.2075 70.791 92.4681 71.5128C92.7263 72.2235 92.7748 72.9941 92.608 73.7319C92.4411 74.4697 92.0659 75.1431 91.5277 75.671C90.9894 76.1989 90.311 76.5587 89.5743 76.707C88.8376 76.8554 88.0741 76.786 87.3756 76.5071C88.3963 76.5873 89.2613 75.5848 89.3518 74.5604C89.4423 73.5361 88.9465 72.5445 88.342 71.7133C87.7376 70.8822 86.9956 70.1494 86.4817 69.26C85.432 67.4372 83.8721 62.5232 85.0737 59.7635" fill="#263238"/>
<path d="M95.6531 62.1403C95.7129 62.0783 95.7783 62.0222 95.8486 61.9726C95.9825 61.8706 96.1743 61.7175 96.4168 61.5097C97.1035 60.9329 97.7271 60.2839 98.2772 59.5739C99.1013 58.528 99.7014 57.3216 100.04 56.0306C100.452 54.4489 100.371 52.7778 99.8082 51.2441C99.5003 50.4607 99.0566 49.7386 98.498 49.1115C97.9659 48.4954 97.3868 47.9559 96.8403 47.4346C96.3123 46.949 95.8166 46.429 95.3563 45.878C94.9585 45.3894 94.6308 44.847 94.3827 44.2667C93.9909 43.432 93.8792 42.4916 94.0642 41.5873C94.1227 41.3455 94.2127 41.1126 94.3321 40.8946C94.3705 40.8176 94.4179 40.7454 94.4732 40.6796C94.329 40.9746 94.215 41.2836 94.133 41.6019C93.9788 42.4886 94.1054 43.4017 94.4949 44.212C94.7433 44.7768 95.0699 45.3034 95.4649 45.7759C95.9285 46.3159 96.424 46.8272 96.9489 47.307C97.4954 47.8246 98.0817 48.3642 98.6283 48.9912C99.2025 49.6333 99.6574 50.3742 99.9711 51.1785C100.549 52.7484 100.629 54.4604 100.199 56.0779C99.8451 57.3868 99.2224 58.6063 98.3713 59.6578C97.8084 60.3691 97.1646 61.0115 96.453 61.5716C96.2033 61.7685 96.0006 61.9143 95.8594 62.0091C95.795 62.0593 95.7259 62.1033 95.6531 62.1403Z" fill="#455A64"/>
</svg>
