<svg width="361" height="372" viewBox="0 0 361 372" fill="none" xmlns="http://www.w3.org/2000/svg">
<path d="M241.655 191.684L122.92 170.517C122.194 170.388 121.501 170.117 120.881 169.72C120.26 169.323 119.723 168.807 119.302 168.203C118.88 167.598 118.582 166.916 118.424 166.197C118.266 165.477 118.252 164.733 118.382 164.007L131.454 90.649C131.717 89.1846 132.55 87.8843 133.77 87.0334C134.991 86.1826 136.499 85.8507 137.964 86.1106L256.721 107.277C257.447 107.407 258.14 107.678 258.76 108.075C259.381 108.472 259.918 108.987 260.339 109.592C260.761 110.197 261.059 110.878 261.217 111.598C261.375 112.318 261.389 113.062 261.259 113.787L248.18 187.146C248.051 187.873 247.779 188.567 247.381 189.189C246.983 189.811 246.466 190.348 245.86 190.77C245.254 191.191 244.57 191.489 243.849 191.646C243.127 191.803 242.382 191.816 241.655 191.684Z" fill="#E0E0E0"/>
<path d="M239.602 124.494C239.285 126.265 238.45 127.903 237.203 129.2C235.956 130.497 234.352 131.396 232.594 131.781C230.836 132.167 229.004 132.023 227.328 131.367C225.652 130.711 224.208 129.573 223.179 128.096C222.15 126.62 221.582 124.872 221.547 123.072C221.511 121.273 222.01 119.504 222.981 117.988C223.951 116.472 225.349 115.279 226.997 114.557C228.646 113.836 230.472 113.62 232.243 113.936C233.421 114.144 234.545 114.583 235.553 115.227C236.56 115.87 237.431 116.706 238.114 117.687C238.798 118.668 239.281 119.774 239.536 120.942C239.791 122.11 239.814 123.317 239.602 124.494Z" fill="white"/>
<path d="M241.462 134.292C240.898 134.29 240.335 134.241 239.78 134.143C237.386 133.713 235.249 132.376 233.816 130.41C232.382 128.445 231.762 126.002 232.085 123.59C232.408 121.179 233.648 118.985 235.548 117.465C237.447 115.945 239.86 115.217 242.283 115.431C244.707 115.646 246.954 116.787 248.557 118.616C250.16 120.446 250.996 122.824 250.89 125.255C250.784 127.685 249.745 129.981 247.989 131.665C246.232 133.348 243.894 134.289 241.462 134.292ZM241.462 116.086C239.799 116.085 238.17 116.558 236.768 117.45C235.365 118.342 234.245 119.616 233.541 121.123C232.837 122.629 232.578 124.305 232.794 125.953C233.009 127.602 233.691 129.155 234.758 130.429C235.826 131.704 237.235 132.647 238.82 133.149C240.405 133.65 242.101 133.689 243.707 133.26C245.313 132.831 246.764 131.953 247.888 130.728C249.013 129.503 249.764 127.983 250.055 126.346C250.459 124.068 249.943 121.723 248.619 119.825C247.295 117.928 245.272 116.634 242.994 116.228C242.482 116.124 241.962 116.069 241.439 116.064L241.462 116.086Z" fill="white"/>
<path d="M134.296 141.181L133.016 148.383L132.272 148.249L133.44 141.702L131.744 141.405L131.855 140.742L134.296 141.181Z" fill="white"/>
<path d="M140.538 149.046L140.426 149.708L135.367 148.807L135.464 148.279L138.983 145.876C139.935 145.221 140.181 144.768 140.263 144.269C140.411 143.436 139.92 142.818 138.819 142.625C138.456 142.534 138.078 142.528 137.711 142.605C137.345 142.682 137.002 142.842 136.706 143.071L136.267 142.528C136.652 142.236 137.096 142.034 137.568 141.935C138.04 141.836 138.529 141.843 138.998 141.955C140.486 142.216 141.23 143.123 141.044 144.321C140.917 145.013 140.59 145.593 139.459 146.367L136.58 148.339L140.538 149.046Z" fill="white"/>
<path d="M148.342 149.165L146.907 148.904L146.564 150.801L145.82 150.667L146.155 148.778L142.093 148.034L142.182 147.498L146.854 143.406L147.68 143.547L143.164 147.543L146.296 148.101L146.594 146.434L147.338 146.568L147.048 148.235L148.484 148.488L148.342 149.165Z" fill="white"/>
<path d="M159.376 151.129L157.933 150.876L157.598 152.766L156.854 152.639L157.189 150.742L153.126 149.998L153.223 149.462L157.895 145.363L158.714 145.512L154.213 149.544L157.345 150.102L157.643 148.435L158.387 148.562L158.089 150.228L159.525 150.489L159.376 151.129Z" fill="white"/>
<path d="M165.73 152.029C165.507 153.257 164.48 154.06 162.754 153.748C161.799 153.611 160.933 153.113 160.336 152.356L160.797 151.836C161.299 152.5 162.042 152.941 162.865 153.063C164.086 153.279 164.844 152.803 165.001 151.925C165.157 151.047 164.688 150.318 162.858 149.99L161.325 149.723L162.337 146.174L166.28 146.873L166.161 147.535L162.873 146.947L162.218 149.179L163.141 149.351C165.283 149.752 165.953 150.749 165.73 152.029Z" fill="white"/>
<path d="M172.857 153.264C172.799 153.575 172.676 153.87 172.498 154.131C172.319 154.393 172.088 154.614 171.82 154.781C171.551 154.948 171.251 155.058 170.937 155.103C170.624 155.148 170.305 155.127 170 155.042C168.088 154.7 167.285 153.19 167.687 150.913C168.125 148.465 169.688 147.424 171.645 147.773C172.243 147.851 172.809 148.09 173.281 148.465L172.88 149.008C172.497 148.69 172.033 148.487 171.54 148.421C169.985 148.145 168.81 148.964 168.46 150.92C168.46 151.084 168.408 151.292 168.386 151.516C168.665 151.155 169.042 150.883 169.473 150.734C169.904 150.584 170.369 150.564 170.811 150.675C172.24 150.928 173.088 151.947 172.857 153.264ZM172.113 153.16C172.284 152.208 171.689 151.478 170.581 151.278C170.359 151.213 170.127 151.194 169.898 151.222C169.669 151.25 169.449 151.325 169.249 151.441C169.05 151.557 168.877 151.713 168.74 151.898C168.603 152.084 168.505 152.295 168.453 152.52C168.311 153.309 168.832 154.179 170.082 154.402C170.298 154.468 170.525 154.487 170.749 154.459C170.972 154.43 171.187 154.355 171.38 154.238C171.572 154.12 171.738 153.964 171.865 153.778C171.993 153.592 172.08 153.382 172.121 153.16H172.113Z" fill="white"/>
<path d="M182.7 155.109C182.485 156.314 181.443 157.081 179.724 156.768C178.769 156.634 177.901 156.139 177.299 155.384L177.76 154.864C178.268 155.528 179.016 155.969 179.843 156.091C181.041 156.307 181.8 155.868 181.956 154.968C182.113 154.068 181.607 153.435 180.268 153.19L179.754 153.1L179.851 152.557L182.291 150.407L178.608 149.752L178.727 149.098L183.355 149.923L183.266 150.444L180.766 152.676C182.276 153.004 182.901 153.956 182.7 155.109Z" fill="white"/>
<path d="M189.94 156.314C189.88 156.625 189.757 156.919 189.578 157.179C189.399 157.44 189.168 157.66 188.899 157.826C188.631 157.993 188.331 158.102 188.018 158.146C187.705 158.191 187.387 158.17 187.083 158.085C185.17 157.743 184.367 156.233 184.769 153.956C185.208 151.508 186.77 150.467 188.727 150.816C189.327 150.901 189.894 151.143 190.371 151.516L189.962 152.059C189.581 151.738 189.116 151.534 188.623 151.471C187.068 151.188 185.892 152.014 185.542 153.971C185.542 154.134 185.49 154.343 185.468 154.559C185.747 154.198 186.125 153.926 186.555 153.777C186.986 153.627 187.451 153.607 187.894 153.718C189.322 154.008 190.17 154.998 189.94 156.314ZM189.196 156.203C189.367 155.258 188.771 154.521 187.663 154.328C187.441 154.261 187.208 154.24 186.978 154.267C186.748 154.294 186.525 154.368 186.325 154.485C186.125 154.601 185.951 154.758 185.813 154.945C185.676 155.131 185.579 155.344 185.528 155.57C185.386 156.359 185.915 157.23 187.157 157.453C187.371 157.52 187.597 157.541 187.82 157.515C188.042 157.489 188.257 157.416 188.45 157.302C188.643 157.188 188.81 157.034 188.939 156.851C189.069 156.668 189.159 156.46 189.203 156.24L189.196 156.203Z" fill="white"/>
<path d="M197.469 152.438L197.372 152.966L193.168 159.104L192.365 158.963L196.494 152.944L192.774 152.282L192.536 153.636L191.792 153.502L192.157 151.493L197.469 152.438Z" fill="white"/>
<path d="M207.736 154.276L207.647 154.804L203.436 160.942L202.632 160.801L206.769 154.782L203.049 154.12L202.803 155.474L202.059 155.34L202.416 153.331L207.736 154.276Z" fill="white"/>
<path d="M213.933 160.741C213.703 162.013 212.445 162.616 210.764 162.311C209.083 162.006 208.123 161.016 208.354 159.744C208.423 159.335 208.63 158.961 208.939 158.684C209.249 158.407 209.643 158.243 210.057 158.219C209.742 158.053 209.489 157.789 209.337 157.467C209.184 157.145 209.139 156.783 209.209 156.433C209.417 155.258 210.548 154.707 212.066 154.983C213.584 155.258 214.484 156.166 214.298 157.334C214.24 157.688 214.069 158.015 213.81 158.264C213.551 158.513 213.219 158.673 212.862 158.718C213.242 158.886 213.554 159.177 213.748 159.544C213.942 159.911 214.008 160.333 213.933 160.741ZM213.19 160.592C213.346 159.707 212.684 159.015 211.404 158.784C210.124 158.554 209.276 158.985 209.12 159.871C208.964 160.756 209.611 161.455 210.891 161.679C212.17 161.902 213.011 161.485 213.175 160.592H213.19ZM211.508 158.204C212.631 158.398 213.39 158.018 213.532 157.237C213.673 156.456 213.056 155.801 211.969 155.608C210.883 155.414 210.102 155.786 209.961 156.59C209.819 157.393 210.37 158.003 211.493 158.204H211.508Z" fill="white"/>
<path d="M221.225 160.332C220.786 162.78 219.223 163.814 217.267 163.464C216.668 163.386 216.103 163.147 215.63 162.772L216.032 162.229C216.412 162.55 216.877 162.754 217.371 162.817C218.926 163.092 220.101 162.274 220.451 160.317C220.486 160.123 220.511 159.927 220.525 159.729C220.246 160.09 219.868 160.361 219.438 160.51C219.007 160.659 218.542 160.68 218.1 160.57C216.671 160.31 215.823 159.29 216.061 157.974C216.12 157.663 216.242 157.369 216.42 157.108C216.599 156.848 216.829 156.627 217.096 156.46C217.364 156.293 217.664 156.183 217.976 156.138C218.288 156.092 218.607 156.112 218.911 156.195C220.83 156.538 221.634 158.055 221.225 160.332ZM220.481 158.718C220.622 157.921 220.101 157.051 218.851 156.835C218.635 156.77 218.408 156.751 218.183 156.78C217.959 156.808 217.744 156.884 217.551 157.002C217.359 157.121 217.193 157.278 217.066 157.465C216.939 157.651 216.852 157.863 216.813 158.085C216.649 159.03 217.237 159.759 218.353 159.96C218.573 160.022 218.803 160.039 219.03 160.01C219.256 159.981 219.475 159.906 219.672 159.79C219.869 159.673 220.04 159.519 220.175 159.334C220.31 159.15 220.407 158.94 220.458 158.718H220.481Z" fill="white"/>
<path d="M229.163 158.093L227.876 165.294L227.132 165.161L228.3 158.613L226.596 158.316L226.715 157.654L229.163 158.093Z" fill="white"/>
<path d="M235.405 165.957L235.264 166.656L230.212 165.756L230.309 165.228L233.821 162.824C234.78 162.17 235.019 161.716 235.108 161.217C235.257 160.384 234.766 159.767 233.664 159.573C233.301 159.483 232.923 159.476 232.557 159.553C232.191 159.631 231.847 159.79 231.551 160.02L231.105 159.476C231.491 159.186 231.937 158.983 232.41 158.884C232.883 158.785 233.373 158.792 233.843 158.904C235.331 159.164 236.075 160.072 235.889 161.277C235.763 161.961 235.435 162.542 234.297 163.315L231.418 165.287L235.405 165.957Z" fill="white"/>
<path d="M242.124 165.696C241.908 166.902 240.866 167.675 239.148 167.363C238.191 167.226 237.323 166.728 236.722 165.972L237.184 165.451C237.691 166.117 238.438 166.56 239.267 166.686C240.465 166.894 241.223 166.463 241.38 165.562C241.536 164.662 241.03 164.022 239.691 163.784L239.178 163.695L239.274 163.152L241.715 161.002L238.032 160.347L238.151 159.685L242.778 160.511L242.689 161.039L240.189 163.271C241.7 163.598 242.325 164.543 242.124 165.696Z" fill="white"/>
<path d="M185.498 163.257L184.941 166.385L242.657 176.676L243.215 173.549L185.498 163.257Z" fill="white"/>
<path d="M212.501 174.518L211.943 177.645L241.541 182.923L242.099 179.795L212.501 174.518Z" fill="white"/>
<g opacity="0.5">
<path opacity="0.5" d="M154.809 119.771L137.86 116.749C135.854 116.391 133.937 117.728 133.58 119.734L131.649 130.56C131.291 132.566 132.628 134.483 134.634 134.84L151.583 137.863C153.59 138.22 155.506 136.884 155.864 134.877L157.794 124.052C158.152 122.045 156.816 120.129 154.809 119.771Z" fill="#EBEBEB"/>
</g>
<path d="M131.9 129.173L132.108 128.013L144.578 130.245C145.238 130.302 145.896 130.11 146.422 129.706C146.948 129.303 147.305 128.718 147.421 128.065C147.538 127.413 147.406 126.74 147.052 126.18C146.698 125.619 146.147 125.212 145.508 125.037L133.038 122.805L133.247 121.644L145.716 123.876C146.717 124.055 147.605 124.623 148.186 125.457C148.767 126.291 148.994 127.321 148.815 128.321C148.636 129.322 148.068 130.21 147.234 130.791C146.4 131.373 145.37 131.599 144.37 131.42L131.9 129.173Z" fill="#E0E0E0"/>
<path d="M148.335 127.614L148.127 128.771L156.681 130.304L156.888 129.147L148.335 127.614Z" fill="#E0E0E0"/>
<path d="M202.032 112.814L139.752 101.709L138.799 107.056L201.079 118.161L202.032 112.814Z" fill="white"/>
<path d="M317.327 347.143C317.327 347.247 210.511 347.336 78.7785 347.336C-52.9541 347.336 -159.8 347.247 -159.8 347.143C-159.8 347.039 -53.0062 346.95 78.7711 346.95C210.548 346.95 317.327 347.031 317.327 347.143Z" fill="#263238"/>
<path d="M135.084 347.292L36.2365 346.831C30.5273 346.805 25.062 344.513 21.0425 340.458C17.0229 336.404 14.7782 330.919 14.8019 325.21L15.8509 77.376C15.8903 71.6692 18.189 66.2104 22.2439 62.1945C26.2988 58.1787 31.7795 55.9329 37.4865 55.9488L136.312 56.4026C142.019 56.44 147.478 58.7368 151.496 62.7903C155.513 66.8438 157.761 72.3238 157.747 78.0307L156.72 325.872C156.679 331.578 154.379 337.034 150.324 341.049C146.27 345.063 140.79 347.308 135.084 347.292Z" fill="#455A64"/>
<path d="M136.193 64.9586L117.027 64.8693C115.766 64.8928 114.565 65.4161 113.689 66.3242C112.813 67.2324 112.333 68.4511 112.355 69.7128V73.1873C112.367 73.8122 112.255 74.4334 112.027 75.0152C111.798 75.597 111.457 76.1281 111.023 76.5779C110.589 77.0278 110.071 77.3877 109.498 77.637C108.925 77.8863 108.308 78.0201 107.683 78.0307L70.3192 77.8596C69.6941 77.8432 69.0785 77.7037 68.5074 77.449C67.9364 77.1944 67.4212 76.8296 66.9913 76.3755C66.5615 75.9215 66.2254 75.3871 66.0023 74.803C65.7793 74.2189 65.6737 73.5965 65.6915 72.9715V69.497C65.7215 68.2352 65.2509 67.0127 64.3823 66.0968C63.5138 65.1808 62.3181 64.6459 61.0564 64.6089H54.3157L37.5385 64.5345C35.5581 64.5257 33.5953 64.9071 31.7622 65.6568C29.9292 66.4066 28.2617 67.5101 26.8551 68.9042C25.4485 70.2984 24.3302 71.956 23.5642 73.7823C22.7982 75.6087 22.3995 77.568 22.3907 79.5485L21.3714 321.408C21.3536 325.406 22.9244 329.248 25.7385 332.089C28.5525 334.929 32.3795 336.536 36.3779 336.556L135.032 337.01C137.013 337.019 138.977 336.637 140.81 335.887C142.644 335.136 144.312 334.032 145.718 332.637C147.125 331.242 148.243 329.584 149.009 327.757C149.774 325.93 150.172 323.969 150.18 321.988L151.192 80.099C151.208 76.1032 149.637 72.2644 146.825 69.4256C144.013 66.5869 140.189 64.9803 136.193 64.9586Z" fill="#FAFAFA"/>
<path d="M138.351 88.7666C137.529 88.8729 136.701 88.9152 135.873 88.8931C134.333 88.8931 132.198 88.9526 129.787 88.9601H129.616V88.7964C129.571 88.469 129.519 88.1268 129.475 87.7846C129.058 84.8086 128.731 82.1748 128.522 80.4636L128.641 80.5678C127.895 80.5876 127.149 80.5453 126.409 80.4413C127.149 80.3427 127.895 80.3029 128.641 80.3222H128.746V80.4264C129.021 82.1302 129.423 84.7714 129.832 87.7325C129.884 88.0747 129.928 88.417 129.973 88.7369L129.787 88.5732C132.198 88.5732 134.333 88.5732 135.873 88.6402C136.701 88.6181 137.529 88.6603 138.351 88.7666Z" fill="#263238"/>
<path d="M129.534 86.9885C129.753 86.9483 129.974 86.9284 130.196 86.9289L132.027 86.8769C133.596 86.8769 135.799 86.8173 138.351 86.8099L138.165 86.9587L138.76 83.5512C138.871 82.9411 138.976 82.3385 139.08 81.7656L139.266 81.9888C136.29 81.9888 133.693 81.9888 131.826 81.9218L129.594 81.8697C129.326 81.8809 129.058 81.8558 128.798 81.7953C129.06 81.7452 129.327 81.7228 129.594 81.7284L131.826 81.6689C133.701 81.6689 136.29 81.6168 139.266 81.6093H139.496V81.8325C139.392 82.4054 139.288 83.0081 139.184 83.6181C138.968 84.8085 138.76 85.9543 138.574 87.0257V87.1819H138.418C135.866 87.1819 133.663 87.1819 132.094 87.1149L130.263 87.0629C130.018 87.0724 129.773 87.0473 129.534 86.9885Z" fill="#263238"/>
<path d="M131.922 91.0954C131.863 91.0954 131.863 90.7606 131.506 90.5225C131.407 90.4595 131.295 90.4206 131.179 90.409C131.063 90.3973 130.945 90.4133 130.836 90.4555C130.709 90.5061 130.599 90.5938 130.523 90.7072C130.446 90.8206 130.404 90.9546 130.404 91.0916C130.404 91.2287 130.446 91.3626 130.523 91.476C130.599 91.5895 130.709 91.6771 130.836 91.7278C130.945 91.77 131.063 91.7859 131.179 91.7743C131.295 91.7627 131.407 91.7238 131.506 91.6608C131.863 91.4302 131.863 91.0805 131.922 91.0954C131.982 91.1102 131.982 91.1698 131.974 91.3186C131.947 91.5384 131.838 91.7399 131.669 91.884C131.539 91.9929 131.383 92.0665 131.217 92.0978C131.05 92.1291 130.878 92.1169 130.717 92.0626C130.515 91.993 130.339 91.8621 130.215 91.688C130.091 91.514 130.024 91.3055 130.024 91.0916C130.024 90.8778 130.091 90.6693 130.215 90.4952C130.339 90.3212 130.515 90.1902 130.717 90.1207C130.878 90.0663 131.05 90.0542 131.217 90.0855C131.383 90.1167 131.539 90.1904 131.669 90.2993C131.838 90.4434 131.947 90.6449 131.974 90.8647C131.982 91.0135 131.952 91.0954 131.922 91.0954Z" fill="#263238"/>
<path d="M137.435 91.0954C137.376 91.0954 137.376 90.7606 137.019 90.5225C136.92 90.4595 136.808 90.4206 136.692 90.409C136.576 90.3973 136.458 90.4133 136.349 90.4555C136.222 90.5061 136.113 90.5938 136.036 90.7072C135.959 90.8206 135.917 90.9546 135.917 91.0916C135.917 91.2287 135.959 91.3626 136.036 91.476C136.113 91.5895 136.222 91.6771 136.349 91.7278C136.458 91.77 136.576 91.7859 136.692 91.7743C136.808 91.7627 136.92 91.7238 137.019 91.6608C137.376 91.4302 137.376 91.0805 137.435 91.0954C137.495 91.1102 137.495 91.1698 137.487 91.3186C137.46 91.5384 137.351 91.7399 137.182 91.884C137.052 91.9929 136.896 92.0665 136.73 92.0978C136.563 92.1291 136.391 92.1169 136.23 92.0626C136.027 91.9953 135.85 91.8656 135.724 91.692C135.599 91.5184 135.531 91.3096 135.531 91.0954C135.532 90.8804 135.599 90.671 135.725 90.4963C135.85 90.3216 136.027 90.1903 136.23 90.1207C136.391 90.0663 136.563 90.0542 136.73 90.0855C136.896 90.1167 137.052 90.1904 137.182 90.2993C137.351 90.4434 137.46 90.6449 137.487 90.8647C137.495 91.0135 137.465 91.0954 137.435 91.0954Z" fill="#263238"/>
<path d="M50.4544 89.6743C48.0017 89.8658 45.5407 89.9304 43.0813 89.8678C40.6219 89.9306 38.1609 89.8661 35.7083 89.6743C38.1607 89.4781 40.6219 89.4135 43.0813 89.4809C45.5407 89.4137 48.0019 89.4783 50.4544 89.6743Z" fill="#263238"/>
<path d="M50.4544 86.8843C48.0019 87.0803 45.5407 87.1449 43.0813 87.0778C40.6219 87.1451 38.1607 87.0806 35.7083 86.8843C38.1609 86.6926 40.6219 86.628 43.0813 86.6909C45.5407 86.6282 48.0017 86.6928 50.4544 86.8843Z" fill="#263238"/>
<path d="M50.4544 84.072C48.0017 84.2635 45.5407 84.3281 43.0813 84.2654C40.6219 84.3283 38.1609 84.2638 35.7083 84.072C38.1609 83.8802 40.6219 83.8157 43.0813 83.8786C45.5407 83.8159 48.0017 83.8805 50.4544 84.072Z" fill="#263238"/>
<path d="M75.0287 129.307C75.0287 129.307 65.1335 129.173 62.9536 132.41C60.7737 135.646 51.7936 155.786 51.7936 155.786L65.8329 163.092L68.8535 154.462L73.7788 172.504C68.1393 176.968 60.1487 217.613 61.7409 234.732L114.476 234.903C114.476 234.903 114.84 187.406 100.578 171.79L103.918 152.929L107.14 162.132L122.02 155.957L110.823 135.817C109.887 134.137 108.522 132.735 106.867 131.756C105.212 130.777 103.327 130.255 101.404 130.245H97.7505C97.7505 130.245 96.2104 143.726 86.4119 143.465C76.6134 143.205 75.0287 129.307 75.0287 129.307Z" fill="#FF725E"/>
<path d="M125.755 193.351C125.747 193.272 125.747 193.192 125.755 193.113C125.755 192.934 125.755 192.703 125.695 192.413C125.683 192.034 125.641 191.655 125.569 191.282C125.496 190.78 125.389 190.283 125.249 189.794C124.901 188.419 124.347 187.105 123.604 185.896C121.858 182.983 119.151 180.77 115.949 179.638C112.747 178.505 109.25 178.524 106.061 179.691C104.738 180.158 103.495 180.828 102.378 181.677C101.797 182.106 101.245 182.574 100.727 183.076C100.213 183.609 99.7357 184.176 99.298 184.772C97.4667 187.267 96.4742 190.278 96.4634 193.373C96.4826 194.934 96.7333 196.484 97.2074 197.971C97.6844 199.412 98.3875 200.768 99.2906 201.989C100.141 203.182 101.182 204.227 102.371 205.084C103.49 205.93 104.732 206.6 106.054 207.07C109.244 208.232 112.74 208.247 115.941 207.114C119.142 205.98 121.849 203.769 123.597 200.858C124.342 199.65 124.897 198.335 125.241 196.959C125.381 196.471 125.488 195.974 125.561 195.471C125.632 195.098 125.675 194.72 125.688 194.34C125.688 194.05 125.732 193.819 125.747 193.641C125.739 193.562 125.739 193.482 125.747 193.403C125.755 193.482 125.755 193.562 125.747 193.641V194.348C125.746 194.729 125.714 195.11 125.65 195.486C125.596 196.003 125.502 196.516 125.368 197.019C125.041 198.418 124.499 199.758 123.761 200.992C122.689 202.811 121.243 204.382 119.517 205.599C117.792 206.816 115.827 207.653 113.754 208.052C111.131 208.547 108.424 208.331 105.912 207.427C104.553 206.953 103.275 206.27 102.125 205.404C101.531 204.96 100.964 204.481 100.429 203.968C99.8931 203.425 99.3959 202.846 98.9409 202.234C98.0109 200.986 97.2875 199.597 96.7982 198.12C96.3135 196.591 96.0627 194.999 96.0542 193.395C96.0524 190.2 97.0716 187.087 98.9632 184.512C99.4184 183.903 99.9156 183.326 100.451 182.786C100.985 182.271 101.551 181.791 102.148 181.35C103.3 180.486 104.577 179.801 105.935 179.319C108.446 178.415 111.153 178.199 113.776 178.694C115.85 179.094 117.815 179.932 119.541 181.15C121.266 182.369 122.712 183.941 123.783 185.762C124.521 186.993 125.063 188.33 125.39 189.727C125.525 190.233 125.619 190.747 125.673 191.268C125.737 191.644 125.769 192.024 125.769 192.406V193.113C125.773 193.192 125.768 193.272 125.755 193.351Z" fill="#FAFAFA"/>
<path d="M79.2918 160.213C79.2166 159.321 79.0773 158.436 78.8752 157.564C78.5001 156.107 77.8242 154.745 76.8908 153.564C75.9575 152.384 74.7874 151.412 73.4559 150.712C72.1244 150.011 70.661 149.597 69.1597 149.495C67.6585 149.394 66.1526 149.608 64.7392 150.124C62.7492 150.846 61.0173 152.14 59.7618 153.844C58.4119 155.676 57.6837 157.893 57.6837 160.168C57.6837 162.444 58.4119 164.66 59.7618 166.492C60.3791 167.366 61.1327 168.135 61.9938 168.769C62.8148 169.401 63.7283 169.903 64.702 170.257C66.5053 170.918 68.4529 171.082 70.3415 170.733C71.988 170.435 73.5406 169.752 74.8725 168.739C76.8302 167.26 78.2303 165.162 78.8454 162.787C79.0478 161.918 79.187 161.035 79.2621 160.146C79.2703 160.205 79.2703 160.265 79.2621 160.325C79.2621 160.458 79.2621 160.63 79.2621 160.845C79.2652 161.127 79.2428 161.408 79.1951 161.686C79.1574 162.07 79.0902 162.451 78.9942 162.824C78.7567 163.872 78.3576 164.876 77.8113 165.8C77.0106 167.146 75.9333 168.306 74.6507 169.204C73.3681 170.101 71.9094 170.717 70.3713 171.008C68.4255 171.377 66.4165 171.218 64.5532 170.547C63.5429 170.203 62.5936 169.701 61.7408 169.059C60.8357 168.407 60.0419 167.613 59.3898 166.708C57.9842 164.81 57.2255 162.511 57.2255 160.15C57.2255 157.788 57.9842 155.489 59.3898 153.591C60.0439 152.688 60.8375 151.894 61.7408 151.24C62.5951 150.601 63.544 150.099 64.5532 149.752C66.9695 148.877 69.6163 148.876 72.0331 149.75C74.4499 150.624 76.484 152.318 77.7815 154.536C78.3233 155.45 78.7223 156.441 78.9645 157.475C79.0599 157.851 79.1271 158.234 79.1653 158.621C79.2136 158.898 79.236 159.18 79.2323 159.461C79.2323 159.67 79.2323 159.841 79.2323 159.982C79.2662 160.055 79.2864 160.133 79.2918 160.213Z" fill="#FAFAFA"/>
<path d="M79.2844 224.428C79.2472 224.428 79.2472 224.13 79.1058 223.631C78.9011 222.929 78.4694 222.314 77.8782 221.883C77.4058 221.531 76.8448 221.318 76.258 221.267C75.6712 221.215 75.0817 221.328 74.5553 221.592C74.0289 221.857 73.5864 222.262 73.2772 222.764C72.9679 223.265 72.8042 223.842 72.8042 224.431C72.8042 225.02 72.9679 225.598 73.2772 226.099C73.5864 226.6 74.0289 227.006 74.5553 227.27C75.0817 227.535 75.6712 227.647 76.258 227.596C76.8448 227.545 77.4058 227.331 77.8782 226.979C78.4694 226.548 78.9011 225.934 79.1058 225.231C79.2472 224.725 79.2472 224.428 79.2844 224.428C79.3216 224.428 79.2844 224.502 79.2844 224.643C79.2887 224.853 79.2687 225.063 79.2249 225.268C79.0619 226.032 78.6352 226.714 78.0196 227.195C77.5585 227.558 77.013 227.798 76.4341 227.893C75.8552 227.988 75.2616 227.935 74.7088 227.738C74.0267 227.495 73.4366 227.046 73.0194 226.454C72.6022 225.862 72.3782 225.156 72.3782 224.431C72.3782 223.707 72.6022 223 73.0194 222.408C73.4366 221.816 74.0267 221.368 74.7088 221.124C75.2616 220.928 75.8552 220.875 76.4341 220.97C77.013 221.065 77.5585 221.305 78.0196 221.667C78.6352 222.148 79.0619 222.83 79.2249 223.594C79.2687 223.797 79.2887 224.004 79.2844 224.212C79.3067 224.361 79.2993 224.428 79.2844 224.428Z" fill="#FAFAFA"/>
<path d="M73.4886 138.763C73.4514 138.763 73.4514 138.466 73.31 137.967C73.1053 137.265 72.6736 136.65 72.0824 136.219C71.61 135.867 71.049 135.654 70.4622 135.602C69.8754 135.551 69.2859 135.664 68.7595 135.928C68.2332 136.193 67.7906 136.598 67.4814 137.099C67.1721 137.601 67.0084 138.178 67.0084 138.767C67.0084 139.356 67.1721 139.934 67.4814 140.435C67.7906 140.936 68.2332 141.342 68.7595 141.606C69.2859 141.87 69.8754 141.983 70.4622 141.932C71.049 141.881 71.61 141.667 72.0824 141.315C72.6725 140.88 73.1037 140.263 73.31 139.56C73.4514 139.061 73.4514 138.763 73.4886 138.763C73.5028 138.835 73.5028 138.908 73.4886 138.979C73.5007 139.187 73.4807 139.395 73.4291 139.597C73.2726 140.365 72.8448 141.052 72.2238 141.531C71.7644 141.894 71.2202 142.135 70.6424 142.23C70.0645 142.325 69.4719 142.271 68.9204 142.074C68.2384 141.831 67.6483 141.382 67.2311 140.79C66.8139 140.198 66.5899 139.491 66.5899 138.767C66.5899 138.043 66.8139 137.336 67.2311 136.744C67.6483 136.152 68.2384 135.704 68.9204 135.46C69.4719 135.263 70.0645 135.209 70.6424 135.304C71.2202 135.399 71.7644 135.64 72.2238 136.003C72.8443 136.48 73.2722 137.164 73.4291 137.93C73.4804 138.132 73.5005 138.34 73.4886 138.548C73.5028 138.619 73.5028 138.692 73.4886 138.763Z" fill="#FAFAFA"/>
<path d="M84.3808 208.409C84.3503 208.307 84.3279 208.203 84.3138 208.097C84.2691 207.866 84.2171 207.569 84.1501 207.204C84.0162 206.4 83.8227 205.27 83.5847 203.856L81.6354 192.019L81.8214 192.16L65.4088 194.772L65.5725 194.549V194.601V194.675V194.816L65.6171 195.092L65.7064 195.657C65.7659 196.029 65.818 196.401 65.8775 196.766C65.9965 197.51 66.1081 198.254 66.2197 198.96C66.4504 200.411 66.6736 201.832 66.8819 203.209C67.3134 205.962 67.7152 208.566 68.0872 210.954L67.8937 210.812L79.7679 209.064L83.1308 208.58L84.0311 208.461L84.351 208.424C84.2623 208.457 84.1698 208.48 84.0757 208.491L83.2127 208.647L79.9019 209.213L67.9607 211.177H67.797V211.006C67.4176 208.618 67.0009 206.021 66.562 203.268C66.3388 201.884 66.1131 200.468 65.8849 199.02C65.7733 198.276 65.6617 197.569 65.5427 196.825L65.3641 195.717L65.2748 195.151L65.2302 194.876V194.735V194.608C65.0814 194.809 65.4237 194.34 65.3865 194.385L81.8065 191.833H81.9776V191.997C82.7216 196.922 83.3392 201.044 83.7781 203.968C83.979 205.374 84.1427 206.49 84.2543 207.293C84.2989 207.65 84.3435 207.933 84.3733 208.156C84.3835 208.24 84.386 208.325 84.3808 208.409Z" fill="#FAFAFA"/>
<path d="M104.446 165.466C104.499 165.351 104.561 165.242 104.632 165.138C104.774 164.915 104.967 164.617 105.198 164.238L107.341 160.868C109.208 157.974 111.805 153.874 114.989 148.964L115.034 149.202L98.6209 138.54L98.8888 138.481L98.8442 138.555L98.7474 138.689L98.5689 138.972L98.2043 139.53L97.4603 140.646L96.0318 142.878L93.2716 147.111L88.2124 154.841L88.1603 154.603L99.9602 162.393L103.286 164.625L104.171 165.22L104.476 165.443C104.371 165.398 104.271 165.34 104.179 165.272L103.301 164.729L99.9602 162.601L87.952 154.923L87.8106 154.834L87.8999 154.692C89.4548 152.304 91.1363 149.7 92.9293 146.947L95.6821 142.699L97.1106 140.512L97.8546 139.396L98.2192 138.838L98.4052 138.555L98.4945 138.414L98.5391 138.347L98.8144 138.287L115.182 148.993L115.324 149.083L115.234 149.224L107.385 161.128L105.19 164.417L104.61 165.272C104.559 165.339 104.504 165.404 104.446 165.466Z" fill="#FAFAFA"/>
<path d="M93.3609 215.537L93.2939 215.663L93.1079 216.005L92.3639 217.307L89.6632 222.121C87.3717 226.183 84.0534 231.964 80.1698 238.72L80.0135 238.445H93.346H106.678L106.522 238.72C102.639 231.964 99.3129 226.183 97.0288 222.121L94.3281 217.307L93.5841 216.005C93.5097 215.872 93.4427 215.76 93.3981 215.663L93.3311 215.537C93.4255 215.667 93.51 215.803 93.5841 215.946L94.3281 217.188L97.1404 221.935C99.5733 226.042 102.914 231.808 106.812 238.534L106.969 238.809H106.656H93.3237H79.9912H79.6713L79.8349 238.534C83.7409 231.838 87.0815 226.042 89.5069 221.935L92.3193 217.188L93.0633 215.946C93.1516 215.802 93.2511 215.665 93.3609 215.537Z" fill="#FAFAFA"/>
<path d="M82.7886 172.995C82.7886 172.995 82.8258 173.106 82.8853 173.292C82.9448 173.478 83.0267 173.783 83.1234 174.103L83.9864 177.079C84.7304 179.572 85.6902 183.188 86.8359 187.406L86.5309 187.324L91.8133 182.027L97.118 176.745L97.1999 177.05C92.9814 175.896 89.3655 174.914 86.8731 174.2L83.8971 173.33L83.0862 173.092C82.9842 173.068 82.8846 173.036 82.7886 172.995L83.0415 173.047L83.8227 173.24L86.7988 173.984C89.4251 174.632 93.0409 175.591 97.2594 176.7L97.5719 176.782L97.3412 177.005C95.7119 178.649 93.9188 180.442 92.0588 182.31L86.7615 187.592L86.5383 187.815L86.4639 187.488C85.3479 183.262 84.3956 179.654 83.7409 177.027C83.4359 175.777 83.1903 174.795 82.9969 174.051L82.8109 173.263C82.7921 173.175 82.7846 173.085 82.7886 172.995Z" fill="#FAFAFA"/>
<path d="M100.845 171.864C100.845 171.976 94.8935 172.206 87.4535 172.385C80.0135 172.563 74.0615 172.623 74.0615 172.519C74.0615 172.415 80.0135 172.176 87.4535 171.998C94.8935 171.819 100.845 171.76 100.845 171.864Z" fill="#263238"/>
<path d="M64.4416 142.238C65.3886 144.379 66.2206 146.57 66.934 148.8C67.7607 150.993 68.4709 153.228 69.0618 155.496C68.1064 153.355 67.2742 151.162 66.5694 148.926C65.7353 146.739 65.0249 144.506 64.4416 142.238Z" fill="#263238"/>
<path d="M105.324 143.153C105.345 143.87 105.298 144.588 105.183 145.296C105.042 146.613 104.804 148.421 104.484 150.414C104.164 152.408 103.822 154.209 103.546 155.503C103.435 156.211 103.256 156.906 103.011 157.579C103.034 156.863 103.123 156.151 103.278 155.451L104.104 150.355C104.409 148.428 104.685 146.687 104.915 145.259C104.987 144.546 105.124 143.841 105.324 143.153Z" fill="#263238"/>
<path d="M76.9557 181.335C76.7713 180.886 76.6729 180.407 76.6655 179.922C76.4838 177.57 77.0628 175.223 78.3172 173.226C78.5485 172.799 78.8591 172.42 79.2323 172.11C77.4826 174.846 76.6825 178.083 76.9557 181.32V181.335Z" fill="#263238"/>
<path d="M80.9658 177.169C80.6139 176.417 80.47 175.584 80.5492 174.758C80.4961 173.929 80.663 173.1 81.0328 172.355C81.045 173.16 81.0127 173.964 80.9361 174.766C80.9063 176.082 81.0774 177.146 80.9658 177.169Z" fill="#263238"/>
<path d="M104.074 222.456C103.918 222.413 103.768 222.351 103.628 222.27C103.345 222.121 102.884 221.943 102.393 221.63C100.905 220.782 99.5171 219.769 98.2564 218.609C96.3874 216.89 94.7538 214.931 93.3981 212.784C91.7378 210.155 90.4131 207.328 89.4549 204.369C87.4386 198.06 86.9699 192.041 86.6872 187.756C86.5607 185.606 86.5012 183.857 86.464 182.652C86.464 182.087 86.464 181.625 86.464 181.268C86.4445 181.108 86.4445 180.945 86.464 180.785C86.4954 180.942 86.5153 181.101 86.5235 181.261C86.5235 181.618 86.583 182.079 86.6202 182.645C86.7095 183.894 86.8286 185.621 86.9699 187.733C87.3196 192.011 87.833 197.993 89.8343 204.25C90.7796 207.179 92.0815 209.98 93.7106 212.591C95.0353 214.724 96.628 216.68 98.4498 218.409C99.6816 219.574 101.03 220.608 102.475 221.496C103.494 222.121 104.089 222.456 104.074 222.456Z" fill="#263238"/>
<g opacity="0.2">
<path opacity="0.2" d="M86.9848 185.896C88.0529 193.601 92.0499 200.599 98.1448 205.433C100.377 207.174 102.958 208.789 103.896 211.445C104.64 213.595 104.119 215.998 103.189 218.081C103.052 218.518 102.821 218.919 102.513 219.257C102.204 219.595 101.826 219.862 101.403 220.038C100.496 220.276 99.5807 219.733 98.8367 219.175C93.9486 215.492 90.8015 209.875 89.0382 204.02C87.2749 198.164 86.8062 192.004 86.3449 185.903" fill="black"/>
</g>
<path d="M116.224 263.785C116.224 263.897 103.65 263.979 88.1528 263.979C72.6553 263.979 60.0817 263.897 60.0817 263.785C60.0817 263.674 72.6479 263.592 88.1528 263.592C103.658 263.592 116.224 263.681 116.224 263.785Z" fill="#263238"/>
<path d="M116.224 109.003C116.224 109.108 103.65 109.197 88.1528 109.197C72.6553 109.197 60.0817 109.108 60.0817 109.003C60.0817 108.899 72.6479 108.81 88.1528 108.81C103.658 108.81 116.224 108.892 116.224 109.003Z" fill="#263238"/>
<path d="M116.224 268.42C116.224 268.524 103.65 268.614 88.1528 268.614C72.6553 268.614 60.0817 268.524 60.0817 268.42C60.0817 268.316 72.6479 268.227 88.1528 268.227C103.658 268.227 116.224 268.316 116.224 268.42Z" fill="#263238"/>
<path d="M84.3436 281.917V289.996H82.4761V283.412H80.8542V281.924L84.3436 281.917Z" fill="black"/>
<path d="M85.72 285.956C85.72 283.285 87.208 281.775 89.187 281.775C91.1661 281.775 92.6541 283.263 92.6541 285.956C92.6541 288.65 91.1661 290.138 89.187 290.138C87.208 290.138 85.72 288.62 85.72 285.956ZM90.7717 285.956C90.7717 284.119 90.1245 283.36 89.187 283.36C88.2496 283.36 87.6172 284.104 87.6172 285.956C87.6172 287.809 88.2645 288.553 89.187 288.553C90.1096 288.553 90.8015 287.794 90.8015 285.956H90.7717Z" fill="black"/>
<path d="M97.8398 283.687C97.8637 283.918 97.8374 284.151 97.7626 284.371C97.6878 284.591 97.5664 284.791 97.4066 284.96C97.2469 285.128 97.0526 285.26 96.8371 285.346C96.6216 285.432 96.39 285.47 96.1583 285.458C95.8403 285.466 95.5261 285.386 95.2506 285.227L95.5333 284.669C95.7142 284.787 95.9279 284.844 96.1434 284.833C96.2699 284.842 96.3968 284.824 96.5153 284.779C96.6339 284.734 96.7412 284.664 96.8298 284.573C96.9184 284.482 96.9861 284.373 97.0282 284.254C97.0702 284.134 97.0857 284.007 97.0734 283.881C96.8489 284.08 96.5552 284.184 96.255 284.171C96.1128 284.183 95.9695 284.166 95.8342 284.121C95.6988 284.075 95.5743 284.002 95.4682 283.907C95.3622 283.811 95.2769 283.695 95.2177 283.565C95.1585 283.435 95.1267 283.294 95.1241 283.152C95.1275 282.996 95.163 282.842 95.2285 282.701C95.294 282.559 95.388 282.433 95.5047 282.329C95.6214 282.226 95.7582 282.148 95.9065 282.1C96.0548 282.052 96.2115 282.035 96.3666 282.05C97.2817 282.05 97.8398 282.623 97.8398 283.687ZM96.9916 283.114C96.9916 282.832 96.7758 282.623 96.4113 282.623C96.3425 282.616 96.273 282.623 96.2073 282.645C96.1416 282.666 96.0811 282.701 96.0299 282.747C95.9786 282.794 95.9377 282.85 95.9098 282.914C95.8819 282.977 95.8678 283.045 95.8681 283.114C95.8675 283.185 95.882 283.255 95.9108 283.319C95.9395 283.384 95.9818 283.441 96.0348 283.488C96.0877 283.534 96.1501 283.569 96.2176 283.589C96.2851 283.609 96.3563 283.615 96.4262 283.605C96.496 283.613 96.5665 283.605 96.6334 283.584C96.7003 283.563 96.7622 283.528 96.8152 283.482C96.8682 283.436 96.9112 283.38 96.9415 283.317C96.9718 283.253 96.9889 283.184 96.9916 283.114Z" fill="#263238"/>
<path d="M100.831 283.687C100.855 283.918 100.828 284.151 100.754 284.371C100.679 284.591 100.557 284.791 100.398 284.96C100.238 285.128 100.043 285.26 99.828 285.346C99.6125 285.432 99.3809 285.47 99.1492 285.458C98.8312 285.466 98.517 285.386 98.2415 285.227L98.5242 284.669C98.7074 284.788 98.9238 284.845 99.1418 284.833C99.2676 284.841 99.3937 284.822 99.5113 284.776C99.629 284.731 99.7354 284.661 99.8231 284.57C99.9108 284.479 99.9779 284.371 100.02 284.252C100.061 284.133 100.076 284.006 100.064 283.881C99.8398 284.08 99.5461 284.184 99.2459 284.171C99.1037 284.183 98.9604 284.166 98.8251 284.121C98.6897 284.075 98.5652 284.002 98.4591 283.907C98.3531 283.811 98.2678 283.695 98.2086 283.565C98.1494 283.435 98.1176 283.294 98.1151 283.152C98.1184 282.996 98.1539 282.842 98.2194 282.701C98.2849 282.559 98.3789 282.433 98.4956 282.329C98.6123 282.226 98.7491 282.148 98.8974 282.1C99.0458 282.052 99.2024 282.035 99.3575 282.05C100.273 282.05 100.831 282.623 100.831 283.687ZM99.9751 283.114C99.9902 283 99.9702 282.884 99.9176 282.782C99.865 282.679 99.7825 282.595 99.6809 282.541C99.5794 282.487 99.4637 282.465 99.3493 282.478C99.235 282.492 99.1274 282.539 99.041 282.615C98.9546 282.692 98.8934 282.792 98.8657 282.904C98.838 283.016 98.8451 283.133 98.8859 283.241C98.9268 283.348 98.9996 283.441 99.0945 283.506C99.1894 283.571 99.3019 283.606 99.4171 283.605C99.4865 283.613 99.5567 283.605 99.6232 283.584C99.6897 283.563 99.7511 283.528 99.8035 283.482C99.8559 283.436 99.8982 283.379 99.9277 283.316C99.9573 283.253 99.9734 283.184 99.9751 283.114Z" fill="#263238"/>
<path d="M100.801 286.581H95.0274V287.31H100.801V286.581Z" fill="#263238"/>
<path d="M104.223 257.863C104.223 257.967 97.2668 258.056 88.6811 258.056C80.0953 258.056 73.1389 257.967 73.1389 257.863C73.1389 257.759 80.0953 257.67 88.6811 257.67C97.2668 257.67 104.223 257.759 104.223 257.863Z" fill="#FF725E"/>
<path d="M134.027 295.765C139.752 293.393 142.471 286.83 140.099 281.106C137.728 275.381 131.165 272.662 125.44 275.034C119.716 277.405 116.997 283.968 119.368 289.693C121.74 295.417 128.303 298.136 134.027 295.765Z" fill="#FF725E"/>
<path d="M126.9 291.693C127.085 291.486 127.292 291.301 127.518 291.142C127.935 290.8 128.537 290.324 129.289 289.743C130.777 288.575 132.89 286.983 135.241 285.242C135.241 285.867 135.241 285.413 135.241 285.555L135.189 285.51L135.077 285.428L134.861 285.272L134.437 284.945L133.604 284.32L132.027 283.129L129.37 281.098L127.6 279.699C127.374 279.536 127.167 279.349 126.982 279.141C127.236 279.254 127.473 279.399 127.689 279.573L129.534 280.875L132.242 282.846L133.827 284.015L134.668 284.64L135.099 284.959L135.315 285.123L135.419 285.198L135.479 285.242C135.479 285.384 135.479 284.937 135.479 285.555C133.15 287.296 131.015 288.851 129.482 289.959L127.637 291.261C127.412 291.437 127.164 291.582 126.9 291.693Z" fill="#FAFAFA"/>
<path d="M55.88 287.212C56.8728 281.096 52.7194 275.333 46.6031 274.34C40.4868 273.347 34.7237 277.5 33.7309 283.617C32.7381 289.733 36.8915 295.496 43.0078 296.489C49.1241 297.482 54.8872 293.328 55.88 287.212Z" fill="#FF725E"/>
<path d="M47.6346 279.104C47.4522 279.315 47.2448 279.502 47.0171 279.662C46.6079 279.997 45.9978 280.473 45.2464 281.061C43.7584 282.229 41.6528 283.814 39.2944 285.525V285.22L39.3539 285.257L39.458 285.339L39.6738 285.503L40.1053 285.822L40.9386 286.447L42.5159 287.638L45.1645 289.676C45.9085 290.257 46.526 290.733 46.9352 291.075C47.1635 291.232 47.3711 291.417 47.5528 291.626C47.3005 291.511 47.0631 291.366 46.846 291.194L45.0008 289.892L42.3001 287.928L40.708 286.752L39.8747 286.127L39.4431 285.815L39.2274 285.651L39.1158 285.569L39.0637 285.532V285.22C41.3924 283.486 43.5277 281.931 45.0529 280.815C45.7969 280.309 46.3921 279.87 46.8981 279.513C47.1257 279.347 47.3731 279.209 47.6346 279.104Z" fill="#FAFAFA"/>
<path d="M59.3675 304.519H36.9508V326.936H59.3675V304.519Z" fill="#E0E0E0"/>
<path d="M87.8032 304.519H65.3865V326.936H87.8032V304.519Z" fill="#E0E0E0"/>
<path d="M116.246 304.519H93.8295V326.936H116.246V304.519Z" fill="#E0E0E0"/>
<path d="M144.682 304.519H122.265V326.936H144.682V304.519Z" fill="#E0E0E0"/>
<path d="M108.576 101.221H66.748V103.602H108.576V101.221Z" fill="#FF725E"/>
<path d="M247.123 304.765C247.09 304.621 247.078 304.473 247.086 304.326C247.086 303.991 247.086 303.582 247.086 303.061C247.086 301.908 247.049 300.33 247.027 298.404C247.027 297.414 247.027 296.335 247.027 295.189C247.027 294.609 247.027 294.014 247.027 293.396C247.003 292.756 247.023 292.115 247.086 291.477C247.284 290.025 247.976 288.685 249.045 287.683C250.115 286.681 251.497 286.079 252.959 285.976C254.421 285.874 255.874 286.279 257.073 287.122C258.271 287.965 259.143 289.196 259.541 290.606C259.71 291.234 259.79 291.883 259.779 292.533C259.779 293.151 259.779 293.746 259.779 294.326C259.779 295.477 259.779 296.548 259.779 297.54C259.779 299.467 259.734 301.045 259.719 302.198C259.719 302.711 259.719 303.128 259.682 303.463C259.698 303.609 259.698 303.756 259.682 303.902C259.661 303.756 259.661 303.608 259.682 303.463C259.682 303.128 259.682 302.719 259.645 302.198C259.645 301.045 259.645 299.467 259.578 297.54C259.578 296.548 259.578 295.477 259.578 294.326C259.651 293.115 259.566 291.9 259.325 290.711C259.037 289.709 258.494 288.799 257.749 288.07C257.005 287.341 256.084 286.818 255.076 286.551C254.069 286.284 253.01 286.283 252.002 286.548C250.994 286.813 250.072 287.334 249.326 288.062C248.378 288.995 247.761 290.213 247.57 291.529C247.51 292.15 247.488 292.773 247.503 293.396C247.503 294.014 247.503 294.609 247.503 295.189C247.503 296.335 247.503 297.421 247.503 298.404C247.503 300.33 247.458 301.908 247.443 303.061V304.326C247.357 304.486 247.249 304.634 247.123 304.765Z" fill="#263238"/>
<path d="M254.801 304.765C254.781 304.619 254.781 304.471 254.801 304.326C254.801 303.991 254.801 303.582 254.764 303.061C254.764 301.908 254.764 300.33 254.697 298.404C254.697 297.414 254.697 296.335 254.697 295.189C254.697 294.609 254.697 294.014 254.697 293.396C254.673 292.756 254.693 292.115 254.757 291.477C254.948 290.023 255.638 288.68 256.708 287.678C257.779 286.675 259.164 286.075 260.627 285.979C262.088 285.875 263.541 286.278 264.739 287.121C265.938 287.965 266.808 289.196 267.204 290.606C267.379 291.233 267.462 291.883 267.449 292.533C267.449 293.151 267.449 293.746 267.449 294.326C267.449 295.477 267.449 296.548 267.449 297.54C267.449 299.467 267.405 301.045 267.39 302.198C267.39 302.711 267.39 303.128 267.39 303.463C267.406 303.609 267.406 303.756 267.39 303.902C267.356 303.758 267.341 303.61 267.345 303.463C267.345 303.128 267.345 302.719 267.345 302.198C267.345 301.045 267.308 299.467 267.278 297.54C267.278 296.548 267.278 295.477 267.278 294.326C267.352 293.115 267.267 291.9 267.025 290.711C266.643 289.386 265.818 288.233 264.688 287.444C263.558 286.654 262.192 286.276 260.817 286.371C259.442 286.467 258.142 287.031 257.132 287.97C256.123 288.908 255.466 290.165 255.27 291.529C255.207 292.149 255.185 292.773 255.203 293.396C255.203 294.014 255.203 294.609 255.203 295.189C255.203 296.335 255.203 297.421 255.203 298.404C255.203 300.33 255.159 301.908 255.144 303.061L255.106 304.326C255.025 304.485 254.922 304.633 254.801 304.765Z" fill="#263238"/>
<path d="M237.816 301.491L232.645 347.165H268.149L272.628 301.491H237.816Z" fill="#FF725E"/>
<path d="M272.628 301.491H280.045L286.31 347.165H268.149L272.628 301.491Z" fill="#FF725E"/>
<g opacity="0.4">
<path opacity="0.4" d="M272.628 301.491H280.045L286.31 347.165H268.149L272.628 301.491Z" fill="black"/>
</g>
<path d="M236.358 314.34L270.478 323.424L268.744 341.124L234.319 332.375L236.358 314.34Z" fill="#FAFAFA"/>
<path d="M182.522 231.384C180.991 235.905 180.905 240.791 182.276 245.364C183.117 248.154 184.508 250.944 184.084 253.823C183.735 256.174 182.209 258.228 181.904 260.586C181.294 265.377 185.848 269.916 184.627 274.588C184.299 275.652 183.737 276.629 182.981 277.447C182.225 278.264 181.295 278.902 180.26 279.312C178.179 280.122 175.93 280.406 173.713 280.138C170.447 279.856 166.913 278.65 165.402 275.674C164.197 273.353 164.577 270.563 164.993 267.989C166.838 256.591 168.966 245.111 173.586 234.509" fill="#263238"/>
<path d="M183.973 266.612C183.85 266.665 183.723 266.707 183.593 266.739C183.216 266.827 182.827 266.859 182.44 266.836C181.826 266.792 181.228 266.619 180.684 266.33C179.959 265.945 179.371 265.345 179.003 264.611C178.561 263.711 178.443 262.686 178.668 261.709C178.798 261.171 179.036 260.665 179.367 260.221C179.722 259.756 180.14 259.343 180.61 258.994C181.642 258.305 182.635 257.56 183.586 256.762C184.503 255.829 185.084 254.617 185.238 253.317C185.4 252.019 185.304 250.702 184.955 249.441C184.618 248.262 184.185 247.112 183.66 246.004C182.705 244.144 181.957 242.186 181.428 240.163C181.088 238.78 181.088 237.335 181.428 235.952C181.549 235.447 181.756 234.967 182.038 234.531C181.822 234.997 181.645 235.479 181.51 235.974C181.209 237.344 181.23 238.765 181.57 240.126C182.121 242.132 182.887 244.072 183.854 245.914C184.389 247.032 184.832 248.191 185.178 249.381C185.534 250.674 185.632 252.024 185.468 253.354C185.309 254.704 184.701 255.962 183.742 256.926C182.794 257.726 181.8 258.472 180.766 259.158C179.85 259.77 179.185 260.692 178.891 261.754C178.664 262.687 178.767 263.67 179.181 264.537C179.531 265.247 180.089 265.833 180.781 266.218C181.305 266.506 181.882 266.686 182.477 266.746C182.98 266.778 183.484 266.733 183.973 266.612Z" fill="#263238"/>
<path d="M138.983 340.008L137.123 347.135L117.965 346.957C117.965 346.957 119.371 343.602 129.869 343.758L130.613 340.038L138.983 340.008Z" fill="#B78876"/>
<path d="M208.733 233.14C208.547 233.504 203.681 258.503 203.681 258.503L215.146 259.038L219.61 237.544L208.733 233.14Z" fill="#455A64"/>
<path d="M203.681 258.503L202.372 257.945L207.334 233.304L208.889 233.199L203.681 258.503Z" fill="#263238"/>
<path d="M213.338 238.601C213.323 238.718 213.343 238.837 213.395 238.942C213.447 239.048 213.53 239.136 213.632 239.195C213.735 239.253 213.852 239.28 213.97 239.272C214.087 239.264 214.2 239.221 214.293 239.149C214.386 239.076 214.456 238.978 214.493 238.866C214.53 238.754 214.534 238.634 214.502 238.52C214.471 238.406 214.406 238.304 214.317 238.227C214.228 238.15 214.118 238.102 214 238.087C213.923 238.077 213.845 238.082 213.769 238.102C213.694 238.123 213.623 238.158 213.562 238.205C213.5 238.253 213.449 238.313 213.41 238.381C213.372 238.449 213.347 238.523 213.338 238.601Z" fill="#263238"/>
<path d="M215.704 256.152L215.875 252.878L210.98 250.855L212.892 246.324C213.112 245.824 213.433 245.375 213.835 245.005C214.237 244.636 214.712 244.354 215.228 244.177C215.745 244 216.293 243.932 216.837 243.978C217.381 244.023 217.91 244.181 218.39 244.441L220.384 245.52C221.077 245.895 221.683 246.411 222.164 247.035C222.644 247.659 222.989 248.378 223.174 249.143C223.7 251.786 224.08 254.456 224.312 257.141" fill="#B78876"/>
<path d="M228.814 339.472C228.814 339.472 248.961 345.052 249.772 345.335C250.985 345.767 250.784 350.208 248.894 350.141C248.001 350.141 233.419 350.684 231.574 350.573C229.729 350.461 224.171 348.266 224.171 348.266L228.814 339.472Z" fill="#FF725E"/>
<path d="M237.206 347.165C237.459 346.426 237.757 345.703 238.099 345C238.534 344.355 239.009 343.736 239.52 343.148C238.803 343.541 238.208 344.124 237.8 344.833C237.392 345.541 237.187 346.348 237.206 347.165Z" fill="#263238"/>
<path d="M235.108 346.213C235.204 346.213 235.413 345.276 235.948 344.226C236.484 343.177 237.117 342.433 237.042 342.366C236.418 342.784 235.931 343.377 235.643 344.07C235.262 344.718 235.076 345.462 235.108 346.213Z" fill="#263238"/>
<path d="M233.136 345.685C233.241 344.965 233.401 344.253 233.612 343.557C233.928 342.9 234.294 342.268 234.706 341.667C234.067 342.097 233.574 342.713 233.293 343.431C233.013 344.148 232.958 344.935 233.136 345.685Z" fill="#263238"/>
<path d="M233.493 343.081C233.672 342.606 233.745 342.098 233.709 341.593C233.708 341.041 233.64 340.492 233.508 339.956C233.431 339.637 233.331 339.324 233.211 339.019C233.149 338.828 233.035 338.658 232.883 338.527C232.786 338.447 232.664 338.403 232.537 338.403C232.411 338.403 232.289 338.447 232.191 338.527C232.036 338.68 231.941 338.883 231.923 339.1C231.909 339.276 231.909 339.453 231.923 339.629C231.924 339.962 231.964 340.294 232.042 340.618C232.178 341.158 232.388 341.677 232.667 342.158C232.892 342.613 233.197 343.024 233.568 343.371C233.62 343.371 233.278 342.872 232.876 342.047C232.644 341.572 232.467 341.073 232.348 340.559C232.284 340.255 232.252 339.946 232.251 339.636C232.251 339.324 232.251 338.937 232.437 338.788C232.474 338.756 232.522 338.739 232.571 338.739C232.62 338.739 232.667 338.756 232.705 338.788C232.806 338.888 232.882 339.01 232.928 339.145C233.045 339.435 233.147 339.73 233.233 340.03C233.372 340.546 233.459 341.075 233.493 341.608C233.53 342.5 233.441 343.073 233.493 343.081Z" fill="#263238"/>
<path d="M233.471 342.872C233.058 342.706 232.613 342.635 232.169 342.664C231.687 342.664 231.207 342.724 230.74 342.843C230.451 342.901 230.173 343.004 229.915 343.148C229.75 343.23 229.616 343.364 229.534 343.529C229.453 343.694 229.427 343.882 229.461 344.063C229.504 344.243 229.596 344.409 229.728 344.54C229.859 344.671 230.024 344.764 230.205 344.807C230.5 344.881 230.81 344.881 231.105 344.807C231.583 344.688 232.03 344.467 232.414 344.159C232.782 343.914 233.1 343.601 233.352 343.237C232.976 343.457 232.618 343.706 232.281 343.981C231.906 344.235 231.487 344.417 231.046 344.517C230.801 344.575 230.546 344.575 230.302 344.517C230.185 344.488 230.078 344.429 229.991 344.345C229.905 344.261 229.843 344.156 229.81 344.04C229.793 343.926 229.814 343.809 229.869 343.707C229.924 343.605 230.01 343.524 230.116 343.475C230.35 343.349 230.6 343.254 230.86 343.192C231.302 343.068 231.755 342.989 232.214 342.954C232.965 342.85 233.464 342.932 233.471 342.872Z" fill="#263238"/>
<path d="M240.308 347.381C240.385 346.765 240.517 346.158 240.703 345.566C240.982 345.01 241.313 344.482 241.692 343.988C241.692 343.899 240.814 344.383 240.39 345.432C240.238 345.732 240.152 346.061 240.137 346.398C240.123 346.734 240.182 347.069 240.308 347.381Z" fill="#263238"/>
<path d="M226.247 348.311C226.482 348.457 226.731 348.579 226.991 348.676C227.718 348.957 228.464 349.188 229.223 349.368C231.747 349.931 234.33 350.181 236.916 350.112C239.936 350.112 242.659 349.948 244.631 349.866L246.967 349.74C247.252 349.738 247.536 349.708 247.815 349.65C247.532 349.608 247.245 349.595 246.96 349.613H244.624L236.916 349.762C234.354 349.827 231.792 349.617 229.275 349.137C227.392 348.743 226.269 348.244 226.247 348.311Z" fill="#263238"/>
<path d="M225.652 348.765C226.159 348.565 226.656 348.339 227.14 348.088C228.325 347.523 229.644 347.301 230.949 347.448C232.231 347.73 233.387 348.419 234.245 349.412C234.605 349.832 234.992 350.227 235.405 350.595C235.138 350.106 234.808 349.653 234.423 349.248C234.025 348.783 233.576 348.364 233.084 347.999C232.471 347.541 231.756 347.24 231.001 347.121C229.634 346.949 228.247 347.209 227.035 347.865C226.53 348.092 226.064 348.395 225.652 348.765Z" fill="#263238"/>
<path d="M207.431 333.915C207.431 333.915 188.392 346.399 187.648 346.912C186.621 347.656 187.804 351.376 189.582 350.744C190.423 350.439 206.419 345.99 208.138 345.32C209.856 344.651 214.492 340.856 214.492 340.856L207.431 333.915Z" fill="#FF725E"/>
<path d="M201.784 343.788C201.6 342.983 201.149 342.264 200.504 341.749C199.938 341.148 199.181 340.764 198.362 340.663C199.029 341.066 199.67 341.511 200.281 341.994C200.815 342.564 201.317 343.163 201.784 343.788Z" fill="#263238"/>
<path d="M203.48 342.24C203.241 341.54 202.85 340.902 202.336 340.371C201.821 339.84 201.196 339.429 200.504 339.167C200.452 339.249 201.293 339.755 202.111 340.603C202.93 341.451 203.391 342.285 203.48 342.24Z" fill="#263238"/>
<path d="M205.199 341.139C205.142 340.371 204.851 339.638 204.365 339.04C203.88 338.441 203.223 338.006 202.483 337.791C203.061 338.243 203.6 338.74 204.098 339.279C204.512 339.87 204.88 340.492 205.199 341.139Z" fill="#263238"/>
<path d="M204.068 338.766C204.113 338.766 203.852 338.23 203.637 337.344C203.508 336.825 203.433 336.294 203.413 335.76C203.395 335.448 203.395 335.135 203.413 334.822C203.418 334.682 203.454 334.545 203.518 334.421C203.545 334.379 203.587 334.35 203.636 334.339C203.684 334.328 203.735 334.336 203.778 334.361C204.001 334.45 204.113 334.815 204.217 335.105C204.309 335.398 204.372 335.7 204.403 336.005C204.451 336.536 204.434 337.071 204.351 337.597C204.217 338.498 204.038 339.085 204.09 339.085C204.345 338.642 204.514 338.155 204.589 337.65C204.705 337.107 204.745 336.551 204.708 335.998C204.683 335.665 204.623 335.336 204.529 335.016C204.476 334.847 204.414 334.68 204.343 334.517C204.259 334.317 204.106 334.154 203.912 334.056C203.797 334.003 203.667 333.992 203.545 334.025C203.423 334.057 203.316 334.131 203.242 334.235C203.142 334.409 203.088 334.606 203.086 334.807C203.064 335.134 203.064 335.463 203.086 335.79C203.124 336.34 203.226 336.885 203.391 337.411C203.514 337.907 203.745 338.37 204.068 338.766Z" fill="#263238"/>
<path d="M204.016 338.565C204.016 338.617 204.492 338.386 205.258 338.2C205.707 338.093 206.166 338.03 206.627 338.014C206.889 337.994 207.152 338.012 207.409 338.066C207.523 338.079 207.631 338.13 207.713 338.211C207.795 338.292 207.848 338.398 207.862 338.513C207.867 338.632 207.84 338.751 207.784 338.857C207.728 338.963 207.644 339.052 207.543 339.115C207.318 339.255 207.062 339.337 206.799 339.353C206.345 339.393 205.889 339.347 205.452 339.219C205.048 339.063 204.633 338.938 204.209 338.847C204.559 339.12 204.958 339.322 205.385 339.443C205.845 339.618 206.337 339.692 206.828 339.658C207.134 339.641 207.43 339.549 207.691 339.39C207.843 339.294 207.966 339.16 208.049 339C208.131 338.841 208.169 338.662 208.16 338.483C208.138 338.293 208.052 338.116 207.917 337.981C207.782 337.846 207.606 337.761 207.416 337.739C207.129 337.684 206.836 337.669 206.546 337.694C206.063 337.725 205.586 337.815 205.125 337.962C204.716 338.081 204.338 338.287 204.016 338.565Z" fill="#263238"/>
<path d="M192.038 350.045C192.038 350.045 192.358 349.851 192.506 349.301C192.657 348.591 192.529 347.85 192.149 347.232C191.959 346.9 191.746 346.581 191.509 346.28C191.327 346.02 191.109 345.788 190.862 345.588C190.69 345.442 190.477 345.351 190.252 345.328C190.096 345.328 190.014 345.328 190.014 345.38C190.27 345.456 190.507 345.588 190.706 345.767C190.912 345.978 191.096 346.21 191.256 346.458C191.45 346.749 191.666 347.054 191.852 347.396C192.194 347.952 192.34 348.607 192.268 349.256C192.206 349.523 192.129 349.786 192.038 350.045Z" fill="#263238"/>
<path d="M198.882 344.933C198.88 344.264 198.643 343.617 198.214 343.103C197.785 342.59 197.19 342.242 196.531 342.121C197.04 342.477 197.515 342.878 197.952 343.319C198.307 343.83 198.619 344.37 198.882 344.933Z" fill="#263238"/>
<path d="M212.557 341.548C212.265 341.717 211.986 341.909 211.724 342.121C210.969 342.647 210.184 343.129 209.373 343.564C208.171 344.2 206.929 344.754 205.653 345.223C204.209 345.767 202.588 346.272 200.876 346.771C197.447 347.753 194.344 348.661 192.105 349.33L189.449 350.149C189.122 350.236 188.804 350.351 188.496 350.491C188.831 350.445 189.162 350.372 189.486 350.275L192.164 349.531C194.396 348.921 197.536 348.043 200.973 347.061C202.684 346.563 204.314 346.049 205.764 345.484C207.045 344.994 208.288 344.413 209.484 343.743C210.293 343.288 211.067 342.773 211.798 342.203C212.073 342.012 212.328 341.792 212.557 341.548Z" fill="#263238"/>
<path d="M213.264 341.808C212.752 341.579 212.207 341.434 211.649 341.377C210.297 341.12 208.897 341.292 207.647 341.868C206.961 342.217 206.371 342.728 205.928 343.356C205.572 343.852 205.273 344.386 205.035 344.948C204.788 345.45 204.61 345.983 204.507 346.533C204.788 346.054 205.037 345.557 205.251 345.045C205.764 343.836 206.658 342.828 207.796 342.173C208.993 341.634 210.319 341.443 211.62 341.622C212.632 341.719 213.257 341.861 213.264 341.808Z" fill="#263238"/>
<path d="M161.705 259.537L177.329 261.025L183.683 262.825C186.395 263.596 188.878 265.019 190.914 266.969L211.382 286.619L215.102 256.115L225.332 257L223.62 296.283C222.867 298.65 221.379 300.716 219.372 302.181C217.366 303.645 214.945 304.433 212.46 304.43C209.385 304.388 206.44 303.178 204.224 301.045L189.649 287.34L189.218 306.922L199.329 315.106L160.336 336.831C160.336 336.831 158.223 328.528 159.183 310.047C159.361 306.654 153.141 296.358 152.665 293.329C150.842 281.686 151.125 264.656 151.125 264.656L161.705 259.537Z" fill="#FF725E"/>
<path d="M152.1 264.284C152.1 264.284 144.191 267.222 142.279 273.413C140.583 278.911 134.921 309.802 134.921 309.802L129.303 342.538L141.066 342.984L154.599 287.258L152.1 264.284Z" fill="#FF725E"/>
<path d="M151.571 300.397C151.677 300.187 151.757 299.965 151.809 299.735C151.943 299.304 152.122 298.671 152.33 297.89C152.754 296.32 153.297 294.17 153.818 291.737C154.339 289.304 154.8 287.132 155.09 285.532C155.232 284.736 155.343 284.089 155.41 283.643C155.463 283.411 155.486 283.173 155.477 282.936C155.386 283.156 155.318 283.385 155.276 283.62C155.165 284.134 155.024 284.751 154.852 285.488C154.488 287.147 154.012 289.29 153.491 291.663L152.077 297.831C151.914 298.575 151.78 299.192 151.661 299.706C151.605 299.932 151.575 300.164 151.571 300.397Z" fill="#263238"/>
<path d="M223.546 259.909C223.756 259.423 223.86 258.898 223.851 258.369C223.956 257.848 223.956 257.312 223.851 256.792C223.64 257.28 223.536 257.807 223.546 258.339C223.441 258.857 223.441 259.391 223.546 259.909Z" fill="#263238"/>
<path d="M220.555 259.998C220.752 259.476 220.838 258.919 220.808 258.361C220.888 257.808 220.86 257.245 220.726 256.702C220.529 257.227 220.443 257.787 220.473 258.347C220.393 258.897 220.421 259.458 220.555 259.998Z" fill="#263238"/>
<path d="M217.587 259.812C217.779 259.222 217.87 258.603 217.854 257.982C217.947 257.368 217.924 256.742 217.787 256.137C217.589 256.726 217.498 257.346 217.52 257.967C217.427 258.581 217.45 259.207 217.587 259.812Z" fill="#263238"/>
<path d="M211.835 291.291C211.909 290.389 211.872 289.482 211.724 288.59C211.688 287.685 211.538 286.787 211.277 285.919C211.204 286.821 211.241 287.728 211.389 288.62C211.421 289.526 211.572 290.424 211.835 291.291Z" fill="#263238"/>
<path d="M139.132 339.547C138.871 340.056 138.716 340.613 138.678 341.184C138.526 341.735 138.483 342.312 138.551 342.88C138.812 342.371 138.967 341.814 139.005 341.243C139.157 340.691 139.2 340.115 139.132 339.547Z" fill="#263238"/>
<path d="M135.263 339.539C135.023 340.001 134.881 340.508 134.846 341.027C134.708 341.529 134.678 342.053 134.757 342.567C135.007 342.109 135.152 341.601 135.181 341.079C135.314 340.577 135.342 340.053 135.263 339.539Z" fill="#263238"/>
<path d="M131.595 339.167C131.378 339.704 131.248 340.271 131.208 340.849C131.06 341.406 130.997 341.983 131.022 342.56C131.323 342.058 131.502 341.492 131.543 340.908C131.69 340.339 131.708 339.744 131.595 339.167Z" fill="#263238"/>
<path d="M145.753 268.093C145.753 268.16 146.572 268.093 147.844 268.376C149.498 268.727 151.034 269.496 152.308 270.608C153.579 271.732 154.544 273.161 155.113 274.759C155.552 275.987 155.611 276.805 155.671 276.798C155.706 276.606 155.706 276.409 155.671 276.217C155.61 275.697 155.501 275.184 155.344 274.685C154.826 273.01 153.855 271.512 152.539 270.355C151.217 269.199 149.603 268.427 147.874 268.123C147.358 268.036 146.835 267.998 146.311 268.011C146.122 268.012 145.935 268.039 145.753 268.093Z" fill="#263238"/>
<path d="M187.99 295.688C187.923 295.688 188.295 294.721 188.667 293.151C189.636 289.031 189.406 284.72 188.005 280.726C187.469 279.201 187.001 278.308 187.06 278.278C187.12 278.249 187.224 278.479 187.447 278.874C187.755 279.441 188.026 280.027 188.258 280.629C189.834 284.643 190.069 289.059 188.928 293.218C188.764 293.842 188.555 294.454 188.303 295.048C188.228 295.274 188.123 295.49 187.99 295.688Z" fill="#263238"/>
<path d="M188.987 306.483C188.764 306.527 188.537 306.542 188.31 306.528C187.879 306.528 187.246 306.528 186.472 306.446C182.412 306.099 178.458 304.967 174.829 303.113C174.137 302.756 173.586 302.443 173.222 302.205C173.02 302.102 172.834 301.969 172.671 301.811C172.671 301.759 173.542 302.22 174.948 302.868C178.603 304.567 182.502 305.682 186.502 306.171C187.335 306.233 188.165 306.337 188.987 306.483Z" fill="#263238"/>
<g opacity="0.2">
<path opacity="0.2" d="M171.726 301.037C172.947 302.138 174.851 302.295 176.488 302.265C178.125 302.235 179.762 301.908 181.406 301.937C182.225 301.904 183.043 302.036 183.81 302.327C184.577 302.617 185.278 303.059 185.87 303.626C186.231 303.989 186.457 304.464 186.51 304.973C186.527 305.226 186.465 305.477 186.331 305.692C186.198 305.907 186 306.075 185.766 306.171C185.458 306.249 185.136 306.249 184.828 306.171C180.223 305.219 175.275 304.14 171.712 301.074" fill="black"/>
</g>
<g opacity="0.2">
<path opacity="0.2" d="M156.66 302.496C157.873 302.146 158.067 300.725 158.148 299.467C158.633 294.26 157.619 289.022 155.224 284.372C154.652 287.787 153.699 291.35 152.992 294.832L156.66 302.496Z" fill="black"/>
</g>
<path d="M154.54 288.255C154.238 288.046 153.9 287.895 153.543 287.809C153.056 287.731 152.557 287.761 152.082 287.897C151.608 288.034 151.169 288.273 150.798 288.598C149.801 289.342 149.25 290.83 148.945 292.511C148.64 294.192 148.454 296.142 147.197 297.801C146.568 298.59 145.67 299.12 144.675 299.289C143.785 299.413 142.887 299.477 141.989 299.482C140.501 299.496 139.075 300.082 138.008 301.119C137.284 301.815 136.743 302.679 136.431 303.634C136.223 304.318 136.2 304.72 136.156 304.713C136.141 304.616 136.141 304.519 136.156 304.422C136.168 304.143 136.213 303.866 136.29 303.597C136.518 302.746 136.929 301.955 137.495 301.279C138.06 300.603 138.766 300.058 139.563 299.683C140.322 299.348 141.137 299.159 141.966 299.125C142.848 299.11 143.727 299.041 144.6 298.917C145.509 298.756 146.326 298.263 146.892 297.533C147.441 296.78 147.836 295.925 148.052 295.018C148.29 294.14 148.417 293.255 148.595 292.414C148.923 290.748 149.518 289.178 150.627 288.36C151.032 288.015 151.511 287.769 152.028 287.64C152.544 287.511 153.083 287.502 153.603 287.616C153.874 287.691 154.127 287.82 154.347 287.995C154.48 288.174 154.547 288.24 154.54 288.255Z" fill="#FAFAFA"/>
<path d="M198.734 273.859C198.5 274.409 198.17 274.913 197.759 275.347C196.629 276.576 195.116 277.386 193.466 277.646C192.328 277.837 191.16 277.745 190.066 277.378C188.847 276.889 187.723 276.189 186.748 275.31C185.707 274.358 184.561 273.526 183.333 272.832C182.679 272.501 181.966 272.304 181.235 272.252C180.48 272.217 179.725 272.313 179.003 272.535C177.569 273.021 176.217 273.721 174.993 274.61C173.821 275.463 172.576 276.21 171.273 276.842C170.069 277.378 168.766 277.657 167.448 277.661C166.305 277.652 165.17 277.463 164.085 277.103C162.516 276.572 161.101 275.665 159.964 274.462C159.663 274.135 159.389 273.784 159.145 273.413C159.052 273.289 158.975 273.154 158.915 273.011C158.952 273.011 159.279 273.539 160.075 274.357C161.225 275.495 162.627 276.347 164.167 276.842C166.448 277.599 168.929 277.485 171.131 276.523C172.397 275.877 173.609 275.131 174.754 274.291C176.004 273.37 177.39 272.649 178.861 272.155C179.626 271.916 180.428 271.817 181.227 271.865C182.005 271.92 182.764 272.13 183.459 272.483C184.713 273.196 185.881 274.05 186.941 275.027C187.88 275.888 188.963 276.578 190.14 277.066C191.183 277.43 192.299 277.535 193.392 277.371C194.993 277.137 196.474 276.387 197.61 275.235C198.019 274.806 198.394 274.346 198.734 273.859Z" fill="#FAFAFA"/>
<path d="M217.996 303.344C217.863 302.895 217.761 302.437 217.691 301.975C217.48 300.731 217.136 299.514 216.664 298.344C216.312 297.551 215.837 296.818 215.258 296.172C214.607 295.425 213.767 294.87 212.825 294.565C211.761 294.278 210.658 294.167 209.559 294.237C208.34 294.314 207.116 294.227 205.921 293.977C204.735 293.622 203.648 292.998 202.744 292.154C201.858 291.41 201.114 290.517 200.385 289.743C198.957 288.174 197.409 286.909 195.884 286.537C195.28 286.374 194.649 286.339 194.03 286.432C193.412 286.526 192.82 286.746 192.291 287.08C191.918 287.354 191.592 287.686 191.323 288.062C191.365 287.948 191.417 287.838 191.48 287.735C191.683 287.446 191.935 287.194 192.224 286.991C192.76 286.62 193.369 286.368 194.01 286.25C194.651 286.132 195.31 286.151 195.944 286.306C197.595 286.671 199.18 287.973 200.638 289.535C201.382 290.279 202.126 291.15 202.989 291.901C203.851 292.707 204.887 293.303 206.017 293.642C208.354 294.23 210.794 293.53 212.929 294.259C213.923 294.595 214.808 295.194 215.488 295.993C216.082 296.672 216.559 297.443 216.902 298.277C217.38 299.471 217.705 300.721 217.869 301.997C217.936 302.443 217.981 302.793 218.003 303.031C218.015 303.135 218.013 303.24 217.996 303.344Z" fill="#FAFAFA"/>
<path d="M188.965 292.065C188.842 292.101 188.714 292.121 188.585 292.124C188.218 292.154 187.849 292.141 187.484 292.087C186.154 291.817 184.871 291.353 183.675 290.711C182.85 290.305 181.991 289.971 181.108 289.714C180.098 289.443 179.039 289.407 178.013 289.609C175.833 290.034 173.713 291.432 171.853 293.196C169.993 294.959 168.363 296.916 166.556 298.277C164.971 299.552 163.086 300.397 161.08 300.732C159.738 300.957 158.367 300.937 157.032 300.673C156.67 300.605 156.312 300.513 155.961 300.397C155.836 300.366 155.716 300.318 155.604 300.256C155.604 300.219 156.125 300.383 157.055 300.524C158.692 300.775 160.364 300.679 161.962 300.244C163.56 299.808 165.049 299.042 166.332 297.994C168.096 296.618 169.695 294.721 171.585 292.913C173.475 291.105 175.662 289.684 177.946 289.26C179.024 289.057 180.134 289.106 181.19 289.401C182.089 289.676 182.96 290.032 183.794 290.465C184.963 291.124 186.214 291.624 187.514 291.953C187.995 292.015 188.48 292.052 188.965 292.065Z" fill="#FAFAFA"/>
<path d="M182.135 305.174C181.609 305.293 181.106 305.5 180.647 305.784C179.903 306.32 179.784 307.079 179.672 307.056C179.561 307.034 179.59 306.848 179.672 306.528C179.807 306.11 180.066 305.744 180.416 305.479C180.759 305.209 181.178 305.055 181.614 305.04C181.956 305.04 182.142 305.122 182.135 305.174Z" fill="#FAFAFA"/>
<path d="M188.511 302.138C188.397 302.954 188.069 303.724 187.559 304.37C187.153 305.094 186.562 305.697 185.848 306.119C186.274 305.439 186.739 304.783 187.239 304.155C187.629 303.461 188.053 302.789 188.511 302.138Z" fill="#FAFAFA"/>
<path d="M162.516 312.651C162.478 312.755 161.675 312.532 160.671 312.532C159.666 312.532 158.87 312.733 158.833 312.621C159.37 312.244 160.026 312.074 160.678 312.145C161.331 312.09 161.983 312.269 162.516 312.651Z" fill="#FAFAFA"/>
<path d="M141.163 276.537C141.163 276.537 141.334 276.627 141.647 276.716C142.099 276.818 142.573 276.776 143.001 276.597C143.632 276.316 144.173 275.866 144.563 275.295C145.067 274.57 145.621 273.881 146.222 273.234C147.386 272.086 148.847 271.285 150.441 270.92C150.918 270.815 151.403 270.753 151.891 270.734C152.241 270.734 152.427 270.734 152.427 270.786C152.427 270.838 151.683 270.861 150.508 271.188C148.997 271.613 147.618 272.412 146.497 273.509C145.904 274.145 145.352 274.818 144.846 275.526C144.399 276.127 143.79 276.589 143.09 276.857C142.608 277.028 142.083 277.028 141.602 276.857C141.267 276.709 141.148 276.545 141.163 276.537Z" fill="#FAFAFA"/>
<path d="M180.952 261.888C180.989 261.888 180.721 262.342 180.111 262.863C179.308 263.542 178.362 264.033 177.344 264.299C176.326 264.57 175.26 264.605 174.226 264.403C173.793 264.355 173.377 264.204 173.014 263.964C173.431 263.987 173.846 264.039 174.256 264.12C175.253 264.228 176.26 264.157 177.232 263.912C178.199 263.653 179.111 263.222 179.925 262.639C180.25 262.365 180.593 262.114 180.952 261.888Z" fill="#FAFAFA"/>
<path d="M147.576 317.331C147.576 317.368 147.264 317.331 146.721 317.48C145.963 317.667 145.253 318.012 144.637 318.492C143.723 319.209 142.963 320.105 142.405 321.125C141.736 322.264 141.185 323.618 140.478 324.994C139.853 326.33 138.95 327.517 137.83 328.476C136.888 329.269 135.682 329.678 134.452 329.622C133.637 329.596 132.853 329.303 132.22 328.788C132.048 328.65 131.898 328.487 131.774 328.305C131.692 328.178 131.655 328.111 131.669 328.104C131.684 328.097 131.87 328.35 132.317 328.677C132.955 329.118 133.713 329.354 134.489 329.354C135.644 329.366 136.763 328.956 137.636 328.201C138.7 327.256 139.561 326.104 140.166 324.816C140.858 323.461 141.431 322.1 142.13 320.947C142.721 319.897 143.527 318.984 144.496 318.268C145.156 317.785 145.921 317.464 146.728 317.331C146.946 317.308 147.165 317.308 147.383 317.331C147.472 317.309 147.576 317.316 147.576 317.331Z" fill="#FAFAFA"/>
<g opacity="0.3">
<path opacity="0.3" d="M211.062 286.202C210.402 287.003 209.938 287.946 209.706 288.957C209.474 289.968 209.479 291.019 209.722 292.027C209.804 292.362 209.953 292.727 210.28 292.824C210.419 292.852 210.562 292.84 210.693 292.79C210.825 292.74 210.94 292.654 211.024 292.541C211.179 292.317 211.286 292.064 211.337 291.797C211.773 289.9 211.737 287.925 211.233 286.046" fill="black"/>
</g>
<path d="M224.997 269.008C224.274 269.664 223.643 270.415 223.122 271.24C222.584 272.162 222.131 273.131 221.768 274.134C221.344 275.258 220.927 276.537 220.332 277.854C219.801 279.093 219.013 280.204 218.018 281.113C217.172 281.833 216.141 282.302 215.042 282.467C214.301 282.576 213.544 282.478 212.855 282.184C212.674 282.1 212.502 281.998 212.341 281.879C212.23 281.797 212.178 281.745 212.185 281.738C212.193 281.73 212.438 281.872 212.929 282.043C213.602 282.269 214.322 282.32 215.02 282.192C216.055 282.006 217.02 281.54 217.81 280.845C218.764 279.96 219.524 278.885 220.042 277.691C220.622 276.433 221.046 275.168 221.53 274.03C221.927 273.013 222.425 272.038 223.018 271.121C223.416 270.503 223.899 269.945 224.454 269.462C224.61 269.284 224.793 269.131 224.997 269.008Z" fill="#FAFAFA"/>
<path d="M225.592 260.742C225.231 261.203 224.787 261.591 224.283 261.888C221.912 263.46 219.016 264.033 216.225 263.48C215.647 263.397 215.09 263.208 214.581 262.922C214.581 262.855 215.228 263.056 216.27 263.205C218.994 263.6 221.772 263.051 224.141 261.65C225.071 261.144 225.592 260.69 225.592 260.742Z" fill="#FAFAFA"/>
<path d="M231.105 339.264C231.105 339.264 184.352 308.574 182.44 307.934C180.528 307.294 175.9 304.266 171.28 305.539C166.66 306.811 162.508 310.97 160.433 317.026C158.357 323.082 158.201 336.653 158.201 336.653C158.201 336.653 161.868 347.344 169.048 349.576C169.662 349.765 170.285 349.922 170.915 350.045C175.222 350.841 179.669 350.34 183.689 348.603C187.71 346.866 191.124 343.973 193.496 340.291L194.545 338.699C194.545 338.699 225.131 349.933 225.607 349.777L231.105 339.264Z" fill="#263238"/>
<path d="M247.049 303.47C248.741 304.145 250.192 305.31 251.215 306.816C252.239 308.323 252.788 310.101 252.793 311.922C252.837 324.205 227.973 337.776 227.973 337.776L194.88 315.843V313.522C194.88 313.522 237.496 298.203 247.049 303.47Z" fill="#263238"/>
<path d="M173.259 330.797L173.519 330.916L174.263 331.221L177.239 332.36L188.258 336.511C192.938 338.252 198.54 340.328 204.827 342.619C211.114 344.911 218.085 347.418 225.532 349.933L225.666 349.978L225.733 349.851L229.386 342.88L231.246 339.324L231.321 339.182L231.187 339.1L195.534 316.46L184.821 309.705L181.912 307.889L181.168 307.421L180.907 307.272L181.153 307.451L181.897 307.942L184.776 309.809L195.43 316.654L231.038 339.383L230.979 339.167L229.119 342.724L225.443 349.68L225.644 349.598C218.204 347.083 211.233 344.584 204.939 342.314L188.34 336.288L177.291 332.241L174.315 331.154L173.572 330.879L173.259 330.797Z" fill="#455A64"/>
<path d="M211.642 326.899C211.944 326.725 212.233 326.528 212.505 326.311C213.048 325.924 213.822 325.336 214.737 324.607C216.634 323.119 219.201 321.066 221.984 318.655C224.766 316.245 227.192 314.035 228.933 312.383C229.803 311.557 230.495 310.895 230.964 310.404C231.235 310.181 231.484 309.932 231.708 309.66C231.425 309.862 231.159 310.086 230.912 310.33L228.806 312.227C227.035 313.834 224.573 316.036 221.805 318.41C219.037 320.783 216.485 322.874 214.625 324.406L212.393 326.192C212.124 326.407 211.873 326.643 211.642 326.899Z" fill="#455A64"/>
<path d="M237.712 308.061C236.64 307.89 235.543 307.989 234.52 308.351C233.465 308.599 232.49 309.111 231.685 309.839C231.738 309.928 232.943 309.154 234.617 308.671C236.291 308.187 237.712 308.165 237.712 308.061Z" fill="#455A64"/>
<path d="M234.855 306.126C234.091 306.453 233.419 306.964 232.9 307.613C232.381 308.262 232.03 309.029 231.879 309.846C231.976 309.846 232.34 308.842 233.173 307.823C234.007 306.803 234.914 306.208 234.855 306.126Z" fill="#455A64"/>
<path d="M248.872 345.023C248.872 344.985 248.478 344.903 248.016 345.283C247.479 345.788 247.141 346.469 247.064 347.202C246.956 347.923 247.06 348.66 247.362 349.323C247.6 349.821 247.853 350.067 247.882 350.067C247.912 350.067 247.748 349.754 247.585 349.263C247.365 348.626 247.301 347.944 247.399 347.277C247.473 346.614 247.745 345.989 248.18 345.484C248.53 345.089 248.879 345.075 248.872 345.023Z" fill="#263238"/>
<path d="M153.059 235.536C152.6 235.087 152.053 234.738 151.454 234.509C150.854 234.28 150.214 234.177 149.573 234.205C148.931 234.232 148.303 234.391 147.725 234.671C147.148 234.952 146.634 235.347 146.215 235.833C145.308 237.041 144.761 238.48 144.637 239.985C144.513 241.481 144.221 242.958 143.767 244.389C143.536 245.107 143.129 245.755 142.583 246.275C142.037 246.794 141.37 247.169 140.642 247.365C139.526 247.573 138.202 247.231 137.346 247.975C137.017 248.332 136.819 248.789 136.784 249.273C136.749 249.757 136.879 250.238 137.153 250.639C137.731 251.424 138.528 252.022 139.444 252.357C139.794 252.514 140.188 252.737 140.188 253.101C140.188 253.6 139.548 253.778 139.087 253.972C137.703 254.56 137.301 256.531 138.075 257.826C138.504 258.447 139.082 258.95 139.758 259.287C140.433 259.624 141.183 259.784 141.937 259.753C143.442 259.673 144.922 259.333 146.311 258.748C146.055 259.047 145.91 259.425 145.902 259.819C145.894 260.213 146.023 260.597 146.267 260.906C146.524 261.205 146.852 261.434 147.222 261.572C147.591 261.71 147.99 261.752 148.38 261.695C149.158 261.561 149.875 261.19 150.433 260.631C151.513 259.523 152.218 258.105 152.449 256.576C152.684 255.058 152.774 253.521 152.717 251.985C152.742 246.509 153.132 241.041 153.885 235.617" fill="#263238"/>
<path d="M168.862 224.971C171.767 225.106 174.508 226.355 176.517 228.458C178.525 230.561 179.647 233.357 179.65 236.265C179.65 240.944 179.583 246.033 179.285 249.054C178.594 256.077 173.333 257.275 173.333 257.275C173.333 257.275 173.497 261.642 173.735 265.779C173.958 269.722 170.759 273.219 166.504 273.532C162.33 273.866 158.751 271.009 158.468 267.103L157.055 236.8C156.982 235.228 157.237 233.658 157.806 232.19C158.374 230.722 159.242 229.389 160.354 228.276C161.467 227.163 162.8 226.294 164.267 225.724C165.735 225.155 167.305 224.899 168.877 224.971H168.862Z" fill="#B78876"/>
<path d="M178.05 239.33C178.063 239.448 178.051 239.568 178.016 239.682C177.982 239.796 177.924 239.902 177.848 239.993C177.772 240.085 177.678 240.16 177.572 240.215C177.466 240.27 177.351 240.303 177.232 240.312C177.119 240.329 177.004 240.323 176.894 240.294C176.784 240.265 176.681 240.215 176.59 240.145C176.5 240.076 176.425 239.989 176.369 239.89C176.313 239.791 176.278 239.681 176.265 239.568C176.248 239.335 176.324 239.104 176.476 238.926C176.627 238.748 176.843 238.637 177.076 238.616C177.187 238.598 177.3 238.602 177.41 238.628C177.519 238.655 177.622 238.702 177.713 238.769C177.803 238.835 177.88 238.919 177.938 239.015C177.996 239.112 178.034 239.219 178.05 239.33Z" fill="#263238"/>
<path d="M178.028 237.946C177.924 238.073 177.217 237.611 176.257 237.671C175.298 237.73 174.628 238.251 174.516 238.14C174.405 238.028 174.561 237.879 174.851 237.634C175.252 237.324 175.737 237.143 176.242 237.113C176.742 237.087 177.238 237.214 177.664 237.477C177.976 237.693 178.08 237.894 178.028 237.946Z" fill="#263238"/>
<path d="M168.051 239.858C168.066 240.09 167.99 240.318 167.841 240.496C167.691 240.673 167.478 240.786 167.248 240.811C167.135 240.826 167.021 240.819 166.911 240.79C166.801 240.761 166.698 240.71 166.608 240.641C166.518 240.572 166.443 240.485 166.386 240.387C166.33 240.288 166.294 240.179 166.28 240.067C166.264 239.834 166.338 239.605 166.489 239.427C166.639 239.249 166.852 239.137 167.084 239.114C167.196 239.099 167.311 239.105 167.421 239.134C167.53 239.164 167.633 239.214 167.723 239.283C167.813 239.353 167.889 239.439 167.945 239.538C168.001 239.637 168.037 239.745 168.051 239.858Z" fill="#263238"/>
<path d="M168.029 238.891C167.925 239.017 167.225 238.556 166.265 238.616C165.306 238.675 164.629 239.196 164.517 239.084C164.405 238.973 164.562 238.817 164.859 238.578C165.255 238.265 165.739 238.083 166.243 238.058C166.743 238.027 167.241 238.154 167.664 238.422C167.969 238.631 168.081 238.824 168.029 238.891Z" fill="#263238"/>
<path d="M171.942 245.81C172.437 245.618 172.955 245.49 173.482 245.431C173.728 245.394 173.951 245.334 173.988 245.163C173.996 244.9 173.923 244.64 173.78 244.419L172.947 242.596C172.179 241.056 171.537 239.456 171.027 237.812C171.913 239.29 172.682 240.835 173.326 242.432C173.609 243.072 173.877 243.682 174.13 244.27C174.303 244.555 174.368 244.893 174.316 245.222C174.284 245.311 174.232 245.392 174.166 245.459C174.099 245.526 174.018 245.577 173.929 245.609C173.796 245.652 173.658 245.679 173.519 245.691C173 245.792 172.471 245.832 171.942 245.81Z" fill="#263238"/>
<path d="M173.341 257.283C170.046 257.42 166.773 256.699 163.84 255.192C163.84 255.192 166.437 260.192 173.43 259.284L173.341 257.283Z" fill="#995037"/>
<path d="M164.867 236.22C164.978 236.391 165.678 236.101 166.548 235.907C167.419 235.714 168.177 235.669 168.207 235.469C168.237 235.268 167.419 234.978 166.392 235.208C165.365 235.439 164.748 236.071 164.867 236.22Z" fill="#263238"/>
<path d="M174.375 234.494C174.42 234.687 175.208 234.665 176.153 234.68C177.098 234.695 177.887 234.732 177.939 234.539C177.991 234.345 177.195 233.966 176.161 233.958C175.127 233.951 174.323 234.308 174.375 234.494Z" fill="#263238"/>
<path d="M158.825 263.465C158.758 262.022 160.373 255.757 161.02 251.911C161.668 248.064 159.145 247.447 158.744 245.17C158.554 243.654 158.813 242.115 159.488 240.743C163.163 242.06 164.614 239.442 166.623 237.894C168.75 236.242 169.219 234.219 170.09 231.667C170.96 229.115 171.979 227.53 174.665 227.277C176.299 228.183 177.563 229.634 178.236 231.377C179.055 233.765 179.724 243.08 179.724 243.08C180.096 238.616 183.72 236.741 182.738 230.164C182.314 227.329 179.962 223.468 176.332 222.887C175.275 222.716 173.281 222.59 173.281 222.59C171.116 220.641 170.06 220.7 167.984 219.778C163.52 217.791 158.119 221.34 155.15 225.231C152.859 228.207 151.75 232.277 151.125 236.086C150.73 238.732 150.672 241.417 150.954 244.077C151.103 245.661 150.909 247.67 149.347 248.89C147.115 250.624 146.535 253.927 148.075 258.332C149.615 262.736 143.938 270.236 143.938 270.236C145.521 268.947 147.214 267.799 148.997 266.806C151.281 265.608 158.825 263.465 158.825 263.465Z" fill="#263238"/>
<path d="M170.781 248.102C170.616 247.923 170.408 247.788 170.176 247.712C169.944 247.635 169.697 247.618 169.457 247.663C169.282 247.694 169.116 247.759 168.966 247.855C168.817 247.951 168.688 248.075 168.587 248.221C168.49 248.361 168.439 248.527 168.439 248.697C168.439 248.867 168.49 249.033 168.587 249.173C168.726 249.305 168.901 249.394 169.091 249.427C169.28 249.46 169.475 249.436 169.651 249.359C170.016 249.195 170.347 248.962 170.625 248.675C170.711 248.605 170.781 248.519 170.834 248.422C170.863 248.378 170.879 248.326 170.879 248.273C170.879 248.22 170.863 248.168 170.834 248.124" fill="#995037"/>
<path d="M168.676 246.882C168.803 246.882 168.869 247.73 169.658 248.288C170.447 248.846 171.354 248.682 171.369 248.801C171.384 248.92 171.176 248.987 170.789 249.024C170.283 249.071 169.777 248.937 169.361 248.645C168.971 248.36 168.705 247.936 168.617 247.462C168.535 247.105 168.617 246.882 168.676 246.882Z" fill="#263238"/>
<path d="M138.328 244.917C138.331 245.241 138.356 245.564 138.403 245.885C138.466 246.257 138.589 246.616 138.767 246.948C139.004 247.383 139.367 247.736 139.809 247.96C140.071 248.097 140.36 248.176 140.655 248.19C140.951 248.204 141.246 248.154 141.52 248.042C141.821 247.887 142.081 247.663 142.28 247.389C142.479 247.115 142.611 246.799 142.666 246.465C142.808 245.707 142.848 244.934 142.785 244.166C142.785 243.362 142.71 242.522 142.71 241.659C142.627 240.016 142.949 238.378 143.648 236.89C143.933 236.275 144.346 235.729 144.859 235.288C145.372 234.846 145.974 234.52 146.624 234.33C147.503 234.078 148.444 234.152 149.272 234.539C149.558 234.684 149.811 234.887 150.016 235.134C149.757 234.942 149.484 234.77 149.198 234.62C148.381 234.279 147.47 234.234 146.624 234.494C146.004 234.689 145.433 235.012 144.947 235.443C144.461 235.874 144.072 236.402 143.804 236.994C143.136 238.452 142.83 240.05 142.911 241.651C142.911 242.514 142.956 243.348 142.986 244.158C143.045 244.947 142.997 245.741 142.844 246.517C142.778 246.881 142.628 247.224 142.406 247.52C142.184 247.816 141.896 248.056 141.565 248.221C141.265 248.337 140.943 248.388 140.622 248.368C140.301 248.349 139.988 248.261 139.705 248.109C139.24 247.862 138.863 247.477 138.626 247.008C138.448 246.661 138.332 246.286 138.284 245.899C138.244 245.572 138.259 245.24 138.328 244.917Z" fill="#263238"/>
<path d="M148.588 260.006C148.448 259.907 148.323 259.789 148.216 259.656C147.92 259.251 147.733 258.777 147.673 258.28C147.576 257.488 147.716 256.685 148.075 255.973C148.571 255.055 149.226 254.231 150.009 253.54C150.953 252.727 151.802 251.808 152.539 250.802C153.282 249.575 153.594 248.135 153.424 246.71C153.217 245.134 153.098 243.546 153.067 241.956C153.088 241.097 153.285 240.251 153.647 239.471C154.05 238.674 154.682 238.016 155.463 237.582C157.025 236.696 158.773 236.451 160.202 235.662C161.553 234.849 162.623 233.642 163.267 232.202C163.952 230.856 164.443 229.487 165.075 228.289C165.621 227.132 166.422 226.115 167.419 225.313C168.248 224.652 169.282 224.299 170.343 224.316C171.14 224.361 171.901 224.667 172.508 225.187C172.893 225.508 173.181 225.931 173.341 226.407C173.388 226.526 173.418 226.651 173.43 226.779C173.43 226.868 173.43 226.913 173.43 226.913C173.43 226.913 173.43 226.734 173.281 226.422C173.109 225.963 172.816 225.559 172.433 225.253C171.834 224.763 171.093 224.479 170.32 224.443C169.295 224.445 168.302 224.799 167.508 225.447C166.539 226.229 165.761 227.222 165.231 228.349C164.614 229.539 164.13 230.9 163.438 232.269C162.779 233.752 161.681 234.996 160.291 235.833C158.803 236.652 157.07 236.89 155.567 237.753C154.822 238.161 154.22 238.786 153.841 239.546C153.495 240.296 153.303 241.108 153.275 241.934C153.306 243.516 153.423 245.096 153.625 246.666C153.796 248.126 153.477 249.603 152.717 250.862C151.965 251.875 151.098 252.799 150.135 253.615C149.36 254.288 148.708 255.091 148.209 255.988C147.853 256.675 147.703 257.45 147.777 258.22C147.83 258.892 148.117 259.524 148.588 260.006Z" fill="#455A64"/>
<path d="M150.448 238.891C150.114 238.186 150.02 237.392 150.18 236.629C150.34 235.866 150.745 235.176 151.333 234.665C151.04 235.33 150.791 236.013 150.589 236.711C150.489 237.433 150.442 238.162 150.448 238.891Z" fill="#FAFAFA"/>
<path d="M152.866 260.355C152.349 264.084 153.115 267.878 155.038 271.114C155.679 272.287 156.59 273.292 157.695 274.045C158.247 274.42 158.879 274.664 159.54 274.758C160.202 274.852 160.876 274.794 161.511 274.588C162.143 274.366 162.681 273.937 163.038 273.372C163.396 272.806 163.553 272.136 163.483 271.471C163.185 269.611 160.894 268.443 160.879 266.553C161.712 267.059 162.843 267.542 163.572 266.895C163.796 266.652 163.941 266.348 163.99 266.022C164.039 265.696 163.99 265.363 163.847 265.065C163.547 264.477 163.167 263.933 162.717 263.45C161.876 262.37 161.263 261.131 160.915 259.808C160.568 258.484 160.492 257.104 160.693 255.75C160.804 255.006 161.005 252.67 161.02 251.911C161.035 251.152 160.812 251.911 160.276 251.412C159.979 251.182 159.63 251.025 159.26 250.957C158.89 250.888 158.509 250.909 158.148 251.018C157.432 251.25 156.785 251.656 156.266 252.201C155.395 253.059 154.714 254.091 154.268 255.229C153.822 256.367 153.621 257.587 153.677 258.808" fill="#263238"/>
<path d="M185.434 168.134L179.1 183.693C178.546 185.056 179.201 186.61 180.563 187.165L206.301 197.642C207.663 198.196 209.217 197.541 209.772 196.179L216.106 180.619C216.661 179.257 216.006 177.703 214.643 177.148L188.906 166.671C187.543 166.116 185.989 166.771 185.434 168.134Z" fill="#FF725E"/>
<g opacity="0.4">
<path opacity="0.4" d="M185.434 168.134L179.1 183.693C178.546 185.056 179.201 186.61 180.563 187.165L206.301 197.642C207.663 198.196 209.217 197.541 209.772 196.179L216.106 180.619C216.661 179.257 216.006 177.703 214.643 177.148L188.906 166.671C187.543 166.116 185.989 166.771 185.434 168.134Z" fill="black"/>
</g>
<path d="M207.215 178.56C207.251 178.423 207.303 178.29 207.371 178.166C207.513 177.876 207.684 177.518 207.892 177.072C208.553 175.752 209.1 174.378 209.529 172.965C210.182 170.882 210.135 168.643 209.395 166.589C208.919 165.407 208.107 164.39 207.059 163.665C205.895 162.9 204.647 162.271 203.339 161.79C200.728 160.734 197.93 160.198 195.579 160.935C194.478 161.273 193.474 161.873 192.655 162.683C191.934 163.394 191.32 164.206 190.832 165.094C190.141 166.398 189.582 167.769 189.166 169.186L188.801 170.339C188.763 170.474 188.713 170.606 188.652 170.733C188.655 170.591 188.681 170.451 188.727 170.316C188.786 170.049 188.883 169.647 189.017 169.141C189.385 167.694 189.911 166.291 190.587 164.96C191.074 164.039 191.696 163.197 192.432 162.46C193.275 161.594 194.321 160.952 195.475 160.592C196.751 160.212 198.095 160.118 199.411 160.317C200.811 160.52 202.18 160.894 203.488 161.433C204.798 161.93 206.046 162.577 207.208 163.36C208.312 164.126 209.164 165.204 209.656 166.455C210.414 168.581 210.438 170.899 209.722 173.04C209.268 174.46 208.678 175.832 207.959 177.139C207.714 177.608 207.513 177.965 207.379 178.203C207.335 178.326 207.28 178.446 207.215 178.56Z" fill="#263238"/>
<path d="M181.603 166.438L175.269 181.998C174.715 183.36 175.369 184.914 176.732 185.469L202.469 195.946C203.832 196.501 205.386 195.846 205.941 194.483L212.275 178.924C212.829 177.561 212.174 176.007 210.812 175.453L185.074 164.975C183.712 164.421 182.158 165.076 181.603 166.438Z" fill="#FF725E"/>
<g opacity="0.7">
<path opacity="0.7" d="M178.78 173.352C180.81 174.67 182.925 175.853 185.111 176.893C187.343 177.816 185.26 178.381 188.95 177.98C192.64 177.578 192.968 177.563 193.793 178.233C194.619 178.902 194.991 179.869 195.624 180.212C196.201 180.489 196.792 180.738 197.394 180.956C197.394 180.956 200.088 182.079 200.705 182.25C205.043 183.456 206.032 182.414 207.267 184.237C208.502 186.06 209.313 186.156 209.313 186.156L210.154 184.088L206.248 182.503C206.248 182.503 204.448 181.015 203.919 180.673C203.391 180.331 203.175 179.594 202.223 179.988C201.476 180.271 200.677 180.395 199.879 180.353C199.329 180.353 197.38 180.018 197.38 180.018L195.683 179.326L195.304 177.838L193.756 176.767L192.923 176.648L190.832 176.127L187.923 175.71L184.947 174.966L183.251 174.275L180.684 174.111L178.78 173.352Z" fill="white"/>
</g>
<g opacity="0.7">
<path opacity="0.7" d="M178.169 177.265L182.596 180.71L184.791 182.6C184.791 182.6 187.767 184.237 188.749 184.207C189.645 184.276 190.524 184.487 191.353 184.832L192.841 186.067L194.909 186.908L197.208 187.205L199.269 187.265L201.062 188.009L203.421 188.969L205.586 189.854L206.903 190.39L207.238 191.29L207.982 189.422L201.851 185.256L197.231 184.72L193.414 183.173L191.673 181.119L188.585 180.874L185.699 180.13L182.567 178.642L179.271 177.303L178.169 177.265Z" fill="white"/>
</g>
<g opacity="0.7">
<path opacity="0.7" d="M176.332 179.349L178.318 184.467L180.007 186.796L185.379 188.983L182.046 183.679L179.449 181.96L177.329 179.341L176.667 178.523L176.332 179.349Z" fill="white"/>
</g>
<g opacity="0.7">
<path opacity="0.7" d="M184.687 184.2L188.28 187.533L188.868 190.404L192.358 191.818L196.405 193.47L199.076 192.309L202.409 191.959L203.823 191.989L201.092 190.881L197.722 191.044L195.118 190.695L192.432 188.396L189.411 187.168L188.556 185.777L187.105 184.743L184.687 184.2Z" fill="white"/>
</g>
<g opacity="0.7">
<path opacity="0.7" d="M181.257 170.064L186.391 170.949L190.624 169.93L193.6 169.186L196.822 171.269L200.542 173.01L205.169 173.903L208.145 174.222L210.444 176.149L211.501 179.765L211.56 180.688L211.144 181.715L208.562 177.801C207.895 177.148 207.192 176.532 206.456 175.956C206.174 175.837 204.872 174.981 204.291 175.071C203.03 175.105 201.772 174.924 200.571 174.535C199.217 174.096 196.807 173.449 196.807 173.449L194.575 172.08L193.258 171.544H190.066L188.243 172.229L186.592 173.054L183.854 171.946L179.91 170.718L180.498 169.29L181.257 170.064Z" fill="white"/>
</g>
<g opacity="0.7">
<path opacity="0.7" d="M187.068 166.135L181.168 167.474L180.721 168.561L184.114 168.59L187.306 168.315L189.404 167.088L187.068 166.135Z" fill="white"/>
</g>
<path d="M202.461 195.932C202.8 196.041 203.154 196.093 203.51 196.089C204.016 196.074 204.507 195.914 204.923 195.626C205.339 195.338 205.662 194.935 205.854 194.467L210.072 183.932C210.529 182.816 210.997 181.653 211.478 180.442C211.716 179.84 211.999 179.207 212.222 178.597C212.401 177.963 212.324 177.285 212.007 176.707C211.664 176.11 211.104 175.668 210.444 175.472L208.391 174.639L204.098 172.906L184.992 165.168C184.599 165.01 184.171 164.954 183.751 165.008C183.33 165.061 182.93 165.221 182.589 165.473C182.264 165.725 182.008 166.055 181.845 166.433L181.331 167.66L179.352 172.534C178.043 175.728 176.791 178.796 175.595 181.737C175.428 182.073 175.32 182.435 175.275 182.808C175.233 183.349 175.367 183.889 175.656 184.347C175.946 184.806 176.376 185.159 176.882 185.353L180.93 187.004L188.176 189.98L198.667 194.318L201.509 195.516L202.253 195.836C202.338 195.869 202.42 195.909 202.498 195.955C202.409 195.937 202.322 195.909 202.238 195.873L201.494 195.59L198.622 194.459L188.087 190.241L180.818 187.302L176.771 185.665C176.391 185.522 176.047 185.299 175.761 185.012C175.475 184.724 175.253 184.379 175.112 183.999C174.965 183.61 174.907 183.193 174.94 182.778C174.985 182.371 175.098 181.973 175.275 181.603L178.995 172.385C179.65 170.793 180.305 169.163 180.974 167.519C181.145 167.102 181.302 166.693 181.488 166.269C181.682 165.833 181.984 165.454 182.366 165.168C182.76 164.878 183.222 164.694 183.708 164.632C184.193 164.571 184.687 164.635 185.141 164.818L204.224 172.608L208.502 174.364L210.556 175.205C211.285 175.429 211.9 175.924 212.274 176.588C212.63 177.242 212.713 178.009 212.505 178.724C212.267 179.393 211.999 179.981 211.761 180.591L210.333 184.073C208.502 188.485 207.022 192.064 205.995 194.556C205.752 195.122 205.324 195.588 204.782 195.88C204.393 196.095 203.955 196.207 203.51 196.208C203.142 196.212 202.78 196.117 202.461 195.932Z" fill="#263238"/>
<path d="M292.001 219.748C292.001 219.748 292.001 219.584 292.001 219.264L292.158 217.851C292.158 217.538 292.247 217.188 292.254 216.802C292.262 216.415 292.254 215.991 292.254 215.537C292.254 215.083 292.292 214.585 292.254 214.049C292.217 213.513 292.158 212.963 292.113 212.375C291.818 209.496 291.064 206.683 289.881 204.042C288.327 200.547 286.044 197.424 283.185 194.883L281.972 193.827C281.541 193.5 281.087 193.187 280.633 192.86C279.71 192.206 278.746 191.612 277.746 191.082C275.612 189.967 273.337 189.144 270.983 188.634C269.758 188.354 268.515 188.157 267.263 188.046C266.624 187.979 265.976 188.046 265.322 187.986H264.34C264.005 187.986 263.677 188.039 263.35 188.061C260.622 188.218 257.937 188.811 255.397 189.817C249.884 191.933 245.213 195.791 242.094 200.806C238.773 206.203 237.413 212.58 238.24 218.863C238.299 219.269 238.366 219.678 238.441 220.09V220.172L238.396 220.239L229.684 232.411L229.498 232.113L242.429 230.112H242.548L242.607 230.209C246.331 235.787 251.999 239.779 258.507 241.406C259.484 241.66 260.479 241.844 261.483 241.956L262.971 242.142C263.462 242.202 263.96 242.179 264.459 242.194C268.133 242.296 271.788 241.645 275.202 240.282C278.128 239.106 280.833 237.441 283.2 235.357L284.725 233.929L286.027 232.441C286.438 231.97 286.818 231.473 287.165 230.953C287.508 230.454 287.909 230.008 288.162 229.517C289.171 227.894 290.014 226.174 290.677 224.383L291.347 222.426C291.488 221.846 291.6 221.355 291.696 220.938C291.793 220.522 291.86 220.254 291.912 220.038C291.964 219.822 292.001 219.733 292.001 219.733C292.001 219.733 292.001 219.845 291.949 220.045C291.897 220.246 291.838 220.559 291.756 220.953C291.674 221.347 291.562 221.853 291.436 222.441C291.309 223.029 291.034 223.676 290.796 224.42C290.151 226.238 289.318 227.983 288.311 229.628C288.036 230.127 287.664 230.573 287.322 231.079C286.976 231.6 286.596 232.097 286.183 232.567L284.881 234.055L283.349 235.506C280.973 237.621 278.253 239.315 275.306 240.513C271.86 241.904 268.166 242.575 264.451 242.485C263.96 242.485 263.462 242.485 262.963 242.432L261.475 242.254C260.451 242.143 259.437 241.959 258.44 241.703C251.845 240.068 246.097 236.033 242.317 230.387L242.503 230.469L229.572 232.478L229.119 232.552L229.386 232.18L238.143 220.008L238.106 220.157C238.032 219.74 237.965 219.324 237.905 218.907C237.049 212.534 238.421 206.06 241.789 200.582C244.953 195.492 249.691 191.574 255.285 189.422C257.863 188.412 260.585 187.817 263.35 187.659C263.685 187.659 264.02 187.6 264.347 187.592H265.344C266.006 187.592 266.668 187.592 267.316 187.667C268.592 187.782 269.86 187.984 271.11 188.269C273.487 188.789 275.782 189.63 277.932 190.769C278.944 191.305 279.919 191.909 280.849 192.577C281.303 192.904 281.764 193.217 282.196 193.552L283.423 194.623C288.532 199.174 291.723 205.495 292.351 212.308C292.396 212.903 292.433 213.461 292.478 213.997C292.522 214.532 292.478 215.016 292.478 215.485C292.478 215.953 292.478 216.37 292.44 216.757C292.403 217.144 292.359 217.501 292.321 217.806C292.24 218.416 292.173 218.885 292.128 219.22C292.083 219.554 292.001 219.748 292.001 219.748Z" fill="#263238"/>
<path d="M273.997 204.652L277.263 229.39H253.068L256.594 204.652H273.997Z" fill="#455A64"/>
<path d="M258.559 208.238C258.884 209.057 259.307 209.833 259.816 210.552C260.37 211.321 261.09 211.957 261.921 212.412C262.946 212.959 264.093 213.238 265.255 213.223C266.415 213.252 267.564 212.996 268.603 212.479C269.439 212.036 270.152 211.391 270.678 210.604C271.151 209.856 271.526 209.051 271.794 208.208C271.812 208.46 271.779 208.713 271.698 208.952C271.527 209.596 271.261 210.21 270.909 210.775C270.384 211.627 269.649 212.329 268.774 212.814C267.688 213.378 266.477 213.657 265.255 213.625C264.029 213.639 262.822 213.334 261.75 212.739C260.884 212.245 260.145 211.554 259.593 210.723C259.217 210.176 258.924 209.577 258.722 208.945C258.621 208.723 258.566 208.482 258.559 208.238Z" fill="white"/>
</svg>
